<svg width="146" height="47" viewBox="0 0 146 47" fill="none" xmlns="http://www.w3.org/2000/svg">
<g clip-path="url(#clip0_126_17198)">
<path d="M0.122928 46.2598C2.503 42.6707 4.88679 39.0816 7.25941 35.4888C10.4552 30.6541 13.6435 25.812 16.8356 20.9736C17.2788 20.3009 17.2825 20.2935 16.4854 20.1678C15.9826 20.0865 15.4947 19.9645 15.0216 19.7834C13.2599 19.1218 12.4293 17.8244 12.5485 15.943C12.5783 15.943 12.6304 15.943 12.6341 15.9504C13.2152 18.0757 14.8801 18.7854 16.843 18.9961C19.3758 19.2696 21.808 18.8778 24.0614 17.6322C24.1285 17.5952 24.2067 17.573 24.3185 17.5287C24.3929 17.8133 24.1844 17.9501 24.0763 18.1127C21.9794 21.1399 19.8488 24.145 17.9045 27.2757C17.5768 27.8043 17.2565 28.3403 17.141 28.9686C17.0032 29.7116 17.2676 30.3399 17.9492 30.68C19.238 31.3268 20.4634 31.1272 21.6069 30.3104C22.5529 29.634 23.283 28.7469 24.0093 27.8524C24.1471 27.686 24.2365 27.4716 24.4898 27.3608C24.6499 27.5751 24.5643 27.8228 24.568 28.0446C24.5904 29.4381 25.2608 30.351 26.6203 30.7576C28.2592 31.2492 29.9092 31.1014 31.5481 30.7576C34.6209 30.1145 37.2096 28.5325 39.5934 26.5808C40.4761 25.8601 41.3142 25.0912 42.2528 24.4037C41.9623 24.8732 41.668 25.3389 41.3775 25.8083C41.0572 26.3258 40.8039 26.8728 40.681 27.4679C40.4649 28.4992 41.0236 29.2015 42.0777 29.2717C43.0089 29.3346 43.832 29.0389 44.6105 28.5768C45.4858 28.0593 46.2531 27.4051 46.9831 26.7102C47.1545 26.5476 47.2811 26.3295 47.5381 26.2482C47.6573 26.4773 47.4785 26.6326 47.4077 26.8026C47.229 27.2388 47.1396 27.686 47.1768 28.1554C47.229 28.7949 47.6051 29.183 48.2495 29.2606C49.1919 29.3752 50.056 29.1497 50.8642 28.6692C51.8252 28.0963 52.6633 27.3718 53.4529 26.5882C53.6205 26.4219 53.7471 26.2038 54.0451 26.1188C54.0935 26.518 53.8961 26.8581 53.8328 27.2129C53.6131 28.4438 54.2202 29.2089 55.4679 29.2717C56.8647 29.3419 57.956 28.6951 58.984 27.8634C59.7402 27.2536 60.3361 26.4921 61.0699 25.8305C61.0028 26.3554 60.7384 26.8174 60.6453 27.3312C60.4292 28.562 60.9693 29.2495 62.2096 29.2643C63.841 29.2791 65.018 28.355 66.1503 27.3608C66.8096 26.7841 67.4428 26.1779 68.0723 25.5976C68.117 25.727 67.9568 25.8305 67.8935 25.9673C67.711 26.3665 67.4763 26.7546 67.3422 27.1685C66.9325 28.4475 67.5583 29.2569 68.9103 29.268C69.9532 29.2754 70.8397 28.854 71.6591 28.2774C72.337 27.8006 72.959 27.2573 73.5066 26.6326C73.7673 26.3332 74.0429 26.0449 74.4117 25.8083C74.259 26.1853 74.0876 26.555 73.961 26.9431C73.4768 28.4068 74.11 29.2754 75.6557 29.2606C77.1419 29.2458 78.3338 28.5473 79.4027 27.6084C80.5127 26.6326 81.4997 25.5422 82.3117 24.3039C82.5873 23.8826 82.822 23.7717 83.1535 24.2337C83.2429 24.3594 83.4068 24.4333 83.526 24.5405C83.7941 24.7845 84.3268 24.7586 84.3938 25.1171C84.4571 25.435 84.2411 25.8046 84.1517 26.1521C84.107 26.3258 84.0698 26.5032 84.0474 26.6843C83.8761 28.1813 84.7141 29.1534 86.2375 29.2532C87.7162 29.353 89.0348 28.9132 90.2714 28.1628C91.4186 27.4642 92.4093 26.5771 93.3368 25.6161C93.4895 25.4609 93.59 25.2539 93.7763 25.1171C93.9588 25.398 93.7949 25.5496 93.7167 25.7011C93.4224 26.2777 93.1654 26.8655 93.0649 27.5086C92.9196 28.4438 93.5081 29.1608 94.4616 29.2532C95.6721 29.3715 96.689 28.8799 97.6201 28.2183C99.6054 26.81 101.274 25.0543 102.984 23.3392C103.703 22.6184 104.496 21.9679 105.274 21.273C105.338 21.3174 105.241 21.4578 105.215 21.5835C104.839 23.3873 104.611 25.2317 103.829 26.932C103.468 27.7156 102.991 28.4105 102.116 28.7025C101.371 28.9501 100.876 28.7727 100.443 28.1259C100.231 27.8043 100.056 27.431 99.5682 27.5271C99.3298 27.5751 99.1696 27.7489 99.1361 27.9817C99.0728 28.4475 99.3633 28.7542 99.7209 28.9538C100.704 29.4972 101.751 29.4085 102.797 29.1793C104.559 28.7912 105.949 27.7599 107.267 26.6104C108.161 25.8342 109.044 25.0469 109.949 24.2522C110.105 24.5035 109.93 24.6403 109.859 24.7845C109.558 25.3833 109.357 26.0042 109.249 26.6659C109.007 28.1444 109.848 29.1682 111.368 29.2606C113.372 29.3826 114.973 28.5214 116.437 27.2942C118.002 25.9894 119.164 24.3335 120.438 22.7774C121.078 21.9975 121.73 21.2287 122.501 20.5744C122.833 20.2972 123.257 19.8906 123.674 20.2122C124.136 20.567 123.723 21.0364 123.525 21.395C122.196 23.7865 120.676 26.0671 119.186 28.3624C119.074 28.5362 118.814 28.7136 118.955 28.9354C119.067 29.1091 119.335 28.9834 119.529 29.013C120.84 29.2311 121.648 28.7025 122.371 27.5714C123.779 25.3685 125.484 23.3688 127.298 21.4689C127.473 21.2878 127.663 21.1215 127.95 21.0217C127.831 21.2878 127.701 21.5502 127.596 21.8201C126.967 23.4094 127.872 24.5886 129.585 24.4C129.906 24.3668 130.219 24.267 130.539 24.2337C130.744 24.2115 131.038 23.8715 131.142 24.2522C131.235 24.5886 131.343 25.0358 130.923 25.2871C130.703 25.4165 130.435 25.5274 130.181 25.5385C129.66 25.557 129.407 25.8564 129.146 26.2482C124.874 32.7388 120.594 39.2184 116.314 45.7016C115.808 46.4704 115.804 46.4667 114.906 46.2154C104.168 43.2177 93.4262 40.2201 82.6879 37.2224C79.7268 36.3944 76.7619 35.5702 73.8008 34.7311C73.2794 34.5833 72.7728 34.5759 72.2439 34.6646C65.4948 35.7771 58.7457 36.8786 51.9965 37.9801C46.9831 38.8007 41.9734 39.625 36.96 40.4455C29.9725 41.5877 22.9813 42.7298 15.9938 43.872C10.9617 44.6962 5.9297 45.5168 0.897661 46.3411C0.636934 46.3854 0.379931 46.4261 0.115479 46.3743C0.115479 46.3337 0.115479 46.293 0.115479 46.2524L0.122928 46.2598Z" fill="white"/>
<path d="M146 0.622009C145.203 2.09312 144.205 3.43487 143.292 4.82836C139.284 10.9346 135.251 17.026 131.228 23.1249C131.094 23.3245 130.978 23.5499 130.74 23.646C130.304 23.8235 129.854 23.9935 129.407 23.7015C128.974 23.4206 129.015 22.9622 129.086 22.5519C129.258 21.5687 129.835 20.8406 130.662 20.2935C130.814 20.19 131.09 20.1789 131.034 19.8943C130.99 19.6541 130.796 19.5284 130.584 19.4434C129.995 19.1994 129.429 19.3103 128.885 19.5801C127.868 20.0828 127.075 20.8591 126.334 21.687C125.76 22.3265 125.201 22.9807 124.557 23.72C124.557 23.3245 124.754 23.136 124.866 22.9216C125.153 22.3671 125.458 21.8201 125.611 21.2139C125.935 19.9313 125.153 19.1329 123.834 19.3695C123 19.521 122.337 19.9498 121.741 20.5153C120.739 21.4615 119.924 22.563 119.063 23.6276C118.151 24.7549 117.245 25.886 116.117 26.8174C115.249 27.5308 114.314 28.1148 113.171 28.2922C112.135 28.4512 111.562 27.8967 111.718 26.8729C111.759 26.6178 111.841 26.3665 111.904 26.1151C112.083 25.4202 112.448 25.0395 113.241 24.8843C114.981 24.5479 116.519 23.7421 117.778 22.4743C118.21 22.0382 118.542 21.5355 118.687 20.933C118.929 19.9461 118.415 19.2734 117.394 19.1994C116.437 19.1292 115.551 19.3621 114.69 19.7502C113.547 20.2677 112.631 21.0882 111.718 21.9162C110.15 23.3392 108.582 24.7623 107.01 26.1817C106.794 26.3776 106.556 26.5476 106.269 26.6881C107.204 24.9952 106.984 23.2099 106.857 21.4357C106.835 21.1178 106.846 20.7925 106.842 20.4746C106.842 20.2085 106.939 20.0126 107.207 19.9091C107.461 19.813 107.669 19.6541 107.796 19.4138C107.949 19.1329 107.978 18.8372 107.807 18.5526C107.64 18.2791 107.368 18.2199 107.066 18.2384C106.444 18.2754 106.03 18.6339 105.844 19.1736C105.617 19.8315 105.174 20.3009 104.708 20.7777C102.652 22.8846 100.656 25.0469 98.3837 26.932C97.825 27.3977 97.2551 27.8487 96.5661 28.1185C96.242 28.2442 95.8807 28.3551 95.5865 28.1C95.2624 27.8191 95.43 27.4569 95.5567 27.1501C96.1898 25.6161 97.1583 24.2707 98.0299 22.8735C98.5923 21.9679 99.1733 21.0734 99.7544 20.1789C100 19.8019 99.9406 19.6356 99.4639 19.6762C98.8977 19.7206 98.3353 19.765 97.7691 19.7871C97.46 19.8019 97.3073 20.0015 97.1545 20.2159C96.0371 21.7942 94.8154 23.2949 93.5006 24.718C92.4577 25.849 91.3143 26.8618 89.9771 27.6454C89.3923 27.9855 88.7666 28.2035 88.0961 28.2996C86.9973 28.4623 86.3567 27.8339 86.5578 26.7546C86.6435 26.3073 86.8409 25.8786 86.9824 25.4387C87.1165 25.0247 87.4965 25.0247 87.8205 24.9582C89.4407 24.6255 90.8971 23.9639 92.1411 22.8772C92.7259 22.3671 93.2138 21.7757 93.4448 21.0254C93.78 19.9424 93.2734 19.2512 92.1411 19.192C90.7444 19.1181 89.5078 19.5728 88.3867 20.3564C87.0085 21.3211 85.9209 22.5593 85.0829 24.0009C84.8072 24.474 84.5353 24.5036 84.1144 24.2522C83.8686 24.1044 83.6414 23.9491 83.4515 23.7347C83.1423 23.3947 83.0976 23.0805 83.3509 22.6554C83.8612 21.7905 84.3379 20.9034 84.6098 19.9239C84.7737 19.3214 84.5465 19.0516 83.9208 19.0775C83.4552 19.0959 83.12 19.3251 82.889 19.7169C82.5352 20.3194 82.3192 20.981 82.3415 21.6648C82.3713 22.5335 82.0733 23.2764 81.6375 23.9861C80.7622 25.4018 79.7454 26.6918 78.3375 27.6343C77.9129 27.9189 77.4659 28.1555 76.9519 28.2146C76.274 28.2959 75.9872 27.9707 76.1772 27.3238C76.423 26.4885 76.8588 25.7381 77.3057 24.9952C78.2704 23.391 79.2612 21.8053 80.2371 20.2085C80.3264 20.0644 80.5313 19.9202 80.4084 19.7354C80.3153 19.5949 80.1067 19.6836 79.9503 19.6652C78.6243 19.5173 77.7192 19.9461 76.9966 21.1769C75.76 23.2727 74.2403 25.1911 72.4487 26.8729C71.931 27.3608 71.3835 27.8043 70.7242 28.0889C70.3853 28.2331 70.0016 28.3625 69.6999 28.0557C69.402 27.7526 69.6143 27.4051 69.7595 27.1057C70.5454 25.4905 71.5995 24.0378 72.5717 22.5335C73.108 21.7055 73.6742 20.8997 74.2329 20.0865C74.4266 19.8056 74.4266 19.643 74.0243 19.6652C73.9833 19.6652 73.9423 19.6726 73.9014 19.6652C72.5642 19.5136 71.6442 19.9498 70.8285 21.1326C69.2604 23.3984 67.4465 25.4905 65.3197 27.2869C64.9472 27.601 64.5524 27.8783 64.1017 28.0705C63.7814 28.2072 63.435 28.344 63.1333 28.0631C62.854 27.8006 62.9508 27.468 63.0514 27.1612C63.3941 26.0782 64.0012 25.1208 64.5785 24.1598C67.3161 19.6097 70.1394 15.1114 72.9776 10.6204C73.0298 10.5391 73.1006 10.4689 73.2086 10.3395C73.4358 10.8459 73.3278 11.319 73.3203 11.7736C73.3129 12.28 73.4581 12.4427 73.9945 12.354C82.8779 10.8865 91.7649 9.4339 100.648 7.97757C109.476 6.53233 118.3 5.0871 127.127 3.64555C133.098 2.66974 139.068 1.69762 145.039 0.721808C145.158 0.703327 145.274 0.658972 145.389 0.629402C145.59 0.629402 145.795 0.629402 145.996 0.629402L146 0.622009ZM101.959 14.0136C101.106 14.0062 100.354 14.7861 100.332 15.6991C100.313 16.3718 100.779 16.8301 101.464 16.819C102.28 16.8043 103.036 16.0133 103.058 15.1557C103.073 14.4534 102.656 14.021 101.959 14.0136Z" fill="white"/>
<path d="M30.7547 0.621982C32.2222 1.15055 33.7419 1.498 35.2392 1.91567C46.4877 5.04271 57.74 8.15866 68.9885 11.2783C69.6999 11.4742 69.7037 11.4853 69.32 12.0989C67.7333 14.6641 66.1392 17.2293 64.5599 19.8019C64.3401 20.1604 64.2023 20.2639 63.8671 19.8943C63.2563 19.2179 62.4331 19.1366 61.5727 19.2475C59.4124 19.5284 57.8108 20.7407 56.4252 22.2969C55.1029 23.7865 53.9445 25.4202 52.4696 26.7804C51.9779 27.2314 51.4788 27.6749 50.868 27.9595C50.5104 28.1259 50.1007 28.4105 49.7394 28.0815C49.3557 27.7341 49.609 27.2868 49.7692 26.9061C49.9219 26.5365 50.1193 26.1816 50.3204 25.8342C51.4192 23.9565 52.6633 22.1749 53.844 20.3489C53.9632 20.1641 54.0786 19.9793 54.2388 19.7243C53.3076 19.5838 52.4584 19.7428 51.6129 19.8352C51.382 19.861 51.2926 20.1272 51.1697 20.3046C50.0709 21.894 49.0615 23.5462 47.8137 25.0284C47.0204 25.971 46.1376 26.8285 45.1245 27.5382C44.7073 27.8302 44.2678 28.0815 43.7613 28.1776C43.2398 28.2774 42.9791 27.9965 43.1169 27.4864C43.2435 27.017 43.4931 26.5956 43.7538 26.1927C45.0351 24.2189 46.3313 22.2525 47.6126 20.2787C47.7169 20.1198 47.9478 19.9608 47.8398 19.7575C47.7281 19.5542 47.4711 19.6836 47.2811 19.6651C45.9328 19.5099 45.0537 20.0569 44.2157 21.1658C42.2081 23.8123 39.6828 25.9636 36.9265 27.8339C36.811 27.9115 36.6807 27.9632 36.5093 28.0557C36.4758 27.8006 36.6546 27.7082 36.7552 27.5825C37.8316 26.189 38.6696 24.7142 38.6585 22.8735C38.651 21.5502 38.1333 20.5522 36.9824 19.8758C36.8334 19.7871 36.5726 19.7354 36.5875 19.5432C36.6062 19.2918 36.9041 19.3362 37.0792 19.2881C38.8633 18.7743 40.5059 18.0462 41.6345 16.49C42.1373 15.7988 42.4986 15.0448 42.696 14.2094C43.2026 12.0545 41.9474 10.4282 39.7126 10.2766C37.1872 10.1029 35.2467 11.1859 33.6227 12.9675C32.6878 13.9951 32.7139 13.984 31.4289 13.3815C30.9223 13.1412 30.8404 12.9231 31.2128 12.5018C31.4773 12.2024 31.6896 11.8549 31.9317 11.5334C32.1403 11.2598 32.1328 11.0972 31.7306 11.1083C31.0638 11.1268 30.3934 11.1342 29.7267 11.16C29.3021 11.1748 28.9296 11.3005 28.7098 11.6997C28.5422 11.9991 28.3001 12.0287 27.9873 11.9141C26.7283 11.4557 25.4359 11.1157 24.1136 10.9161C23.5698 10.8348 23.6517 10.6204 23.8752 10.2877C24.5233 9.31929 25.1677 8.34348 25.8083 7.36766C27.2945 5.11664 28.7806 2.86931 30.2668 0.618286C30.4307 0.618286 30.5908 0.618286 30.7547 0.618286V0.621982Z" fill="white"/>
<path d="M31.1346 19.6245C31.7827 19.6245 32.3675 19.6097 32.9523 19.6245C34.755 19.6725 35.6936 20.6188 35.6303 22.4041C35.5148 25.6679 32.6431 29.8225 28.5311 30.2364C27.9575 30.2956 27.395 30.2475 26.8475 30.0923C25.7338 29.7781 25.1491 28.8282 25.3129 27.6232C25.6258 25.2724 27.4844 23.4908 30.0209 23.1137C30.2593 23.0768 30.5014 23.0398 30.7398 23.0065C30.9409 22.977 31.1011 22.9067 31.0638 22.6665C31.034 22.4558 30.8664 22.4373 30.6988 22.4336C30.1662 22.4188 29.6522 22.526 29.1456 22.6702C28.8551 22.7552 28.5646 22.8513 28.2815 22.9585C28.0208 23.0583 27.7712 23.184 27.5142 23.3022C27.3541 23.0953 27.5328 22.9844 27.6111 22.8698C29.2872 20.4081 30.9782 17.9574 32.6431 15.4846C32.9523 15.0263 33.2279 14.9561 33.6637 15.2887C34.0324 15.5697 34.431 15.8099 34.8146 16.0724C34.9934 16.1943 35.1759 16.2867 35.3435 16.0687C35.5297 15.8284 35.3323 15.7027 35.1684 15.5881C34.7401 15.2887 34.3043 14.993 33.8685 14.701C33.6786 14.5717 33.4588 14.446 33.6786 14.1836C34.7587 12.8899 35.8799 11.6442 37.6454 11.2746C39.1352 10.9604 40.085 11.8216 39.8802 13.3186C39.5896 15.4329 37.5038 18.4971 34.3565 18.7263C33.6488 18.778 32.9411 18.8556 32.2371 18.8187C31.6896 18.7928 31.3544 19.0072 31.1421 19.6208L31.1346 19.6245Z" fill="white"/>
<path d="M13.9192 15.7286C13.7888 15.0263 13.9676 14.4497 14.2656 13.9101C14.7609 13.0082 15.5543 12.4353 16.4855 12.0361C18.3627 11.2303 20.3442 11.2192 22.3332 11.3412C24.0764 11.4484 25.7711 11.8254 27.4248 12.3909C27.9165 12.5572 27.9649 12.731 27.6632 13.1413C26.6725 14.483 25.7376 15.858 24.2738 16.7821C22.6945 17.7764 20.97 18.2606 19.1337 18.438C18.9922 18.4528 18.8171 18.486 18.7314 18.3641C18.5974 18.1719 18.7836 18.0277 18.8767 17.8873C19.9122 16.3053 20.9514 14.7306 21.9868 13.1486C22.0837 13.0008 22.2848 12.8529 22.2028 12.6792C22.1023 12.4685 21.8453 12.5572 21.6553 12.5498C20.091 12.4796 18.5415 12.5129 17.0404 13.0451C15.7331 13.5072 14.6455 14.2132 14.1166 15.5586C14.0979 15.603 14.0346 15.6325 13.9192 15.7323V15.7286Z" fill="white"/>
<path d="M19.9121 29.4307C19.9904 28.976 20.1878 28.5805 20.4336 28.2109C21.8229 26.141 23.2085 24.0674 24.6201 22.0086C26.4154 19.3879 28.2442 16.7857 30.0321 14.1577C30.3375 13.7104 30.5982 13.655 31.0676 13.8842C32.3191 14.4977 32.3302 14.4793 31.5257 15.6399C28.829 19.521 26.3037 23.524 23.4133 27.272C22.8584 27.9891 22.2661 28.6766 21.5845 29.2791C21.2828 29.5452 20.9662 29.8114 20.5602 29.9038C20.1766 29.9888 19.9233 29.8594 19.9121 29.4307Z" fill="white"/>
<path d="M63.6362 20.6927C63.6473 21.1252 63.5319 21.3802 63.3829 21.6205C62.1761 23.5536 60.7942 25.3537 59.174 26.969C58.6414 27.4975 58.0454 27.9522 57.293 28.137C56.5779 28.3144 56.1645 27.9411 56.3395 27.2314C56.7865 25.4165 57.8294 23.9084 58.9617 22.4632C59.5837 21.6722 60.2616 20.9256 61.1369 20.3896C61.6509 20.0754 62.2022 19.9017 62.8093 19.9645C63.3308 20.02 63.6026 20.3194 63.6324 20.6964L63.6362 20.6927Z" fill="white"/>
<path d="M91.8245 19.7576C92.2231 19.776 92.413 19.9904 92.4093 20.3748C92.4093 20.7666 92.2752 21.1252 92.0741 21.4542C91.1355 22.9881 89.7276 23.9011 88.0254 24.4149C87.9099 24.4481 87.7833 24.5073 87.679 24.4223C87.5598 24.3225 87.638 24.1968 87.6976 24.1007C88.5431 22.6887 89.3812 21.2656 90.722 20.2344C91.0461 19.983 91.4074 19.813 91.8208 19.765L91.8245 19.7576Z" fill="white"/>
<path d="M117.584 20.4931C117.562 20.8553 117.394 21.2434 117.152 21.5946C116.21 22.9807 114.888 23.8641 113.301 24.3779C113.16 24.4259 112.97 24.5553 112.85 24.3964C112.739 24.2448 112.903 24.097 112.981 23.9676C113.755 22.648 114.56 21.3469 115.767 20.3526C116.065 20.105 116.396 19.9091 116.772 19.8056C117.324 19.654 117.596 19.8684 117.581 20.4931H117.584Z" fill="white"/>
</g>
<defs>
<clipPath id="clip0_126_17198">
<rect width="146" height="46" fill="white" transform="translate(0 0.5)"/>
</clipPath>
</defs>
</svg>
