<svg width="61" height="55" viewBox="0 0 61 55" fill="none" xmlns="http://www.w3.org/2000/svg">
<g id="_&#195;&#145;&#195;&#171;&#195;&#174;&#195;&#169;_1" clip-path="url(#clip0_126_17272)">
<g id="CBnURm">
<g id="Group">
<path id="Vector" d="M48.7556 34.9004C48.8424 32.8132 48.9486 30.7928 48.8907 28.7247C48.5337 28.8295 48.5723 29.1345 48.4854 29.3346C47.0285 32.7751 44.8189 35.6152 41.7023 37.75C41.2874 38.0359 40.8243 38.2551 40.3804 38.4838C40.226 38.5601 40.062 38.6554 39.8208 38.6077C39.6471 37.5689 40.0717 36.511 39.8401 35.4246C33.6359 38.8364 27.451 38.8365 21.2275 35.4341C21.0538 36.5015 21.2757 37.5594 21.2661 38.6458C20.8319 38.6268 20.5327 38.4362 20.224 38.2742C18.5547 37.4069 17.2039 36.1679 15.9785 34.7765C14.454 33.042 13.1996 31.1359 12.4181 28.9534C12.3988 28.8867 12.3312 28.8391 12.2347 28.6961C12.0707 29.4204 12.1768 30.078 12.1672 30.7261C12.1672 31.4313 12.1865 32.127 12.1961 32.8323C12.1961 33.4994 12.1961 34.1761 12.1961 34.8623C11.926 34.8623 11.8102 34.6431 11.6655 34.4906C9.02167 31.8316 7.43926 28.6199 6.75419 24.9888C5.90509 20.4428 5.98228 15.9063 7.31382 11.4365C8.14362 8.64411 9.6199 6.20433 11.6655 4.11717C11.7716 4.01233 11.8874 3.91703 12.0032 3.82172C12.0321 3.79313 12.0996 3.82172 12.1865 3.80266V9.82588C12.5145 9.73058 12.4953 9.43513 12.5821 9.24453C13.9233 6.04231 15.9978 3.39286 18.7574 1.2771C19.3556 0.810115 20.0117 0.419368 20.7161 0.123925C21.2178 -0.085744 21.3239 -0.00950078 21.2564 0.505141C21.1503 1.401 21.1696 2.28733 21.1599 3.1546C21.4204 3.22131 21.5362 3.08788 21.6617 3.02117C23.9484 1.66785 26.4378 0.962601 29.0816 0.743402C32.7289 0.438429 36.1446 1.20086 39.319 2.99258C39.8304 3.27849 39.9076 3.2499 39.898 2.63995C39.8787 1.96329 39.8111 1.28664 39.7822 0.609976C39.7532 -0.0476224 39.8401 -0.0952744 40.4576 0.190638C41.5093 0.667158 42.4356 1.32476 43.2847 2.07766C45.6101 4.16482 47.4337 6.61413 48.5723 9.52091C48.6205 9.63527 48.6302 9.7687 48.8232 9.87353C48.9968 9.20641 48.8907 8.54881 48.9003 7.91027C48.91 7.23361 48.9003 6.55695 48.8714 5.88029C48.8424 5.20363 48.7267 4.5365 48.8135 3.83125C49.1609 3.80266 49.3056 4.06951 49.4889 4.26012C51.5441 6.35681 52.9625 8.81566 53.7923 11.6081C54.7379 14.7912 54.9791 18.0506 54.7572 21.3577C54.5835 24.0357 54.0914 26.628 53.0397 29.1059C52.1906 31.0978 50.9941 32.8514 49.4889 34.4143C49.3152 34.5954 49.1705 34.8146 48.7653 34.9195L48.7556 34.9004Z" fill="white"/>
<path id="Vector_2" d="M56.494 29.8778C56.6001 27.4762 56.7545 25.1603 56.8028 22.8444C56.8606 20.4904 56.8606 18.1364 56.8028 15.7824C56.7545 13.4665 56.6001 11.1506 56.4843 8.66315C57.0729 9.11108 57.4299 9.52088 57.7483 9.95928C58.9255 11.5795 59.543 13.4284 59.929 15.3535C60.6237 18.8702 60.4114 22.3298 59.2632 25.7226C58.829 27.0187 58.1825 28.2005 57.2755 29.2393C57.0826 29.4585 56.9089 29.7063 56.494 29.8588V29.8778Z" fill="white"/>
<path id="Vector_3" d="M4.57356 8.72034C4.03322 15.8014 4.02357 22.7777 4.57356 29.8016C4.11041 29.7254 3.94638 29.4585 3.75341 29.2488C2.73063 28.0957 2.05521 26.7519 1.61136 25.3033C0.366661 21.2242 0.376309 17.1548 1.68855 13.0948C2.12275 11.751 2.76922 10.5025 3.70516 9.41606C3.89814 9.18733 4.08147 8.93954 4.56391 8.72034H4.57356Z" fill="white"/>
<path id="Vector_4" d="M32.9605 45.908C33.2403 45.2981 33.549 44.6976 33.7999 44.0877C33.9736 43.6493 34.2341 43.4682 34.7165 43.4968C35.2472 43.5349 35.7779 43.4968 36.3183 43.5159C36.5112 43.5159 36.6753 43.5635 36.6946 43.7922C36.7139 44.021 36.5788 44.1163 36.3665 44.1068C35.9612 44.0972 35.9323 44.3545 35.9323 44.65C35.9323 45.2504 35.9516 45.8508 35.9323 46.4512C35.9323 46.7848 35.9613 47.0612 36.4051 47.0421C36.5884 47.0421 36.6753 47.1565 36.656 47.3376C36.6367 47.5377 36.5016 47.5854 36.3376 47.5854C35.6525 47.5854 34.9674 47.5854 34.2824 47.5854C34.128 47.5854 33.9639 47.5854 33.9446 47.3757C33.9253 47.2041 33.9736 47.0707 34.1666 47.0516C34.5525 47.0231 34.5815 46.7562 34.5718 46.4608C34.5718 45.8413 34.5718 45.2313 34.456 44.5833C34.0894 45.4029 33.7131 46.213 33.3464 47.0326C33.2113 47.328 33.0955 47.5949 32.6613 47.6044C32.1886 47.6044 32.0631 47.3471 31.9087 47.0135C31.5421 46.1939 31.1561 45.3838 30.6544 44.5833C30.6544 45.2599 30.6544 45.9461 30.6544 46.6228C30.6544 46.8515 30.7509 47.004 31.0017 47.0326C31.1851 47.0516 31.3684 47.0898 31.3491 47.328C31.3202 47.6235 31.0789 47.5758 30.886 47.5854C30.3746 47.5854 29.8728 47.5854 29.3614 47.5854C29.236 47.5854 29.1106 47.5472 29.0816 47.3852C29.0623 47.2137 29.1009 47.0612 29.2939 47.0612C29.8246 47.0612 29.8149 46.7181 29.8149 46.3464C29.8053 45.7936 29.8053 45.2409 29.8149 44.6881C29.8149 44.3545 29.786 44.0782 29.3421 44.0972C29.1202 44.0972 29.0237 43.9733 29.0527 43.7541C29.072 43.5635 29.2071 43.5063 29.3711 43.4968C30.0562 43.4968 30.7412 43.4968 31.4263 43.4968C31.7061 43.4968 31.8026 43.7065 31.8991 43.9257C32.121 44.4022 32.3429 44.8787 32.5649 45.3552C32.6517 45.5268 32.6806 45.7365 32.9605 45.8889V45.908Z" fill="white"/>
<path id="Vector_5" d="M41.5962 50.6637C42.0304 50.6637 42.4549 50.6637 42.8891 50.6637C43.0435 50.6637 43.1979 50.7018 43.2172 50.8924C43.2461 51.1307 43.0821 51.2165 42.8891 51.1974C42.3874 51.1498 42.2909 51.4166 42.3102 51.8359C42.3295 52.3887 42.3295 52.9415 42.3102 53.4942C42.3102 53.885 42.3391 54.1995 42.8698 54.1518C43.0532 54.1328 43.2365 54.19 43.2172 54.4377C43.1979 54.676 43.0049 54.6855 42.8216 54.6855C42.0111 54.6855 41.2006 54.6855 40.3804 54.6855C40.1971 54.6855 40.0138 54.6569 40.0138 54.4092C40.0138 54.1614 40.2068 54.1614 40.3901 54.1423C40.6024 54.1232 40.8918 54.1995 40.9497 53.8945C41.0076 53.5991 41.0269 53.2941 40.9208 52.9987C40.8725 52.8652 40.7181 52.8748 40.5927 52.8748C39.9848 52.8748 39.377 52.8748 38.7691 52.8748C38.5086 52.8748 38.4314 52.9987 38.4121 53.2369C38.3445 53.9422 38.4024 54.0279 39.0875 54.1423C39.2419 54.1709 39.3963 54.1709 39.4155 54.371C39.4348 54.6093 39.2805 54.676 39.0778 54.676C38.2384 54.676 37.3989 54.676 36.5595 54.676C36.3665 54.676 36.2025 54.6284 36.2121 54.3901C36.2121 54.19 36.3569 54.1328 36.5209 54.1518C37.0902 54.209 37.1288 53.8659 37.1095 53.4466C37.0902 52.8748 37.0998 52.2934 37.1095 51.712C37.1095 51.3785 37.0226 51.1783 36.6367 51.1974C36.4437 51.1974 36.2025 51.2451 36.2025 50.9306C36.2025 50.6256 36.4341 50.6542 36.6367 50.6542C37.4279 50.6542 38.2094 50.6542 39.0006 50.6542C39.1743 50.6542 39.377 50.6542 39.4059 50.8924C39.4348 51.1974 39.2129 51.1879 39.0006 51.1974C38.8077 51.2165 38.5472 51.1212 38.4603 51.3499C38.3542 51.6072 38.3831 51.8931 38.441 52.1695C38.4796 52.3601 38.6726 52.3315 38.8173 52.3315C39.4059 52.3315 39.9848 52.322 40.5734 52.3315C40.9304 52.3411 41.0173 52.16 40.9883 51.8645C40.9594 51.5881 41.1137 51.226 40.6217 51.1879C40.4094 51.1688 40.0331 51.3308 40.0427 50.921C40.0524 50.4636 40.4576 50.6732 40.6892 50.6446C40.9883 50.616 41.2971 50.6446 41.6058 50.6446L41.5962 50.6637Z" fill="white"/>
<path id="Vector_6" d="M2.59555 43.3062C3.02975 43.2872 3.4543 43.3539 3.8692 43.4873C4.12972 43.5636 4.35164 43.6779 4.66041 43.5159C4.96917 43.3539 5.19109 43.5445 5.1718 43.9162C5.1718 43.9924 5.18144 44.0687 5.1718 44.1449C5.12355 44.3927 5.31653 44.7358 4.96917 44.8788C4.60251 45.0312 4.51567 44.6691 4.33235 44.488C3.81131 43.9638 2.13241 43.7828 1.52453 44.1735C1.41839 44.2402 1.31226 44.3355 1.31226 44.469C1.31226 44.65 1.46664 44.7167 1.62102 44.7358C2.2482 44.8216 2.87537 44.9074 3.50255 44.9836C3.9078 45.0312 4.3034 45.117 4.67006 45.279C5.16215 45.4982 5.43231 45.8699 5.44196 46.3941C5.44196 46.8897 5.16215 47.2423 4.7183 47.452C3.75342 47.8999 2.75958 47.8999 1.74646 47.6521C1.42804 47.5759 1.12893 47.3662 0.771922 47.6712C0.578945 47.8332 0.270182 47.7284 0.270182 47.3567C0.270182 47.0326 0.270182 46.7086 0.270182 46.3846C0.270182 46.2321 0.299129 46.0796 0.511403 46.0701C0.665785 46.0701 0.810518 46.051 0.907006 46.2225C1.54383 47.3567 2.6245 47.1851 3.65693 47.0993C3.92709 47.0803 4.24551 46.985 4.23586 46.6228C4.22621 46.2893 3.91745 46.2797 3.66658 46.2416C2.99116 46.1463 2.31574 46.0605 1.63067 45.9652C1.32191 45.9271 1.03244 45.8509 0.762273 45.6984C-0.0771762 45.2314 -0.106123 44.2593 0.70438 43.7542C1.28331 43.392 1.92978 43.2967 2.6052 43.3348L2.59555 43.3062Z" fill="white"/>
<path id="Vector_7" d="M47.096 43.3062C47.4916 43.2872 47.9355 43.3539 48.3793 43.4873C48.6398 43.5731 48.8618 43.697 49.1609 43.5159C49.4021 43.373 49.653 43.4969 49.653 43.8495C49.653 44.0782 49.653 44.2974 49.653 44.5261C49.653 44.6786 49.624 44.8406 49.4407 44.8788C49.2959 44.9074 49.1319 44.9169 49.0354 44.7644C48.3986 43.8209 47.4337 43.9638 46.4978 44.002C46.2952 44.002 46.0925 44.0782 45.9382 44.2116C45.7548 44.3641 45.7162 44.5452 45.9671 44.6977C46.1504 44.8025 46.3531 44.812 46.5557 44.8406C47.2118 44.9264 47.8583 45.0217 48.5144 45.117C48.6881 45.1456 48.8618 45.1933 49.0258 45.2504C49.5565 45.422 49.9038 45.7842 49.9328 46.3369C49.9617 46.8992 49.624 47.2709 49.1126 47.4901C48.1863 47.8808 47.2504 47.8808 46.2855 47.6521C45.9478 47.5759 45.6197 47.3376 45.2338 47.6616C45.0408 47.8237 44.7417 47.6712 44.7513 47.3185C44.7513 47.0136 44.7513 46.7181 44.7513 46.4132C44.7513 46.2702 44.732 46.0891 44.9347 46.0605C45.1083 46.0319 45.311 46.0034 45.3882 46.213C45.5618 46.6895 45.9574 46.8897 46.4109 47.0136C47.0092 47.1756 47.617 47.2042 48.2153 47.0612C48.4565 47.004 48.7267 46.9183 48.7074 46.5847C48.6881 46.2893 48.4469 46.2511 48.2153 46.213C47.5881 46.1177 46.9609 46.0319 46.3338 45.9557C45.9767 45.908 45.639 45.8413 45.311 45.6984C44.8864 45.5078 44.6259 45.1742 44.6066 44.7167C44.5777 44.2688 44.8285 43.9638 45.1952 43.7351C45.639 43.4587 46.2469 43.3158 47.0864 43.3158L47.096 43.3062Z" fill="white"/>
<path id="Vector_8" d="M33.1148 54.8571C32.5456 54.8571 32.121 54.8189 31.7061 54.6855C31.4263 54.5997 31.1851 54.4854 30.857 54.7046C30.5675 54.9047 30.336 54.7236 30.3167 54.3615C30.2974 54.066 30.3167 53.7611 30.3167 53.4561C30.3167 53.2941 30.3746 53.1606 30.5675 53.1416C30.7219 53.1225 30.8667 53.1416 30.9535 53.2941C31.6096 54.4187 32.6806 54.2376 33.7131 54.1328C33.9543 54.1137 34.2438 53.9993 34.2245 53.6753C34.2052 53.3513 33.9157 53.3322 33.6552 53.2941C32.9798 53.2083 32.3043 53.113 31.6289 53.0177C31.4842 52.9986 31.3298 52.97 31.1851 52.9224C30.5483 52.7222 30.2105 52.341 30.2105 51.8169C30.2105 51.226 30.5772 50.9115 31.0789 50.7113C32.0052 50.3396 32.9508 50.3301 33.906 50.6446C34.1473 50.7209 34.3788 50.8924 34.678 50.6732C34.8902 50.5207 35.1122 50.6542 35.1508 50.9591C35.1508 51.0354 35.17 51.1116 35.1508 51.1879C35.1122 51.4642 35.2955 51.8359 34.9385 51.9979C34.5815 52.16 34.4946 51.7692 34.3113 51.5881C33.7903 51.0926 32.314 50.9115 31.6386 51.2641C31.5035 51.3308 31.3684 51.4261 31.3877 51.6072C31.407 51.7883 31.5517 51.855 31.7061 51.8836C32.1789 51.9503 32.6613 52.0075 33.1438 52.0551C33.6262 52.1028 34.099 52.1695 34.5525 52.3506C35.0639 52.5507 35.3823 52.9033 35.392 53.4847C35.4016 54.047 35.0736 54.3424 34.6104 54.5711C34.0894 54.8189 33.5394 54.8761 33.1148 54.8666V54.8571Z" fill="white"/>
<path id="Vector_9" d="M17.7732 45.9461C17.7732 45.4982 17.7732 45.2218 17.7732 44.955C17.7732 44.5451 17.8793 44.0496 17.1749 44.0972C17.0399 44.0972 16.9627 43.9829 16.9627 43.8399C16.9627 43.6683 17.0495 43.5349 17.2232 43.5349C17.86 43.5254 18.4872 43.5349 19.124 43.5349C19.2687 43.5349 19.3556 43.6302 19.3652 43.7732C19.3845 43.9352 19.3459 44.1067 19.153 44.0972C18.5451 44.0686 18.6223 44.488 18.6319 44.8596C18.6319 45.5649 18.6512 46.2606 18.6512 46.9659C18.6512 47.1755 18.7959 47.471 18.5161 47.5663C18.2363 47.6711 17.9179 47.6807 17.6477 47.4615C17.4934 47.3376 17.339 47.2041 17.1846 47.0707C16.4802 46.4512 15.7855 45.8413 15.0908 45.2218C14.9847 45.1265 14.8785 45.0121 14.6566 44.974C14.6566 45.4505 14.6566 45.8985 14.6566 46.3369C14.6469 46.7371 14.6276 47.1088 15.2162 47.0802C15.361 47.0802 15.4478 47.166 15.4478 47.3185C15.4478 47.4996 15.3513 47.6044 15.1776 47.6044C14.5697 47.6044 13.9619 47.6044 13.354 47.6044C13.2189 47.6044 13.1128 47.5472 13.0935 47.3947C13.0742 47.2232 13.1321 47.0898 13.325 47.0898C13.8075 47.0898 13.8268 46.7848 13.8171 46.4322C13.8075 45.8794 13.8171 45.3266 13.8171 44.7834C13.8171 44.4308 13.8171 44.1163 13.325 44.1258C13.0935 44.1258 13.0163 43.9829 13.0452 43.7732C13.0645 43.5921 13.1996 43.5349 13.3733 43.5254C13.8557 43.5254 14.3382 43.5254 14.8206 43.5254C15.1101 43.5254 15.2741 43.7255 15.4671 43.8875C16.2004 44.5356 16.9337 45.1837 17.8021 45.9556L17.7732 45.9461Z" fill="white"/>
<path id="Vector_10" d="M17.9661 52.5603C18.0433 52.7128 18.217 52.6842 18.3425 52.7509C18.6995 52.951 18.931 53.2274 18.8924 53.6563C18.8538 54.0756 18.6126 54.3425 18.2363 54.5045C17.9758 54.6188 17.7056 54.6856 17.4258 54.6856C16.1908 54.6856 14.9461 54.6855 13.711 54.6951C13.6628 54.6951 13.6145 54.6951 13.5566 54.6951C13.354 54.6951 13.2093 54.6284 13.2286 54.3901C13.2479 54.19 13.3926 54.1423 13.547 54.1614C14.097 54.2281 14.1741 53.9231 14.1549 53.4847C14.1356 52.9129 14.1356 52.3315 14.1549 51.7597C14.1549 51.3976 14.0777 51.1784 13.6531 51.2069C13.4601 51.226 13.2189 51.2355 13.2286 50.9306C13.2382 50.6351 13.4891 50.6637 13.6724 50.6637C14.8882 50.6637 16.1039 50.6732 17.3197 50.6828C17.5802 50.6828 17.8214 50.759 18.053 50.8448C18.3907 50.9592 18.6223 51.1784 18.6802 51.531C18.7381 51.8931 18.5451 52.1505 18.2556 52.3411C18.1591 52.4078 18.0047 52.3983 17.9565 52.5507L17.9661 52.5603ZM16.2487 54.1709C16.4995 54.1423 16.7504 54.1328 16.9916 54.0851C17.2907 54.028 17.4934 53.8659 17.4934 53.5324C17.4934 53.2083 17.3004 53.0368 17.0109 52.951C16.596 52.8271 16.1618 52.8748 15.7373 52.8938C15.6311 52.8938 15.5636 52.9701 15.525 53.0654C15.2452 53.6944 15.5539 54.1614 16.2487 54.1804V54.1709ZM16.432 51.2165C16.1618 51.2165 15.9881 51.2165 15.8048 51.2165C15.4671 51.226 15.4864 51.4833 15.496 51.7025C15.5057 51.9313 15.3803 52.2744 15.7276 52.322C16.1715 52.3887 16.625 52.4078 17.0688 52.2458C17.2811 52.1695 17.4162 52.0361 17.4355 51.8169C17.4548 51.5691 17.31 51.4071 17.0785 51.3023C16.8372 51.1879 16.5864 51.226 16.432 51.2165Z" fill="white"/>
<path id="Vector_11" d="M59.6395 52.5221C59.9965 52.5221 60.3535 52.5221 60.7105 52.5221C60.8842 52.5221 61 52.5984 61 52.789C61 52.9415 60.9132 53.0273 60.7684 53.0368C60.3439 53.0654 60.3149 53.3513 60.3246 53.6753C60.3246 53.904 60.3342 54.1232 60.3246 54.352C60.2956 54.7999 59.929 55 59.6395 54.6951C59.4369 54.4759 59.3693 54.5426 59.1764 54.6379C58.0185 55.1907 56.8606 55.1049 55.7414 54.5331C54.9791 54.1423 54.5449 53.5038 54.5642 52.6556C54.5835 51.8074 55.0467 51.1974 55.8186 50.8353C56.7256 50.4064 57.6518 50.2825 58.6264 50.5589C59.0123 50.6637 59.35 50.8543 59.8421 50.74C60.3632 50.6065 60.1702 51.1783 60.1702 51.4452C60.1702 51.7216 60.4018 52.1409 59.8614 52.2267C59.6395 52.2553 59.572 52.0933 59.4658 51.9503C58.8869 51.1879 57.9413 50.902 57.044 51.1974C56.3396 51.4261 55.9633 51.9313 55.944 52.646C55.9247 53.3989 56.301 53.9612 57.0054 54.209C57.5843 54.4092 58.1536 54.371 58.7036 54.1042C58.9737 53.9708 59.1185 53.7516 59.0895 53.4371C59.0606 53.1321 58.829 53.1035 58.5974 53.0654C58.4334 53.0368 58.2115 53.0654 58.2115 52.808C58.2115 52.5031 58.4527 52.5412 58.6553 52.5317C58.9834 52.5317 59.3114 52.5317 59.6492 52.5317L59.6395 52.5221Z" fill="white"/>
<path id="Vector_12" d="M9.54272 43.3062C10.2181 43.2776 10.9225 43.4396 11.54 43.878C12.7847 44.7644 12.7461 46.4608 11.4821 47.2995C10.3146 48.0619 8.37521 48.0428 7.227 47.2518C5.97265 46.3941 6.00159 44.6691 7.28489 43.8399C7.84452 43.4778 8.56819 43.2967 9.54272 43.3062ZM9.36904 43.9638C8.36556 43.9638 7.65155 44.6405 7.66119 45.584C7.66119 46.4894 8.4524 47.2137 9.39799 47.2042C10.3822 47.1946 11.0962 46.4989 11.0865 45.5554C11.0865 44.6024 10.3918 43.9638 9.36904 43.9638Z" fill="white"/>
<path id="Vector_13" d="M52.6634 53.0177C52.6634 52.627 52.6634 52.3601 52.6634 52.0933C52.6537 51.6644 52.7888 51.1307 52.0362 51.1784C51.9011 51.1784 51.8336 51.0449 51.8529 50.902C51.8625 50.7971 51.9204 50.7018 52.0362 50.6923C52.7213 50.6161 53.4063 50.6542 54.0914 50.6732C54.2458 50.6732 54.2844 50.8067 54.2844 50.9496C54.2844 51.0926 54.2168 51.2069 54.0625 51.1974C53.4546 51.1498 53.5221 51.5691 53.5318 51.9408C53.5318 52.646 53.5511 53.3418 53.5414 54.047C53.5414 54.6855 53.1265 54.9143 52.5765 54.5807C52.4318 54.4949 52.3064 54.352 52.1713 54.2376C51.3415 53.5133 50.5117 52.7795 49.5565 51.9503C49.5565 52.646 49.5565 53.2083 49.5565 53.7706C49.5565 54.0756 49.7205 54.1614 49.9907 54.1518C50.1933 54.1518 50.3477 54.209 50.3187 54.4473C50.2994 54.6474 50.1547 54.6855 49.9907 54.6855C49.431 54.6855 48.8714 54.6855 48.3118 54.6855C48.1574 54.6855 48.003 54.657 47.974 54.4664C47.9451 54.2376 48.0705 54.1518 48.2828 54.1518C48.6302 54.1518 48.6977 53.9326 48.6977 53.6563C48.6977 53.0558 48.6977 52.4554 48.6977 51.8455C48.6977 51.4833 48.6688 51.1784 48.1863 51.1974C48.0126 51.1974 47.8969 51.1116 47.9065 50.921C47.9065 50.6732 48.0802 50.6447 48.2732 50.6447C48.7267 50.6447 49.1898 50.6542 49.6433 50.6447C49.9231 50.6447 50.1161 50.7781 50.3091 50.9496C50.8494 51.4452 51.3994 51.9313 51.9494 52.4078C52.152 52.5889 52.3643 52.7509 52.673 52.9987L52.6634 53.0177Z" fill="white"/>
<path id="Vector_14" d="M38.9138 43.5159C39.2901 43.5159 39.6761 43.5159 40.0524 43.5159C40.2164 43.5159 40.3418 43.6016 40.3515 43.7827C40.3611 43.9638 40.2743 44.0972 40.1006 44.0877C39.6085 44.0686 39.5989 44.3736 39.6085 44.7262C39.6182 45.279 39.5989 45.8318 39.6182 46.375C39.6375 46.9468 39.869 47.1756 40.448 47.2518C40.7567 47.2899 41.0558 47.2709 41.355 47.2232C41.9049 47.1184 42.1365 46.8706 42.1558 46.2988C42.1751 45.7269 42.1558 45.1456 42.1558 44.5738C42.1558 44.2688 42.069 44.0972 41.7313 44.0972C41.5286 44.0972 41.3936 44.0115 41.4129 43.7827C41.4321 43.5445 41.5962 43.5063 41.7892 43.5063C42.3488 43.5063 42.9084 43.5063 43.4584 43.5063C43.6514 43.5063 43.8154 43.5445 43.8347 43.7827C43.8444 44.0115 43.7093 44.1068 43.5067 44.0972C43.0918 44.0972 43.0821 44.3641 43.0918 44.65C43.0918 45.1742 43.1111 45.6983 43.0918 46.2225C43.0628 47.1088 42.6865 47.5377 41.8085 47.7378C41.0269 47.9189 40.2453 47.8903 39.4734 47.7093C38.5761 47.4996 38.1998 47.0326 38.1901 46.1177C38.1901 45.6412 38.1901 45.1646 38.1901 44.6881C38.1901 44.3641 38.1708 44.0782 37.727 44.0877C37.4954 44.0877 37.4182 43.9447 37.4472 43.7446C37.4665 43.554 37.6112 43.5063 37.7752 43.5063C38.1515 43.5063 38.5375 43.5063 38.9138 43.5063V43.5159Z" fill="white"/>
<path id="Vector_15" d="M7.56469 50.6637C7.92169 50.6637 8.2787 50.6637 8.62606 50.6637C8.80939 50.6637 8.99272 50.6923 8.99272 50.9401C8.99272 51.1307 8.87693 51.2069 8.70325 51.2069C8.3173 51.1879 8.24011 51.3975 8.24011 51.7311C8.24976 52.2839 8.23046 52.8366 8.24011 53.3894C8.2594 54.0184 8.51027 54.2757 9.13745 54.3996C9.55235 54.4854 9.94795 54.3996 10.3339 54.2662C10.6813 54.1518 10.8646 53.8754 10.8742 53.5228C10.8935 52.8938 10.8742 52.2743 10.8839 51.6453C10.8839 51.3118 10.7006 51.2069 10.4014 51.2165C10.2181 51.2165 10.1313 51.1212 10.1409 50.9305C10.1409 50.7399 10.2567 50.6732 10.44 50.6732C11.0479 50.6732 11.6558 50.6732 12.2637 50.6732C12.447 50.6732 12.5435 50.7685 12.5338 50.9496C12.5338 51.0926 12.4567 51.2165 12.3216 51.2069C11.7716 51.1688 11.7909 51.531 11.7909 51.9026C11.7909 52.3792 11.8102 52.8557 11.7909 53.3322C11.7523 54.2567 11.4242 54.6379 10.5269 54.8666C9.66814 55.0763 8.80939 55.0382 7.96994 54.819C7.16909 54.6093 6.82173 54.1232 6.80243 53.275C6.80243 52.8748 6.80243 52.4745 6.80243 52.0742C6.80243 51.6644 6.93751 51.1688 6.2235 51.2069C6.06912 51.2069 6.04982 51.0544 6.05947 50.921C6.06912 50.7685 6.1849 50.7018 6.31999 50.7018C6.72524 50.7018 7.13049 50.7018 7.53574 50.7018L7.56469 50.6637Z" fill="white"/>
<path id="Vector_16" d="M2.36397 50.6923C3.04904 50.6923 3.73411 50.6542 4.41918 50.7018C5.0946 50.7495 5.44195 51.1021 5.49985 51.6549C5.55774 52.322 5.22968 52.7509 4.53496 52.8652C3.95603 52.9605 3.36745 52.9415 2.78852 52.9319C2.48941 52.9319 2.23854 52.9129 2.22889 53.3322C2.20959 53.9326 2.25783 54.0661 2.71133 54.1518C2.75957 54.1518 2.80782 54.1518 2.86571 54.1518C3.02974 54.1614 3.16483 54.2185 3.16483 54.4091C3.16483 54.5998 3.03939 54.676 2.87536 54.6855C2.59554 54.6951 2.31573 54.6951 2.03591 54.6951C1.47628 54.6951 0.916645 54.6951 0.357012 54.6951C0.173684 54.6951 -0.00964388 54.6569 4.96034e-06 54.4091C4.96034e-06 54.209 0.144738 54.1518 0.308768 54.1614C0.820157 54.1995 0.87805 53.8945 0.858752 53.4942C0.839454 52.9415 0.839454 52.3887 0.858752 51.8359C0.858752 51.4738 0.829806 51.1783 0.347363 51.2069C0.154386 51.2165 -0.0192927 51.1688 4.96034e-06 50.921C0.0193026 50.6828 0.202631 50.6637 0.385959 50.6637C1.04208 50.6637 1.70785 50.6637 2.36397 50.6637C2.36397 50.6637 2.36397 50.6828 2.36397 50.6923ZM3.12623 51.1974C3.12623 51.1974 3.12623 51.2069 3.12623 51.2165C2.95255 51.2165 2.77887 51.2165 2.59554 51.2165C2.21924 51.2165 2.21924 51.4833 2.22889 51.7311C2.23854 51.9789 2.1131 52.341 2.53765 52.3696C2.93325 52.3982 3.33851 52.3792 3.74376 52.3506C4.03322 52.322 4.16831 52.1123 4.1876 51.8359C4.2069 51.55 4.07182 51.3499 3.792 51.2832C3.57008 51.2355 3.34815 51.226 3.12623 51.2069V51.1974Z" fill="white"/>
<path id="Vector_17" d="M60.2378 44.3069C60.2378 44.3831 60.2378 44.4594 60.2378 44.5356C60.2185 44.7262 60.2956 44.9645 60.0158 45.0312C59.7939 45.0788 59.6395 44.9931 59.5237 44.7834C59.1281 44.1163 58.4817 43.9543 57.7676 43.9638C56.687 43.9638 55.9633 44.6309 55.9923 45.5935C56.0212 46.5751 56.851 47.2708 57.9027 47.1851C58.5203 47.1374 59.1088 46.9659 59.4755 46.4036C59.5623 46.2797 59.6299 46.1463 59.8036 46.1272C59.929 46.1081 60.0641 46.0986 60.1606 46.2034C60.2281 46.2797 60.2088 46.394 60.1606 46.4893C59.9193 47.0135 59.5527 47.4138 59.0027 47.6139C57.8062 48.0428 56.6387 47.938 55.5774 47.2613C54.2651 46.4226 54.3134 44.6214 55.6546 43.8208C56.6966 43.2014 57.8159 43.1537 58.9545 43.5063C59.2343 43.5921 59.4658 43.7541 59.7939 43.554C60.0158 43.4206 60.2281 43.5635 60.2378 43.8685C60.2378 44.021 60.2378 44.1735 60.2378 44.3164V44.3069Z" fill="white"/>
<path id="Vector_18" d="M23.2151 45.279C23.4756 44.9836 23.6686 44.7548 23.8712 44.5356C24.0449 44.345 24.2186 44.2116 23.8133 44.021C23.5914 43.9161 23.7651 43.5349 24.0739 43.5254C24.6335 43.4968 25.1931 43.5254 25.7431 43.5254C25.9554 43.5254 26.0808 43.6207 26.0712 43.8494C26.0712 44.04 25.9457 44.1258 25.7721 44.1163C25.3186 44.0782 25.087 44.3736 24.8458 44.6595C24.5467 45.0026 24.2572 45.3457 23.9388 45.6697C23.7169 45.8985 23.6107 46.1463 23.6204 46.4798C23.6204 46.8134 23.6493 47.0898 24.0932 47.0612C24.3247 47.0421 24.4116 47.166 24.3923 47.3852C24.373 47.5949 24.2186 47.6044 24.0642 47.6044C23.3309 47.6044 22.5976 47.6044 21.8546 47.6044C21.6713 47.6044 21.5845 47.4996 21.5845 47.3185C21.5845 47.1756 21.652 47.0802 21.8064 47.0707C21.9994 47.0517 22.2599 47.0993 22.2985 46.8325C22.3467 46.537 22.4143 46.213 22.202 45.9652C21.7099 45.3934 21.1985 44.8311 20.6871 44.2783C20.5134 44.0877 20.2626 44.1544 20.0406 44.1163C19.9056 44.0877 19.8187 44.0019 19.8187 43.859C19.8187 43.6874 19.8959 43.554 20.0696 43.554C20.8512 43.554 21.6424 43.5349 22.4239 43.554C22.7037 43.554 22.7809 43.8971 22.6265 43.9829C22.1248 44.2878 22.5108 44.4784 22.6748 44.6881C22.8292 44.8883 23.0028 45.0693 23.2055 45.2981L23.2151 45.279Z" fill="white"/>
<path id="Vector_19" d="M22.4529 54.7046C21.7967 54.7046 21.131 54.7046 20.4749 54.7046C20.3205 54.7046 20.1661 54.7046 20.0214 54.6855C19.838 54.6665 19.7608 54.5616 19.7705 54.3901C19.7801 54.2376 19.8863 54.1995 20.0214 54.1614C20.6968 53.9803 20.6968 53.9803 20.6968 53.3132C20.6968 52.808 20.6871 52.3125 20.6968 51.8074C20.7064 51.4166 20.6099 51.1784 20.1564 51.2069C19.9442 51.226 19.7319 51.2069 19.7608 50.902C19.7801 50.6446 19.9731 50.6637 20.1564 50.6637C20.9669 50.6637 21.7774 50.6637 22.588 50.6637C22.7906 50.6637 23.0221 50.6542 23.0221 50.9496C23.0221 51.2546 22.7616 51.2165 22.5783 51.2069C22.2213 51.1974 22.0669 51.3404 22.0766 51.693C22.0766 52.3697 22.0766 53.0463 22.0766 53.723C22.0766 54.0375 22.2116 54.1804 22.5301 54.1614C22.7809 54.1423 23.0318 54.1614 23.2923 54.1614C24.1414 54.1423 24.2765 54.0565 24.4984 53.2369C24.5756 52.9605 24.701 52.8557 24.9712 52.8748C25.2414 52.8938 25.2703 53.0749 25.2896 53.2941C25.4344 54.6665 25.4054 54.7046 23.9774 54.7046C23.466 54.7046 22.9643 54.7046 22.4529 54.7046Z" fill="white"/>
<path id="Vector_20" d="M52.4029 47.5949C52.0266 47.5949 51.6406 47.5949 51.2643 47.5949C51.081 47.5949 50.9845 47.4996 50.9941 47.3185C50.9941 47.1755 51.0617 47.0612 51.2064 47.0707C51.6985 47.0898 51.7082 46.7657 51.6985 46.4226C51.6985 45.8222 51.6985 45.2218 51.6985 44.6214C51.6985 44.345 51.6889 44.1163 51.3126 44.1258C51.1099 44.1258 50.9748 44.0496 50.9845 43.8208C50.9845 43.5826 51.1485 43.5349 51.3415 43.5254C52.0459 43.5254 52.7599 43.5254 53.4642 43.5254C53.6669 43.5254 53.802 43.6207 53.7923 43.8399C53.7923 44.021 53.6958 44.1258 53.5125 44.1163C53.0686 44.0877 53.0301 44.345 53.0397 44.6881C53.0493 45.2885 53.059 45.8889 53.0397 46.4893C53.0397 46.8324 53.0783 47.0898 53.5221 47.0612C53.6958 47.0516 53.802 47.1279 53.802 47.328C53.802 47.5758 53.6379 47.6139 53.4449 47.6139C53.0879 47.6139 52.7406 47.6139 52.3836 47.6139L52.4029 47.5949Z" fill="white"/>
<path id="Vector_21" d="M27.6536 54.6951C27.3255 54.6951 26.9975 54.6951 26.6694 54.6951C26.4957 54.6951 26.2931 54.7046 26.2642 54.4663C26.2352 54.2281 26.3799 54.1518 26.5826 54.1518C26.9492 54.1613 26.9782 53.9326 26.9782 53.6562C26.9782 53.0368 26.9782 52.4078 26.9782 51.7883C26.9782 51.4738 26.9782 51.1688 26.515 51.1974C26.3413 51.2069 26.2449 51.0926 26.2642 50.9115C26.2835 50.7209 26.4185 50.6732 26.5826 50.6732C27.3159 50.6732 28.0492 50.6732 28.7825 50.6732C28.9369 50.6732 29.0816 50.7209 29.1009 50.9115C29.1202 51.1497 28.9851 51.226 28.7825 51.2069C28.3676 51.1783 28.3483 51.4357 28.3483 51.7311C28.3483 52.3792 28.3676 53.0272 28.3483 53.6753C28.3483 53.9707 28.4158 54.1613 28.7632 54.1518C28.9658 54.1518 29.1202 54.209 29.0913 54.4473C29.072 54.6951 28.879 54.6855 28.6957 54.6951C28.3387 54.6951 27.9913 54.6951 27.6343 54.6951H27.6536Z" fill="white"/>
<path id="Vector_22" d="M44.9154 52.6174C44.9154 52.3887 44.9154 52.1695 44.9154 51.9408C44.9154 51.5786 45.0215 51.1402 44.3943 51.1879C44.2496 51.1974 44.1821 51.0735 44.1821 50.9401C44.1821 50.7495 44.3075 50.6732 44.4715 50.6732C45.2338 50.6732 45.9864 50.6732 46.7487 50.6732C46.9127 50.6732 47.0478 50.7399 47.0478 50.9305C47.0478 51.1211 46.932 51.2165 46.768 51.1974C46.3241 51.1593 46.2855 51.4357 46.2952 51.7692C46.3048 52.3696 46.2952 52.97 46.2952 53.5705C46.2952 53.885 46.2952 54.1899 46.7487 54.1614C46.9127 54.1518 47.0381 54.2281 47.0381 54.4187C47.0381 54.6093 46.9127 54.6855 46.7487 54.6855C45.9864 54.6855 45.2338 54.6855 44.4715 54.6855C44.3172 54.6855 44.1724 54.6379 44.1628 54.4377C44.1531 54.2471 44.2496 54.1518 44.4329 54.1614C44.8768 54.1899 44.925 53.9326 44.9057 53.5895C44.8864 53.2655 44.9057 52.9415 44.9057 52.6174H44.9154Z" fill="white"/>
</g>
</g>
</g>
<defs>
<clipPath id="clip0_126_17272">
<rect width="61" height="55" fill="white"/>
</clipPath>
</defs>
</svg>
