<svg width="77" height="41" viewBox="0 0 77 41" fill="none" xmlns="http://www.w3.org/2000/svg">
<g id="_&#195;&#145;&#195;&#171;&#195;&#174;&#195;&#169;_1" clip-path="url(#clip0_126_17229)">
<path id="Vector" d="M26.501 10.8215C26.501 10.5891 26.463 10.2443 26.5088 9.90912C26.608 9.17345 26.248 9.0073 25.5833 9.03035C24.5109 9.0678 23.4336 9.08893 22.3641 9.02363C21.5749 8.9756 21.4289 9.28774 21.4396 9.99076C21.4785 12.4974 21.4542 15.006 21.4542 17.5136C21.4542 21.5051 21.4532 25.4956 21.4542 29.487C21.4542 30.4417 21.461 30.4426 22.4604 30.4474C23.3908 30.4513 24.3211 30.4561 25.2515 30.4522C26.7297 30.4455 26.4981 30.4455 26.5 29.1653C26.5088 24.538 26.5214 19.9118 26.4844 15.2845C26.4786 14.5565 26.7092 14.0994 27.3233 13.7459C28.2507 13.212 28.7256 13.405 28.858 14.4422C28.9203 14.9311 28.9358 15.4276 28.9358 15.9213C28.9417 20.4064 28.9378 24.8924 28.9397 29.3775C28.9397 30.4417 28.9436 30.4397 30.0588 30.4417C30.9892 30.4436 31.9195 30.4532 32.8508 30.4513C33.9534 30.4493 33.9602 30.4465 33.9612 29.3468C33.9641 24.7551 33.9622 20.1634 33.9631 15.5726C33.9631 15.2903 33.9408 15.0041 33.9758 14.7256C34.042 14.1983 35.1144 13.3599 35.6311 13.454C36.3425 13.5827 36.3114 14.1724 36.3396 14.6987C36.3591 15.0511 36.3493 15.4046 36.3493 15.758C36.3493 20.2085 36.3493 24.6581 36.3493 29.1086C36.3493 30.6856 36.3065 30.4369 37.7585 30.4484C38.6528 30.4551 39.551 30.4013 40.4414 30.458C41.2083 30.507 41.3874 30.2169 41.3835 29.4947C41.3543 23.9848 41.3757 18.475 41.3543 12.9651C41.3513 12.1949 41.2599 11.4131 41.0983 10.6602C40.9008 9.73625 40.3217 9.12735 39.3466 8.86132C38.064 8.51269 36.9264 8.86228 35.8705 9.50095C35.1523 9.93505 34.5256 10.5171 33.7471 11.1173C33.5311 9.78235 32.8207 8.90549 31.466 8.78929C30.8442 8.73646 30.126 8.73454 29.5869 8.98809C28.5154 9.4923 27.5374 10.1896 26.4981 10.8205L26.501 10.8215Z" fill="black"/>
<path id="Vector_2" d="M6.78095 21.8614H6.77803C6.77803 19.2481 6.77511 16.6348 6.77998 14.0216C6.78192 13.0391 6.78971 12.9863 7.73854 12.9901C8.47132 12.993 8.67958 12.6981 8.63579 12.0335C8.59394 11.4006 8.628 10.7629 8.62216 10.1271C8.61243 9.11293 8.61048 9.10717 7.60521 9.04955C7.19941 9.0265 6.77414 9.04282 6.78192 8.47234C6.79263 7.69633 6.79263 6.91936 6.8481 6.14623C6.88994 5.56327 7.22763 5.07346 7.82515 5.04849C8.68736 5.01199 8.69223 4.51354 8.65914 3.90849C8.64163 3.59155 8.66206 3.2727 8.65428 2.9548C8.58518 0.330969 9.21092 0.52209 6.12115 0.883203C3.45178 1.19534 2.19933 2.50053 1.84705 5.13012C1.7254 6.03483 1.76628 6.96066 1.74876 7.87785C1.72832 8.92565 1.73708 8.97079 0.722081 9.00825C0.131375 9.03034 -0.00875941 9.2714 0.00486477 9.78522C0.0272474 10.5968 0.0272474 11.4102 0.00194531 12.2218C-0.0155715 12.7615 0.199496 12.9594 0.750302 12.9863C1.73806 13.0343 1.74292 13.0669 1.74487 14.1013C1.74876 17.6682 1.74681 21.2352 1.74681 24.8021C1.74681 26.3916 1.77698 27.9811 1.73222 29.5696C1.71275 30.2755 1.9541 30.5041 2.66061 30.4666C3.66004 30.4128 4.66434 30.4541 5.66571 30.4503C6.77803 30.4455 6.78095 30.4436 6.78192 29.3862C6.78387 26.8785 6.78192 24.3709 6.78192 21.8643L6.78095 21.8614Z" fill="black"/>
<path id="Vector_3" d="M15.4274 15.5285C15.4274 17.4013 15.4274 19.274 15.4274 21.1468C15.4274 23.9733 15.445 26.8008 15.4109 29.6272C15.4031 30.2803 15.5929 30.4993 16.2595 30.4666C17.2949 30.4157 18.3352 30.4532 19.3746 30.4513C20.4762 30.4493 20.4791 30.4484 20.4791 29.3641C20.4801 23.3567 20.4791 17.3494 20.4791 11.342C20.4791 8.09107 20.4587 4.84009 20.4947 1.58911C20.5025 0.877452 20.2562 0.652716 19.5692 0.674806C18.4958 0.70938 17.4185 0.728589 16.3481 0.666162C15.5598 0.620063 15.406 0.923551 15.4109 1.64098C15.442 6.27014 15.4265 10.8993 15.4274 15.5285Z" fill="black"/>
<path id="Vector_4" d="M54.1912 7.88842C53.9995 6.01275 53.4837 4.21486 52.4434 2.6033C50.6314 -0.201089 46.7767 -0.194367 44.9345 2.58601C44.1754 3.73274 43.7288 4.98319 43.4612 6.30567C42.3274 11.902 42.3595 17.53 43.1254 23.1589C43.3872 25.0788 43.8319 26.9688 44.9316 28.6515C46.4195 30.9305 49.7643 31.3598 51.7145 29.4726C53.0263 28.203 53.5421 26.5511 53.9226 24.8559C54.6077 21.8057 54.7011 18.7007 54.8539 15.5803C54.6369 13.016 54.4529 10.4479 54.1912 7.88842ZM52.6458 22.5356C52.4989 24.128 52.1514 25.6713 51.4381 27.1187C50.9048 28.202 50.0971 28.9828 48.8242 29.0299C47.5075 29.0788 46.6268 28.3537 46.0108 27.2493C45.1982 25.7933 44.8966 24.1971 44.7564 22.5798C44.5511 20.1903 44.4411 17.7931 44.2698 15.0905C44.4762 12.6799 44.6143 9.9629 44.9812 7.27664C45.1486 6.05116 45.6216 4.8084 46.2132 3.70873C47.3333 1.62561 50.0368 1.6717 51.2396 3.7289C52.1505 5.2886 52.5105 7.02309 52.6584 8.7912C53.0409 13.3714 53.0681 17.9545 52.6458 22.5356Z" fill="black"/>
<path id="Vector_5" d="M9.23428 19.6361C9.23428 22.8842 9.23233 26.1323 9.23525 29.3804C9.23623 30.4359 9.24304 30.4407 10.2697 30.4484C11.2711 30.4561 12.2725 30.4561 13.2748 30.4503C14.246 30.4445 14.2519 30.4397 14.2528 29.4495C14.2558 25.7424 14.2528 22.0362 14.2528 18.329C14.2528 15.5755 14.2558 12.822 14.2509 10.0676C14.249 9.04473 14.2412 9.04281 13.1775 9.04089C12.1761 9.03897 11.1718 9.08219 10.1734 9.02745C9.4075 8.98519 9.21093 9.26947 9.21871 9.99842C9.25569 13.211 9.23428 16.4235 9.23428 19.6361Z" fill="black"/>
<path id="Vector_6" d="M58.621 11.658C58.621 11.002 58.6609 10.5449 58.6044 10.0983C58.5743 9.86012 58.4332 9.51918 58.2463 9.43562C57.4396 9.07547 56.8596 9.46155 56.8576 10.3442C56.8489 16.7001 56.8479 23.0561 56.8576 29.4111C56.8586 30.311 57.0513 30.4205 57.9514 30.3687C58.7533 30.3226 58.6064 29.755 58.6073 29.292C58.6181 24.4189 58.6112 19.5468 58.6239 14.6737C58.6249 14.2597 58.5996 13.7555 58.8146 13.4492C59.6175 12.3072 60.6072 11.3267 61.9745 10.8445C62.8951 10.5199 63.6172 10.8801 63.8741 11.8318C64.0376 12.4359 64.0882 13.0842 64.0901 13.7123C64.1057 18.9033 64.0959 24.0934 64.1047 29.2844C64.1047 29.7386 63.9208 30.3158 64.7373 30.3658C65.6248 30.4205 65.7961 30.3158 65.797 29.3871C65.8038 24.0549 65.8097 18.7237 65.7834 13.3915C65.7795 12.6578 65.6472 11.9125 65.4788 11.1951C65.1275 9.69589 64.1174 8.96118 62.572 9.18976C61.8616 9.2954 61.1414 9.62098 60.5274 10.0051C59.8812 10.4095 59.3577 11.004 58.62 11.6561L58.621 11.658Z" fill="black"/>
<path id="Vector_7" d="M76.2302 24.7561C75.7534 24.7272 75.332 24.6187 75.2152 25.3227C75.078 26.1506 74.826 26.966 74.5652 27.7679C74.2976 28.5938 73.6562 29.0097 72.7979 29.0885C71.9133 29.1701 71.1338 28.929 70.6871 28.1319C70.3446 27.5211 69.9758 26.8661 69.8775 26.1938C69.6293 24.4881 69.4892 22.7642 69.3802 21.0422C69.313 19.9655 69.3928 19.9348 70.5207 19.93C72.3804 19.9223 74.2411 19.9031 76.0998 19.9425C76.7655 19.9559 76.9951 19.7331 76.964 19.0935C76.9241 18.2839 77 17.4666 76.9338 16.6598C76.784 14.8302 76.529 13.0266 75.7544 11.3152C74.4971 8.53574 70.984 8.55783 69.6683 10.3759C69.0026 11.296 68.446 12.4148 68.2436 13.5155C67.8572 15.6226 67.7589 17.7806 67.5769 19.5631C67.7375 21.6972 67.7541 23.473 68.0411 25.2055C68.2494 26.4694 68.6348 27.7746 69.2595 28.8877C70.6307 31.3272 74.2392 31.2964 75.6074 28.8541C76.166 27.8563 76.3986 26.6769 76.7411 25.5686C76.8657 25.1671 76.8171 24.7916 76.2302 24.7561ZM69.4094 17.8142C69.5476 15.8857 69.5884 13.9361 70.4001 12.1267C70.8283 11.1711 71.6817 10.6275 72.5751 10.712C73.5901 10.809 74.1341 11.4669 74.4562 12.3572C75.078 14.0725 75.1948 15.8598 75.2454 17.6586C75.261 18.2032 75.0041 18.4279 74.4795 18.4251C73.7662 18.4222 73.0519 18.4241 72.3386 18.4241V18.4222C71.5893 18.4222 70.8399 18.4231 70.0906 18.4222C69.6799 18.4212 69.3753 18.2772 69.4094 17.8142Z" fill="black"/>
<path id="Vector_8" d="M49.8606 37.079C49.8606 37.8906 49.882 38.7031 49.8528 39.5127C49.8334 40.0601 49.9492 40.3521 50.6051 40.3646C51.3019 40.378 51.4547 40.0889 51.4352 39.48C51.4021 38.4582 51.4041 37.4334 51.4401 36.4115C51.4615 35.793 52.2799 35.2322 52.9864 35.2715C53.7649 35.3157 53.7523 35.8583 53.7494 36.4096C53.7455 37.4325 53.7708 38.4562 53.7406 39.4791C53.7231 40.0841 53.8807 40.3732 54.5756 40.3684C55.2548 40.3636 55.323 40.039 55.3093 39.5098C55.284 38.5225 55.2811 37.5343 55.3064 36.547C55.3249 35.8372 56.0664 35.2514 56.8557 35.2677C57.7422 35.2859 57.6225 35.94 57.6303 36.4884C57.6449 37.5467 57.6498 38.6051 57.6293 39.6635C57.6177 40.2493 57.93 40.3559 58.439 40.3588C58.9635 40.3627 59.2263 40.2311 59.2127 39.6491C59.1825 38.3794 59.2263 37.1088 59.2039 35.8391C59.1767 34.2689 58.4439 33.6657 56.8644 33.9347C56.4557 34.0038 56.081 34.2516 55.6801 34.387C55.4835 34.4533 55.1731 34.5512 55.067 34.461C54.0715 33.6052 53.0283 33.7839 51.9734 34.2775C51.6853 34.412 51.5928 34.459 51.3204 34.1642C51.117 33.9443 50.5243 33.9808 50.1419 34.0653C49.9949 34.0979 49.885 34.5762 49.8713 34.8576C49.8343 35.5971 49.8587 36.3386 49.8597 37.08L49.8606 37.079Z" fill="black"/>
<path id="Vector_9" d="M25.2057 37.1222H25.195C25.195 37.9347 25.2125 38.7472 25.1892 39.5597C25.1726 40.1466 25.4081 40.3607 26.0144 40.3626C26.6129 40.3646 26.861 40.1658 26.8494 39.5751C26.8319 38.657 26.8494 37.7388 26.8523 36.8197C26.8542 36.0812 27.2386 35.6163 27.9461 35.4482C28.3938 35.3416 28.8628 35.3263 29.3212 35.2638C29.9888 35.1736 30.2009 35.4886 30.1873 36.1128C30.1669 37.0656 30.1931 38.0193 30.2252 38.972C30.2457 39.5809 30.488 40.137 31.1264 40.2676C31.7103 40.3876 32.338 40.3655 32.9374 40.3098C33.0922 40.2954 33.317 39.9189 33.3179 39.7067C33.3199 39.4973 33.1243 39.1593 32.9384 39.0959C31.829 38.7155 31.8203 38.7367 31.8134 37.6553C31.8105 37.1251 31.8339 36.595 31.8076 36.0658C31.7794 35.4963 31.9711 35.2043 32.6007 35.2571C32.9861 35.2888 33.3919 35.3244 33.4114 34.7126C33.4318 34.0691 33.1 33.9106 32.5521 33.9577C31.9711 34.0086 31.793 33.7013 31.8144 33.1913C31.8222 33.0155 31.8164 32.8379 31.8076 32.6611C31.7658 31.8227 31.6042 31.7094 30.7663 31.7766C29.9216 31.8448 30.2262 32.47 30.198 32.8955C30.126 33.9615 30.124 33.9241 29.0964 33.9548C28.4823 33.9731 27.8722 34.2016 27.2669 34.362C27.0858 34.41 26.971 34.8249 26.7803 34.2929C26.7063 34.0864 26.0514 33.9683 25.6933 34.0211C25.4967 34.0499 25.2514 34.508 25.2291 34.7894C25.1648 35.5616 25.2067 36.3414 25.2067 37.1194L25.2057 37.1222Z" fill="black"/>
<path id="Vector_10" d="M39.3136 37.8791H39.2114C39.2114 37.0704 39.26 36.2579 39.1978 35.4541C39.1413 34.7328 38.7375 34.1757 37.9871 34.0144C36.725 33.7426 35.5046 33.8598 34.4089 34.6089C34.1617 34.7779 33.7938 34.9345 34.1101 35.3407C34.368 35.6711 34.548 36.0437 35.13 35.7306C35.6136 35.4694 36.1907 35.3455 36.7415 35.2485C37.1366 35.1794 37.5998 35.2869 37.5872 35.7931C37.5823 35.9506 37.1609 36.1475 36.8992 36.2368C36.4301 36.3962 35.9075 36.426 35.4608 36.6257C34.9869 36.839 34.5169 37.128 34.149 37.4882C33.5963 38.0308 33.5028 38.7386 33.8104 39.4465C34.114 40.1437 34.7076 40.4462 35.4569 40.3521C36.0438 40.2782 36.6354 40.1629 37.195 39.9776C37.4947 39.8777 37.5843 39.8479 37.8684 40.0909C38.1477 40.3291 38.7122 40.2993 39.1394 40.2599C39.226 40.2522 39.2883 39.6741 39.3067 39.3552C39.334 38.8645 39.3136 38.3708 39.3136 37.8791ZM36.9254 38.9778C36.6919 39.0517 36.4379 39.0604 36.0077 39.1276C35.8482 39.0239 35.3538 38.8452 35.3567 38.6733C35.3616 38.3708 35.6302 38.0375 35.8647 37.7869C36.0185 37.6226 36.2987 37.5439 36.5362 37.4959C36.9128 37.421 37.376 37.0973 37.6271 37.6659C37.8665 38.2066 37.5463 38.7809 36.9254 38.9778Z" fill="black"/>
<path id="Vector_11" d="M14.3229 3.98821C14.3064 3.98821 14.2908 3.98629 14.2743 3.98629C14.2743 3.38796 14.2528 2.7877 14.2811 2.19033C14.3054 1.67555 14.0504 1.4998 13.5775 1.50172C12.3639 1.50652 11.1504 1.52092 9.93787 1.50076C9.37441 1.49115 9.19146 1.7399 9.20022 2.26524C9.21968 3.42733 9.22455 4.59039 9.19438 5.75152C9.17978 6.31624 9.42112 6.49295 9.95733 6.46702C10.5626 6.43821 11.1718 6.48335 11.7771 6.45646C12.5819 6.42092 13.6349 6.62549 14.1137 6.20675C14.5244 5.8466 14.2791 4.75654 14.3239 3.98917L14.3229 3.98821Z" fill="black"/>
<path id="Vector_12" d="M5.03316 33.9337C2.64212 33.514 0.880705 35.4665 1.40718 37.953C1.91322 40.3444 4.7091 41.3058 6.59605 39.7288C6.76927 39.5838 7.02229 39.2947 6.97364 39.1794C6.87632 38.9441 6.62719 38.6992 6.38488 38.6166C6.21555 38.558 5.94793 38.7511 5.73383 38.85C4.40937 39.4627 3.36517 39.0757 3.06349 37.7772C3.42648 37.7609 3.77487 37.734 4.12229 37.7302C4.90957 37.7234 5.69783 37.7561 6.48219 37.7119C6.71575 37.6994 7.07582 37.5381 7.14394 37.3595C7.61981 36.0908 6.41602 34.1767 5.03316 33.9337ZM3.14232 36.4288C3.29413 35.5318 3.63182 35.2216 4.4191 35.2302C5.17038 35.2389 5.43021 35.4982 5.57716 36.4288H3.14232Z" fill="black"/>
<path id="Vector_13" d="M21.8454 33.8943C19.7298 33.8136 18.4754 35.2715 18.6632 37.588C18.7586 38.7616 19.2013 39.7826 20.3828 40.1686C21.5914 40.5624 22.8555 40.6056 23.9192 39.6961C24.0827 39.5549 24.2491 39.1573 24.1722 39.0536C23.962 38.7703 23.7002 38.3688 23.2127 38.6887C23.0658 38.7866 22.9198 38.898 22.7563 38.9595C21.8123 39.312 20.7973 39.0738 20.4548 38.4332C20.2475 38.0452 20.2329 37.7455 20.7983 37.7369C21.2995 37.7292 21.7997 37.735 22.3009 37.735V37.709C22.8371 37.709 23.3801 37.7542 23.9075 37.6869C24.1187 37.6601 24.4262 37.4142 24.469 37.2202C24.8204 35.647 23.4638 33.9558 21.8454 33.8943ZM20.336 36.3856C20.4421 35.6019 20.8781 35.2389 21.6196 35.2264C22.3583 35.2139 22.8079 35.5702 22.9908 36.3856H20.336Z" fill="black"/>
<path id="Vector_14" d="M63.6824 33.9337C61.9492 33.5918 60.4641 34.4706 60.1323 36.1407C59.9999 36.8082 60.0038 37.5477 60.1469 38.2123C60.6082 40.3579 63.623 41.2203 65.2667 39.7182C65.6978 39.3245 65.5878 38.7425 65.0205 38.6147C64.8268 38.5715 64.5728 38.7357 64.3597 38.8337C63.5675 39.1958 62.7686 39.2957 62.0465 38.7367C61.8412 38.5773 61.812 38.196 61.702 37.9165C61.9287 37.8531 62.1535 37.7523 62.3842 37.736C62.8104 37.7071 63.2405 37.7283 63.6687 37.7283V37.7244C64.168 37.7244 64.6779 37.7801 65.1635 37.7004C65.399 37.661 65.7416 37.3912 65.7766 37.1828C66.0286 35.6989 65.0341 34.2007 63.6824 33.9337ZM63.4293 36.4644C63.297 36.5009 63.1452 36.4711 63.0021 36.4711C62.8591 36.4711 62.7092 36.497 62.5739 36.4653C62.2898 36.3981 62.0134 36.3001 61.7341 36.2147C61.9521 35.9189 62.1117 35.4828 62.4036 35.3628C62.7618 35.2158 63.2717 35.2322 63.6376 35.3743C63.9003 35.4761 64.0337 35.9006 64.2254 36.182C63.9607 36.2781 63.6999 36.3895 63.4293 36.4644Z" fill="black"/>
<path id="Vector_15" d="M66.597 37.0541H66.5882C66.5882 37.8656 66.5979 38.6772 66.5843 39.4887C66.5765 39.9929 66.6096 40.3617 67.3074 40.3655C67.9818 40.3684 68.1881 40.113 68.1715 39.4954C68.1443 38.5081 68.1423 37.5199 68.1637 36.5316C68.1793 35.8247 68.9053 35.2571 69.7072 35.2629C70.5451 35.2687 70.5635 35.8507 70.5674 36.4394C70.5742 37.4622 70.5957 38.486 70.5645 39.5089C70.5451 40.1485 70.7903 40.3704 71.4423 40.3665C72.0739 40.3627 72.2452 40.0995 72.2354 39.5377C72.214 38.3381 72.25 37.1386 72.2208 35.939C72.1819 34.3284 71.4433 33.7176 69.8181 33.9203C69.5378 33.9548 69.2546 34.0297 68.9938 34.1354C68.6201 34.2862 68.3944 34.4907 67.9205 34.0826C67.3268 33.5707 66.6164 34.0393 66.6009 34.8317C66.5863 35.5722 66.5979 36.3136 66.5979 37.0541H66.597Z" fill="black"/>
<path id="Vector_16" d="M7.94777 37.0992C7.94777 37.9107 7.97404 38.7242 7.93901 39.5338C7.91468 40.0976 8.06357 40.353 8.70196 40.3665C9.37733 40.3809 9.57488 40.1408 9.55055 39.5098C9.5126 38.5235 9.52136 37.5333 9.54958 36.546C9.57002 35.8372 10.2931 35.26 11.0881 35.261C11.7742 35.2619 12.0097 35.5587 12.0204 36.4999C12.0331 37.5582 12.0438 38.6176 12.0126 39.6759C11.9951 40.2829 12.325 40.354 12.8184 40.355C13.3157 40.3569 13.6349 40.2781 13.6203 39.6731C13.5901 38.4735 13.5823 37.272 13.6203 36.0735C13.6816 34.0816 12.469 33.6552 10.8196 33.9865C10.6142 34.0278 10.4118 34.1248 10.2308 34.2314C9.92133 34.4139 9.71988 34.6069 9.40069 34.1334C9.26153 33.927 8.60075 33.9702 8.2183 34.0643C8.06941 34.1008 7.97599 34.5887 7.96236 34.8758C7.92733 35.6153 7.95069 36.3577 7.95069 37.0992H7.94777Z" fill="black"/>
<path id="Vector_17" d="M43.1653 37.1204H43.1614C43.1614 37.8964 43.1789 38.6733 43.1556 39.4484C43.139 40.0083 43.2033 40.3742 43.9429 40.3704C44.6348 40.3675 44.7954 40.1015 44.7749 39.4897C44.7409 38.4678 44.7457 37.4431 44.7788 36.4212C44.7993 35.7767 45.5418 35.2456 46.3037 35.2658C46.9626 35.2831 47.2185 35.5789 47.2292 36.4058C47.2438 37.4642 47.2574 38.5235 47.2214 39.58C47.2 40.1965 47.4638 40.3579 48.0457 40.3608C48.6598 40.3637 48.8602 40.1245 48.8466 39.5444C48.8194 38.3103 48.8583 37.0752 48.8291 35.8411C48.797 34.4322 48.0447 33.7772 46.6337 33.904C46.2814 33.9356 45.9281 34.025 45.5914 34.1344C45.2167 34.2564 44.991 34.4619 44.5151 34.0691C43.8806 33.5448 43.1751 34.048 43.1663 34.898C43.1595 35.6384 43.1643 36.3799 43.1643 37.1204H43.1653Z" fill="black"/>
<path id="Vector_18" d="M75.5977 40.3578C75.8478 40.3578 76.1358 40.4337 76.3392 40.3377C76.5728 40.2272 76.8316 39.9929 76.8998 39.7614C77.0088 39.3907 76.8784 39.0411 76.3645 39.0786C75.5189 39.14 75.332 38.6435 75.3447 37.9491C75.3563 37.3134 75.37 36.6766 75.3398 36.0427C75.3116 35.4502 75.5471 35.2014 76.1543 35.2619C76.6127 35.3071 77.0019 35.2667 76.999 34.6261C76.9971 34.0028 76.6302 33.9279 76.1602 33.9663C75.4673 34.024 75.2765 33.6724 75.3456 33.0664C75.3651 32.8926 75.331 32.712 75.3495 32.5372C75.4147 31.9159 75.0955 31.7785 74.5243 31.7708C73.8995 31.7622 73.7146 32.0148 73.7253 32.5881C73.737 33.2134 73.9618 33.9827 72.9011 34.0835C72.8076 34.0921 72.6841 34.5781 72.7171 34.823C72.7395 34.9863 73.0081 35.2331 73.1765 35.2408C73.6981 35.2638 73.7292 35.5721 73.7292 35.9525C73.7292 36.8351 73.7088 37.7196 73.7448 38.6013C73.7983 39.9305 74.2586 40.3492 75.5977 40.3588V40.3578Z" fill="black"/>
<path id="Vector_19" d="M17.0341 40.3521C17.2842 40.3521 17.5645 40.4222 17.7747 40.3319C17.983 40.2426 18.2593 39.991 18.2564 39.8142C18.2525 39.5713 18.0686 39.1852 17.8691 39.1141C16.8161 38.7405 16.8054 38.7684 16.8025 37.6456C16.8015 37.1174 16.8278 36.5882 16.7967 36.0619C16.7626 35.4943 16.9407 35.1976 17.5723 35.2581C17.982 35.2975 18.3411 35.2696 18.3479 34.679C18.3547 34.1046 18.0978 33.9116 17.5762 33.9615C16.9417 34.022 16.7597 33.6945 16.8025 33.1394C16.8181 32.9291 16.7869 32.7159 16.8025 32.5065C16.8405 31.9543 16.5719 31.7776 16.0347 31.7737C15.4829 31.7699 15.1657 31.8765 15.1851 32.519C15.2056 33.1682 15.4605 33.9942 14.3229 34.0768C14.2363 34.0835 14.1137 34.5675 14.1429 34.8134C14.1623 34.9776 14.4202 35.2389 14.574 35.2398C15.1462 35.2456 15.1978 35.5798 15.1949 36.0053C15.191 36.8504 15.1832 37.6956 15.2007 38.5398C15.2309 40.0121 15.5832 40.353 17.0361 40.3511L17.0341 40.3521Z" fill="black"/>
<path id="Vector_20" d="M41.9751 37.1338H41.9781C41.9781 36.3241 41.945 35.5116 41.9888 34.7039C42.0248 34.0355 41.654 33.9721 41.1246 33.9606C40.5621 33.9481 40.3811 34.1738 40.3889 34.7145C40.4113 36.3693 40.4132 38.025 40.3811 39.6798C40.3694 40.2973 40.6993 40.3502 41.1849 40.355C41.6842 40.3588 42.0063 40.2685 41.9839 39.6692C41.9528 38.825 41.9761 37.9789 41.9761 37.1338H41.9751Z" fill="black"/>
<path id="Vector_21" d="M41.0536 32.9829C41.5742 33.0165 42.0199 33.0665 41.9946 32.3375C41.9761 31.8016 41.8 31.5769 41.2521 31.5855C40.7461 31.5941 40.3597 31.6143 40.3617 32.2952C40.3636 32.8532 40.531 33.0857 41.0536 32.9819V32.9829Z" fill="black"/>
<path id="Vector_22" d="M26.501 10.8215C27.5393 10.1905 28.5183 9.49325 29.5898 8.98903C30.1289 8.73549 30.8471 8.73645 31.4689 8.79023C32.8236 8.90644 33.533 9.78329 33.75 11.1183C34.5285 10.517 35.1553 9.936 35.8734 9.50189C36.9293 8.86418 38.066 8.51363 39.3496 8.86226C40.3256 9.12733 40.9037 9.73623 41.1012 10.6611C41.2628 11.4141 41.3543 12.1968 41.3572 12.9661C41.3786 18.4759 41.3572 23.9858 41.3864 29.4956C41.3903 30.2179 41.2112 30.507 40.4444 30.4589C39.5539 30.4023 38.6557 30.4561 37.7614 30.4493C36.3094 30.4378 36.3532 30.6875 36.3522 29.1096C36.3522 24.659 36.3522 20.2095 36.3522 15.7589C36.3522 15.4055 36.361 15.0521 36.3425 14.6996C36.3143 14.1733 36.3454 13.5836 35.6341 13.4549C35.1173 13.3618 34.0449 14.2002 33.9787 14.7265C33.9437 15.005 33.9661 15.2912 33.9661 15.5736C33.9661 20.1653 33.967 24.757 33.9641 29.3477C33.9641 30.4474 33.9573 30.4503 32.8537 30.4522C31.9234 30.4532 30.9931 30.4445 30.0618 30.4426C28.9475 30.4407 28.9436 30.4426 28.9426 29.3785C28.9407 24.8934 28.9446 20.4073 28.9387 15.9222C28.9387 15.4286 28.9232 14.932 28.8609 14.4432C28.7285 13.4059 28.2536 13.2119 27.3262 13.7469C26.7122 14.1003 26.4815 14.5575 26.4874 15.2855C26.5243 19.9117 26.5117 24.539 26.5029 29.1662C26.501 30.4465 26.7326 30.4465 25.2544 30.4532C24.324 30.458 23.3937 30.4532 22.4634 30.4484C21.4639 30.4445 21.4581 30.4426 21.4571 29.488C21.4552 25.4965 21.4561 21.506 21.4571 17.5146C21.4571 15.0069 21.4814 12.4993 21.4425 9.9917C21.4318 9.28868 21.5778 8.97559 22.367 9.02457C23.4365 9.08988 24.5148 9.06875 25.5862 9.03129C26.2509 9.00824 26.6119 9.17439 26.5117 9.91006C26.4659 10.2443 26.5039 10.59 26.5039 10.8225L26.501 10.8215Z" fill="white"/>
<path id="Vector_23" d="M6.78096 21.8614C6.78096 24.369 6.78193 26.8767 6.78096 29.3833C6.78096 30.4407 6.77706 30.4426 5.66474 30.4474C4.66239 30.4513 3.6581 30.41 2.65964 30.4638C1.95313 30.5022 1.71178 30.2727 1.73125 29.5668C1.77504 27.9792 1.74585 26.3888 1.74585 24.7993C1.74585 21.2323 1.74779 17.6654 1.7439 14.0984C1.74293 13.065 1.73709 13.0324 0.749333 12.9834C0.198527 12.9565 -0.0165404 12.7577 0.000976373 12.2189C0.0272516 11.4074 0.0262784 10.5939 0.00389584 9.78236C-0.00972834 9.26951 0.130406 9.02748 0.721112 9.00539C1.73611 8.96794 1.72736 8.9228 1.74779 7.875C1.76628 6.95877 1.72541 6.03197 1.84608 5.12727C2.19934 2.50056 3.45179 1.19536 6.12116 0.883232C9.21093 0.522119 8.58519 0.330998 8.65331 2.95387C8.66109 3.27176 8.64163 3.59062 8.65817 3.90755C8.69029 4.51261 8.68639 5.01106 7.82418 5.04756C7.22666 5.07253 6.88898 5.56138 6.84713 6.1453C6.79166 6.91843 6.79166 7.6954 6.78096 8.47141C6.77317 9.04189 7.19844 9.02556 7.60425 9.04861C8.60952 9.10624 8.61146 9.112 8.62119 10.1262C8.62703 10.762 8.59297 11.3997 8.63482 12.0326C8.67861 12.6972 8.47035 12.992 7.73757 12.9892C6.78874 12.9853 6.78096 13.0381 6.77901 14.0206C6.77414 16.6339 6.77706 19.2472 6.77706 21.8604H6.77998L6.78096 21.8614Z" fill="white"/>
<path id="Vector_24" d="M15.4265 15.5285C15.4265 10.8993 15.4411 6.27014 15.4099 1.64098C15.4051 0.923551 15.5588 0.620063 16.3471 0.666162C17.4175 0.729549 18.4958 0.710341 19.5682 0.674806C20.2562 0.652716 20.5015 0.877452 20.4937 1.58911C20.4587 4.84009 20.4781 8.09107 20.4781 11.342C20.4781 17.3494 20.4781 23.3567 20.4781 29.3641C20.4781 30.4474 20.4742 30.4484 19.3736 30.4513C18.3352 30.4532 17.2949 30.4157 16.2585 30.4666C15.5909 30.4993 15.4012 30.2803 15.4099 29.6272C15.444 26.8008 15.4255 23.9733 15.4265 21.1468C15.4265 19.274 15.4265 17.4013 15.4265 15.5285Z" fill="white"/>
<path id="Vector_25" d="M54.1912 7.88842C53.9995 6.01275 53.4837 4.21486 52.4434 2.6033C50.6314 -0.201089 46.7767 -0.194367 44.9345 2.58601C44.1754 3.73274 43.7288 4.98319 43.4612 6.30567C42.3274 11.902 42.3595 17.53 43.1254 23.1589C43.3872 25.0788 43.8319 26.9688 44.9316 28.6515C46.4195 30.9305 49.7643 31.3598 51.7145 29.4726C53.0263 28.203 53.5421 26.5511 53.9226 24.8559C54.6077 21.8057 54.7011 18.7007 54.8539 15.5803C54.6369 13.016 54.4529 10.4479 54.1912 7.88842ZM52.6458 22.5356C52.4989 24.128 52.1514 25.6713 51.4381 27.1187C50.9048 28.202 50.0971 28.9828 48.8242 29.0299C47.5075 29.0788 46.6268 28.3537 46.0108 27.2493C45.1982 25.7933 44.8966 24.1971 44.7564 22.5798C44.5511 20.1903 44.4411 17.7931 44.2698 15.0905C44.4762 12.6799 44.6143 9.9629 44.9812 7.27664C45.1486 6.05116 45.6216 4.8084 46.2132 3.70873C47.3333 1.62561 50.0368 1.6717 51.2396 3.7289C52.1505 5.2886 52.5105 7.02309 52.6584 8.7912C53.0409 13.3714 53.0681 17.9545 52.6458 22.5356Z" fill="white"/>
<path id="Vector_26" d="M9.23525 19.6361C9.23525 16.4235 9.25666 13.211 9.21968 9.99842C9.21092 9.26947 9.40847 8.98519 10.1743 9.02745C11.1728 9.08219 12.1771 9.03897 13.1785 9.04089C14.2421 9.04281 14.2509 9.04473 14.2519 10.0676C14.2567 12.8211 14.2538 15.5745 14.2538 18.329C14.2538 22.0362 14.2558 25.7424 14.2538 29.4495C14.2538 30.4397 14.247 30.4445 13.2758 30.4503C12.2744 30.4561 11.273 30.4551 10.2707 30.4484C9.24401 30.4407 9.2372 30.4359 9.23623 29.3804C9.23331 26.1323 9.23525 22.8842 9.23623 19.6361H9.23525Z" fill="white"/>
<path id="Vector_27" d="M58.621 11.658C59.3577 11.0059 59.8822 10.4114 60.5284 10.0071C61.1424 9.62294 61.8616 9.2964 62.573 9.19171C64.1183 8.96218 65.1275 9.69689 65.4798 11.197C65.6481 11.9154 65.7805 12.6597 65.7844 13.3935C65.8107 18.7257 65.8048 24.0569 65.798 29.3891C65.797 30.3178 65.6248 30.4225 64.7382 30.3677C63.9218 30.3178 64.1067 29.7406 64.1057 29.2863C64.096 24.0953 64.1067 18.9053 64.0911 13.7143C64.0891 13.0852 64.0385 12.4369 63.875 11.8338C63.6172 10.883 62.8961 10.5219 61.9754 10.8465C60.6082 11.3286 59.6185 12.3092 58.8156 13.4511C58.6005 13.7575 58.6258 14.2627 58.6249 14.6756C58.6122 19.5487 58.6181 24.4209 58.6083 29.294C58.6074 29.7569 58.7553 30.3236 57.9524 30.3706C57.0523 30.4225 56.8605 30.313 56.8586 29.4131C56.8498 23.0571 56.8508 16.7011 56.8586 10.3461C56.8596 9.46351 57.4405 9.07742 58.2473 9.43758C58.4351 9.52113 58.5752 9.86112 58.6054 10.1003C58.6618 10.5459 58.622 11.004 58.622 11.66L58.621 11.658Z" fill="white"/>
<path id="Vector_28" d="M76.2302 24.7561C75.7534 24.7272 75.332 24.6187 75.2152 25.3227C75.078 26.1506 74.826 26.966 74.5652 27.7679C74.2976 28.5938 73.6562 29.0097 72.7979 29.0885C71.9133 29.1701 71.1338 28.929 70.6871 28.1319C70.3446 27.5211 69.9758 26.8661 69.8775 26.1938C69.6293 24.4881 69.4892 22.7642 69.3802 21.0422C69.313 19.9655 69.3928 19.9348 70.5207 19.93C72.3804 19.9223 74.2411 19.9031 76.0998 19.9425C76.7655 19.9559 76.9951 19.7331 76.964 19.0935C76.9241 18.2839 77 17.4666 76.9338 16.6598C76.784 14.8302 76.529 13.0266 75.7544 11.3152C74.4971 8.53574 70.984 8.55783 69.6683 10.3759C69.0026 11.296 68.446 12.4148 68.2436 13.5155C67.8572 15.6226 67.7589 17.7806 67.5769 19.5631C67.7375 21.6972 67.7541 23.473 68.0411 25.2055C68.2494 26.4694 68.6348 27.7746 69.2595 28.8877C70.6307 31.3272 74.2392 31.2964 75.6074 28.8541C76.166 27.8563 76.3986 26.6769 76.7411 25.5686C76.8657 25.1671 76.8171 24.7916 76.2302 24.7561ZM69.4094 17.8142C69.5476 15.8857 69.5884 13.9361 70.4001 12.1267C70.8283 11.1711 71.6817 10.6275 72.5751 10.712C73.5901 10.809 74.1341 11.4669 74.4562 12.3572C75.078 14.0725 75.1948 15.8598 75.2454 17.6586C75.261 18.2032 75.0041 18.4279 74.4795 18.4251C73.7662 18.4222 73.0519 18.4241 72.3386 18.4241V18.4222C71.5893 18.4222 70.8399 18.4231 70.0906 18.4222C69.6799 18.4212 69.3753 18.2772 69.4094 17.8142Z" fill="white"/>
<path id="Vector_29" d="M49.8597 37.079C49.8597 36.3385 49.8343 35.5961 49.8713 34.8566C49.8859 34.5752 49.9949 34.0969 50.1419 34.0643C50.5243 33.9798 51.117 33.9433 51.3204 34.1632C51.5928 34.4571 51.6853 34.411 51.9734 34.2765C53.0283 33.7829 54.0715 33.6043 55.067 34.46C55.1721 34.5503 55.4835 34.4523 55.6801 34.386C56.081 34.2506 56.4557 34.0038 56.8644 33.9337C58.4439 33.6648 59.1767 34.2679 59.2039 35.8382C59.2253 37.1078 59.1825 38.3784 59.2127 39.6481C59.2263 40.2301 58.9635 40.3617 58.439 40.3578C57.93 40.354 57.6177 40.2484 57.6293 39.6625C57.6498 38.6041 57.6459 37.5458 57.6303 36.4874C57.6225 35.939 57.7422 35.285 56.8557 35.2667C56.0664 35.2504 55.3249 35.8362 55.3064 36.546C55.2811 37.5333 55.285 38.5215 55.3093 39.5088C55.323 40.038 55.2548 40.3626 54.5756 40.3674C53.8807 40.3722 53.7231 40.0832 53.7406 39.4781C53.7708 38.4562 53.7445 37.4324 53.7494 36.4086C53.7513 35.8574 53.7649 35.3147 52.9864 35.2706C52.2809 35.2312 51.4624 35.7921 51.4401 36.4106C51.4041 37.4324 51.4021 38.4572 51.4352 39.4791C51.4547 40.088 51.3028 40.377 50.6051 40.3636C49.9492 40.3511 49.8334 40.0582 49.8528 39.5117C49.882 38.7011 49.8606 37.8886 49.8597 37.078V37.079Z" fill="white"/>
<path id="Vector_30" d="M25.2057 37.1223C25.2057 36.3453 25.1639 35.5645 25.2281 34.7923C25.2515 34.5119 25.4967 34.0528 25.6923 34.024C26.0504 33.9712 26.7054 34.0893 26.7793 34.2958C26.97 34.8269 27.0849 34.413 27.2659 34.3649C27.8702 34.2046 28.4814 33.976 29.0954 33.9577C30.1221 33.927 30.125 33.9645 30.197 32.8984C30.2262 32.4729 29.9207 31.8477 30.7654 31.7795C31.6032 31.7123 31.7648 31.8256 31.8066 32.6641C31.8154 32.8408 31.8212 33.0175 31.8134 33.1942C31.792 33.7042 31.9701 34.0115 32.5511 33.9606C33.099 33.9126 33.4308 34.0711 33.4104 34.7155C33.3909 35.3263 32.9851 35.2917 32.5998 35.26C31.9701 35.2072 31.7784 35.4992 31.8066 36.0687C31.8329 36.5969 31.8086 37.128 31.8125 37.6582C31.8193 38.7396 31.828 38.7185 32.9374 39.0988C33.1233 39.1622 33.3179 39.5002 33.317 39.7096C33.315 39.9219 33.0912 40.2983 32.9365 40.3128C32.337 40.3685 31.7093 40.3905 31.1254 40.2705C30.488 40.1389 30.2447 39.5838 30.2243 38.9749C30.1922 38.0222 30.1669 37.0675 30.1863 36.1158C30.199 35.4915 29.9878 35.1765 29.3202 35.2668C28.8619 35.3282 28.3928 35.3436 27.9452 35.4512C27.2386 35.6202 26.8542 36.0841 26.8513 36.8226C26.8484 37.7408 26.8309 38.6599 26.8484 39.578C26.8601 40.1677 26.6119 40.3665 26.0134 40.3656C25.4081 40.3637 25.1717 40.1495 25.1882 39.5627C25.2116 38.7511 25.194 37.9377 25.194 37.1252H25.2047L25.2057 37.1223Z" fill="white"/>
<path id="Vector_31" d="M39.3136 37.8791H39.2114C39.2114 37.0704 39.26 36.2579 39.1978 35.4541C39.1413 34.7328 38.7375 34.1757 37.9871 34.0144C36.725 33.7426 35.5046 33.8598 34.4089 34.6089C34.1617 34.7779 33.7938 34.9345 34.1101 35.3407C34.368 35.6711 34.548 36.0437 35.13 35.7306C35.6136 35.4694 36.1907 35.3455 36.7415 35.2485C37.1366 35.1794 37.5998 35.2869 37.5872 35.7931C37.5823 35.9506 37.1609 36.1475 36.8992 36.2368C36.4301 36.3962 35.9075 36.426 35.4608 36.6257C34.9869 36.839 34.5169 37.128 34.149 37.4882C33.5963 38.0308 33.5028 38.7386 33.8104 39.4465C34.114 40.1437 34.7076 40.4462 35.4569 40.3521C36.0438 40.2782 36.6354 40.1629 37.195 39.9776C37.4947 39.8777 37.5843 39.8479 37.8684 40.0909C38.1477 40.3291 38.7122 40.2993 39.1394 40.2599C39.226 40.2522 39.2883 39.6741 39.3067 39.3552C39.334 38.8645 39.3136 38.3708 39.3136 37.8791ZM36.9254 38.9778C36.6919 39.0517 36.4379 39.0604 36.0077 39.1276C35.8482 39.0239 35.3538 38.8452 35.3567 38.6733C35.3616 38.3708 35.6302 38.0375 35.8647 37.7869C36.0185 37.6226 36.2987 37.5439 36.5362 37.4959C36.9128 37.421 37.376 37.0973 37.6271 37.6659C37.8665 38.2066 37.5463 38.7809 36.9254 38.9778Z" fill="white"/>
<path id="Vector_32" d="M14.3229 3.98821C14.2781 4.75557 14.5244 5.84659 14.1127 6.20579C13.6339 6.62452 12.581 6.42092 11.7762 6.45549C11.1709 6.48238 10.5617 6.43724 9.95636 6.46606C9.42015 6.49199 9.17881 6.31527 9.1934 5.75055C9.22357 4.58942 9.21773 3.42637 9.19924 2.26428C9.19048 1.73893 9.37344 1.49115 9.93689 1.49979C11.1494 1.51996 12.3639 1.50555 13.5765 1.50075C14.0495 1.49883 14.3044 1.67555 14.2801 2.18936C14.2519 2.78674 14.2733 3.38603 14.2733 3.98533C14.2898 3.98533 14.3054 3.98725 14.3219 3.98725L14.3229 3.98821Z" fill="white"/>
<path id="Vector_33" d="M5.03316 33.9337C2.64212 33.514 0.880705 35.4665 1.40718 37.953C1.91322 40.3444 4.7091 41.3058 6.59605 39.7288C6.76927 39.5838 7.02229 39.2947 6.97364 39.1794C6.87632 38.9441 6.62719 38.6992 6.38488 38.6166C6.21555 38.558 5.94793 38.7511 5.73383 38.85C4.40937 39.4627 3.36517 39.0757 3.06349 37.7772C3.42648 37.7609 3.77487 37.734 4.12229 37.7302C4.90957 37.7234 5.69783 37.7561 6.48219 37.7119C6.71575 37.6994 7.07582 37.5381 7.14394 37.3595C7.61981 36.0908 6.41602 34.1767 5.03316 33.9337ZM3.14232 36.4288C3.29413 35.5318 3.63182 35.2216 4.4191 35.2302C5.17038 35.2389 5.43021 35.4982 5.57716 36.4288H3.14232Z" fill="white"/>
<path id="Vector_34" d="M21.8454 33.8943C19.7298 33.8136 18.4754 35.2715 18.6632 37.588C18.7586 38.7616 19.2013 39.7826 20.3828 40.1686C21.5914 40.5624 22.8555 40.6056 23.9192 39.6961C24.0827 39.5549 24.2491 39.1573 24.1722 39.0536C23.962 38.7703 23.7002 38.3688 23.2127 38.6887C23.0658 38.7866 22.9198 38.898 22.7563 38.9595C21.8123 39.312 20.7973 39.0738 20.4548 38.4332C20.2475 38.0452 20.2329 37.7455 20.7983 37.7369C21.2995 37.7292 21.7997 37.735 22.3009 37.735V37.709C22.8371 37.709 23.3801 37.7542 23.9075 37.6869C24.1187 37.6601 24.4262 37.4142 24.469 37.2202C24.8204 35.647 23.4638 33.9558 21.8454 33.8943ZM20.336 36.3856C20.4421 35.6019 20.8781 35.2389 21.6196 35.2264C22.3583 35.2139 22.8079 35.5702 22.9908 36.3856H20.336Z" fill="white"/>
<path id="Vector_35" d="M63.6824 33.9337C61.9492 33.5918 60.4641 34.4706 60.1323 36.1407C59.9999 36.8082 60.0038 37.5477 60.1469 38.2123C60.6082 40.3579 63.623 41.2203 65.2667 39.7182C65.6978 39.3245 65.5878 38.7425 65.0205 38.6147C64.8268 38.5715 64.5728 38.7357 64.3597 38.8337C63.5675 39.1958 62.7686 39.2957 62.0465 38.7367C61.8412 38.5773 61.812 38.196 61.702 37.9165C61.9287 37.8531 62.1535 37.7523 62.3842 37.736C62.8104 37.7071 63.2405 37.7283 63.6687 37.7283V37.7244C64.168 37.7244 64.6779 37.7801 65.1635 37.7004C65.399 37.661 65.7416 37.3912 65.7766 37.1828C66.0286 35.6989 65.0341 34.2007 63.6824 33.9337ZM63.4293 36.4644C63.297 36.5009 63.1452 36.4711 63.0021 36.4711C62.8591 36.4711 62.7092 36.497 62.5739 36.4653C62.2898 36.3981 62.0134 36.3001 61.7341 36.2147C61.9521 35.9189 62.1117 35.4828 62.4036 35.3628C62.7618 35.2158 63.2717 35.2322 63.6376 35.3743C63.9003 35.4761 64.0337 35.9006 64.2254 36.182C63.9607 36.2781 63.6999 36.3895 63.4293 36.4644Z" fill="white"/>
<path id="Vector_36" d="M66.597 37.0541C66.597 36.3136 66.5853 35.5722 66.5999 34.8317C66.6154 34.0403 67.3259 33.5707 67.9195 34.0826C68.3934 34.4908 68.6192 34.2852 68.9929 34.1354C69.2547 34.0298 69.5369 33.9548 69.8171 33.9203C71.4433 33.7176 72.1819 34.3284 72.2199 35.939C72.2491 37.1376 72.213 38.3381 72.2345 39.5377C72.2442 40.0995 72.0719 40.3627 71.4413 40.3665C70.7903 40.3704 70.5441 40.1485 70.5635 39.5089C70.5947 38.487 70.5733 37.4632 70.5665 36.4394C70.5626 35.8507 70.5441 35.2687 69.7062 35.2629C68.9043 35.2572 68.1774 35.8248 68.1628 36.5316C68.1414 37.5189 68.1433 38.5081 68.1706 39.4954C68.1881 40.113 67.9808 40.3684 67.3064 40.3656C66.6096 40.3617 66.5756 39.9929 66.5833 39.4887C66.596 38.6772 66.5872 37.8656 66.5872 37.0541H66.596H66.597Z" fill="white"/>
<path id="Vector_37" d="M7.94776 37.0992C7.94776 36.3577 7.92441 35.6153 7.95944 34.8758C7.97307 34.5887 8.06746 34.1008 8.21538 34.0643C8.59783 33.9702 9.25861 33.927 9.39777 34.1334C9.71794 34.6069 9.91841 34.4148 10.2279 34.2314C10.4098 34.1238 10.6113 34.0278 10.8166 33.9865C12.4671 33.6552 13.6797 34.0816 13.6174 36.0735C13.5804 37.272 13.5882 38.4735 13.6174 39.6731C13.6329 40.2791 13.3128 40.3569 12.8155 40.355C12.3221 40.353 11.9912 40.2829 12.0097 39.6759C12.0409 38.6176 12.0302 37.5582 12.0175 36.4999C12.0068 35.5587 11.7713 35.2619 11.0852 35.261C10.2902 35.26 9.5671 35.8362 9.54666 36.546C9.51844 37.5333 9.50968 38.5235 9.54763 39.5098C9.57196 40.1408 9.37441 40.3818 8.69904 40.3665C8.06065 40.353 7.91176 40.0976 7.93609 39.5338C7.97112 38.7232 7.94484 37.9107 7.94484 37.0992H7.94776Z" fill="white"/>
<path id="Vector_38" d="M43.1653 37.1204C43.1653 36.3799 43.1595 35.6384 43.1673 34.898C43.176 34.048 43.8816 33.5448 44.5161 34.0691C44.9919 34.4619 45.2177 34.2564 45.5924 34.1344C45.9291 34.025 46.2823 33.9356 46.6346 33.904C48.0457 33.7762 48.7979 34.4322 48.8301 35.8411C48.8583 37.0752 48.8203 38.3103 48.8476 39.5444C48.8602 40.1245 48.6598 40.3637 48.0467 40.3608C47.4647 40.3579 47.201 40.1965 47.2224 39.58C47.2594 38.5226 47.2448 37.4642 47.2302 36.4058C47.2185 35.5789 46.9636 35.2831 46.3047 35.2658C45.5427 35.2456 44.8002 35.7767 44.7798 36.4212C44.7467 37.4431 44.7418 38.4678 44.7759 39.4897C44.7963 40.1015 44.6358 40.3675 43.9438 40.3704C43.2042 40.3742 43.14 40.0083 43.1566 39.4484C43.1799 38.6733 43.1624 37.8964 43.1624 37.1204H43.1663H43.1653Z" fill="white"/>
<path id="Vector_39" d="M75.5977 40.3578C74.2586 40.3492 73.7983 39.9295 73.7448 38.6003C73.7088 37.7186 73.7283 36.8351 73.7292 35.9515C73.7292 35.5712 73.6981 35.2638 73.1765 35.2398C73.0081 35.2322 72.7395 34.9853 72.7171 34.8221C72.6841 34.5762 72.8076 34.0912 72.9011 34.0825C73.9618 33.9817 73.737 33.2124 73.7253 32.5872C73.7146 32.0138 73.8995 31.7622 74.5243 31.7699C75.0955 31.7776 75.4147 31.9139 75.3495 32.5363C75.331 32.7111 75.3651 32.8907 75.3456 33.0655C75.2765 33.6715 75.4673 34.022 76.1602 33.9654C76.6302 33.927 76.9961 34.0009 76.999 34.6252C77.0019 35.2658 76.6127 35.3071 76.1543 35.261C75.5471 35.2005 75.3116 35.4492 75.3398 36.0418C75.37 36.6756 75.3563 37.3134 75.3447 37.9482C75.332 38.6426 75.5189 39.14 76.3645 39.0776C76.8774 39.0402 77.0088 39.3898 76.8998 39.7605C76.8316 39.9919 76.5718 40.2263 76.3392 40.3367C76.1349 40.4328 75.8478 40.3569 75.5977 40.3569V40.3578Z" fill="white"/>
<path id="Vector_40" d="M17.0341 40.3521C15.5812 40.354 15.2299 40.0121 15.1988 38.5408C15.1812 37.6966 15.189 36.8504 15.1929 36.0062C15.1949 35.5808 15.1443 35.2466 14.572 35.2408C14.4183 35.2389 14.1604 34.9777 14.1409 34.8144C14.1117 34.5676 14.2344 34.0835 14.321 34.0777C15.4576 33.9952 15.2026 33.1692 15.1832 32.52C15.1637 31.8775 15.481 31.7709 16.0327 31.7747C16.5699 31.7785 16.8385 31.9552 16.8006 32.5075C16.786 32.7178 16.8171 32.931 16.8006 33.1404C16.7577 33.6965 16.9397 34.023 17.5742 33.9625C18.0958 33.9126 18.3518 34.1056 18.3459 34.6799C18.3391 35.2706 17.98 35.2984 17.5703 35.2591C16.9388 35.1985 16.7607 35.4953 16.7947 36.0629C16.8259 36.5892 16.7986 37.1184 16.8006 37.6466C16.8035 38.7684 16.8142 38.7405 17.8671 39.1151C18.0666 39.1862 18.2506 39.5722 18.2545 39.8152C18.2574 39.9919 17.981 40.2445 17.7727 40.3329C17.5625 40.4222 17.2823 40.3531 17.0322 40.3531L17.0341 40.3521Z" fill="white"/>
<path id="Vector_41" d="M41.9751 37.1338C41.9751 37.9789 41.9518 38.825 41.9829 39.6692C42.0053 40.2685 41.6832 40.3588 41.184 40.355C40.6984 40.3511 40.3685 40.2983 40.3801 39.6798C40.4123 38.025 40.4103 36.3693 40.3879 34.7145C40.3801 34.1738 40.5611 33.9481 41.1236 33.9606C41.653 33.9721 42.0238 34.0355 41.9878 34.7039C41.944 35.5116 41.9771 36.3232 41.9771 37.1338H41.9742H41.9751Z" fill="white"/>
<path id="Vector_42" d="M41.0536 32.9829C40.531 33.0866 40.3636 32.8542 40.3616 32.2962C40.3587 31.6153 40.746 31.5942 41.2521 31.5865C41.8 31.5778 41.9751 31.8016 41.9946 32.3385C42.0199 33.0665 41.5742 33.0165 41.0536 32.9839V32.9829Z" fill="white"/>
</g>
<defs>
<clipPath id="clip0_126_17229">
<rect width="77" height="40" fill="white" transform="translate(0 0.5)"/>
</clipPath>
</defs>
</svg>
