<svg width="79" height="43" viewBox="0 0 79 43" fill="none" xmlns="http://www.w3.org/2000/svg">
<g id="_&#195;&#145;&#195;&#171;&#195;&#174;&#195;&#169;_1" clip-path="url(#clip0_126_17210)">
<g id="xmTSaF.tif">
<g id="Group">
<path id="Vector" d="M52.5183 43C52.0053 42.8673 51.5262 42.689 51.1107 42.3448C49.5292 41.0221 49.9702 38.4305 51.9247 37.709C53.0143 37.3067 54.0531 37.4643 55.0197 38.1029C55.2105 38.2273 55.2275 38.3309 55.0706 38.4968C54.8756 38.7041 54.6933 38.9239 54.5195 39.1437C54.4092 39.2805 54.3159 39.2929 54.1718 39.1851C53.8496 38.9405 53.4807 38.8161 53.0737 38.8161C52.336 38.8161 51.7466 39.3842 51.7254 40.1098C51.7042 40.9101 52.0349 41.4326 52.7133 41.6067C53.0737 41.7021 53.4425 41.6938 53.8029 41.5528C54.0743 41.445 53.9852 41.2211 53.981 41.0345C53.9725 40.8313 53.7944 40.9018 53.6757 40.8935C53.4934 40.8852 53.3154 40.8852 53.133 40.8935C52.9889 40.8935 52.9168 40.8355 52.9168 40.6945C52.9168 40.4706 52.9168 40.2467 52.9168 40.0186C52.9168 39.8818 52.9762 39.8113 53.1246 39.8154C53.8241 39.8154 54.5195 39.8154 55.219 39.8154C55.3674 39.8154 55.4268 39.8818 55.4268 40.0186C55.4268 40.6862 55.4268 41.3538 55.4268 42.0172C55.4268 42.1458 55.3632 42.2246 55.2614 42.2951C54.7993 42.6351 54.282 42.8466 53.7139 42.9502C53.6418 42.9627 53.5697 42.9834 53.5019 43H52.514H52.5183Z" fill="white"/>
<path id="Vector_2" d="M70.5671 43C70.4314 42.971 70.2957 42.9461 70.16 42.9129C69.1976 42.6973 68.6083 42.0463 68.4896 41.0926C68.4472 40.7567 68.4472 40.4208 68.4472 40.085C68.4472 39.3635 68.4514 38.642 68.4472 37.9163C68.4472 37.7131 68.515 37.6261 68.7312 37.6343C69.0577 37.6468 69.3884 37.6468 69.7149 37.6343C69.9184 37.6261 69.9905 37.7007 69.9862 37.8997C69.9777 38.7415 69.9862 39.5874 69.9862 40.4291C69.9862 40.566 69.9947 40.7028 70.0201 40.8355C70.1473 41.5155 70.7239 41.8307 71.3853 41.5736C71.8263 41.3994 71.9365 41.018 71.9407 40.6116C71.9535 39.7367 71.9408 38.8617 71.945 37.9868C71.945 37.6426 71.945 37.6385 72.3011 37.6385C72.6234 37.6385 72.9413 37.6385 73.2636 37.6385C73.3865 37.6385 73.4798 37.6717 73.4798 37.8085C73.4586 38.9405 73.5858 40.0767 73.4077 41.1963C73.2508 42.2039 72.5894 42.7885 71.5507 42.9503C71.4701 42.9627 71.3896 42.9834 71.3133 43H70.5755H70.5671Z" fill="white"/>
<path id="Vector_3" d="M79 39.8652C78.8601 40.3711 78.6015 40.794 78.1139 41.0594C77.7535 41.2543 77.3719 41.358 76.9607 41.3704C76.7232 41.3787 76.4858 41.3828 76.2484 41.3704C76.0618 41.3621 75.9813 41.4285 75.9855 41.6192C75.994 41.9551 75.9855 42.2951 75.9855 42.631C75.9898 42.83 75.905 42.9046 75.7057 42.9005C75.3792 42.8922 75.0485 42.8963 74.7221 42.9005C74.544 42.9005 74.4507 42.8466 74.4507 42.6517C74.455 41.0636 74.455 39.4754 74.4507 37.8831C74.4507 37.6924 74.5313 37.6343 74.7178 37.6343C75.4216 37.6426 76.1297 37.6343 76.8377 37.6343C78.0037 37.6426 78.5803 38.0324 78.9958 39.0898V39.861L79 39.8652ZM75.994 39.5003C75.994 39.7284 75.994 39.8901 75.994 40.0518C75.994 40.1472 76.011 40.2342 76.1339 40.2384C76.4604 40.2467 76.7911 40.2674 77.1048 40.143C77.3634 40.0435 77.5118 39.8113 77.5076 39.5376C77.5034 39.2598 77.3465 39.0566 77.0751 38.9571C76.9479 38.9115 76.8208 38.899 76.6893 38.9032C75.8668 38.9156 76.011 38.7912 75.994 39.5003Z" fill="white"/>
<path id="Vector_4" d="M52.8744 16.7646C52.8066 20.6541 51.4922 24.2409 48.7491 27.2886C46.1331 30.1912 42.8558 31.9577 38.9297 32.4843C35.1691 32.9902 31.6373 32.2604 28.432 30.27C24.2855 27.6991 21.7628 24.0128 20.9488 19.2816C20.139 14.5545 21.2795 10.2586 24.3237 6.4977C26.8803 3.34216 30.2339 1.38912 34.3169 0.779573C39.146 0.0580692 43.4663 1.27716 47.1761 4.38709C50.2203 6.93724 52.0095 10.2047 52.6624 14.0652C52.8066 14.907 52.8617 15.757 52.8744 16.7563V16.7646ZM34.1261 16.5366C34.1261 18.784 34.1091 21.0356 34.1303 23.283C34.143 24.6556 35.3429 25.7917 36.7505 25.8249C38.3659 25.8581 39.6336 24.639 39.6336 23.0384C39.6336 18.7425 39.6336 14.4425 39.6336 10.1467C39.6336 9.47494 39.4385 8.8654 39.0188 8.32634C38.3786 7.50117 37.1321 6.94139 35.9746 7.36434C34.9019 7.75826 34.1345 8.741 34.1303 9.86472C34.1176 12.0914 34.1261 14.314 34.1303 16.5407L34.1261 16.5366Z" fill="white"/>
<path id="Vector_5" d="M53.8241 0.128532C55.4522 0.128532 57.0803 0.136826 58.7041 0.120239C58.984 0.120239 59.1281 0.211464 59.2595 0.443672C60.5103 2.60404 61.7695 4.76026 63.0245 6.91648C63.1813 7.18601 63.1856 7.18601 63.3425 6.92062C64.6356 4.74782 65.9287 2.57501 67.2134 0.39806C67.3321 0.199024 67.4635 0.124386 67.701 0.124386C70.8808 0.132679 74.0606 0.128532 77.2405 0.128532C77.5754 0.128532 77.5754 0.128532 77.4058 0.422939C74.4719 5.43615 71.5422 10.4494 68.604 15.4584C68.4344 15.7445 68.3836 15.956 68.5744 16.2753C71.7881 21.6576 74.9849 27.0523 78.1817 32.4428C78.275 32.6004 78.487 32.7828 78.4064 32.9238C78.3132 33.0814 78.046 32.986 77.8553 32.986C74.6754 32.9902 71.4956 32.986 68.3157 32.9943C68.0656 32.9943 67.9214 32.9321 67.79 32.7082C66.2722 30.1249 64.7373 27.5498 63.211 24.9707C63.0626 24.7177 63.0542 24.7177 62.9142 24.9582C61.3879 27.5664 59.8658 30.1746 58.3437 32.7828C58.2462 32.9487 58.136 33.0233 57.9367 33.0233C54.706 33.0233 51.4795 33.0233 48.2488 33.0233C47.9817 33.0233 47.9647 32.9943 48.0919 32.7745C50.6782 28.3543 53.2687 23.934 55.855 19.5179C56.4994 18.4149 57.1439 17.3119 57.7926 16.2172C57.8901 16.0555 57.8731 15.927 57.7841 15.7736C56.2069 13.1198 54.6339 10.4659 53.061 7.81214C51.594 5.33663 50.127 2.86527 48.6643 0.389767C48.5202 0.145119 48.5286 0.136826 48.8212 0.136826C50.4874 0.136826 52.1579 0.136826 53.8241 0.136826V0.128532Z" fill="white"/>
<path id="Vector_6" d="M0.0847973 16.5573C0.0847973 11.2165 0.0847973 5.87154 0.0847973 0.530754C0.0847973 0.443676 0.0847973 0.352451 0.0847973 0.265373C0.0805575 0.132683 0.148394 0.0787773 0.279828 0.0829238C0.351904 0.0829238 0.42822 0.0829238 0.500297 0.0829238C6.99141 0.0829238 13.4868 0.0829238 19.9779 0.0829238C20.4061 0.0829238 20.3976 0.0829238 20.4231 0.510021C20.5121 1.86181 20.6139 3.21774 20.7071 4.56952C20.7792 5.64348 20.847 6.71745 20.9191 7.78726C20.9403 8.12314 20.9658 8.45901 20.9997 8.79488C21.0294 9.09343 21.0082 9.12246 20.6902 9.12246C17.15 9.12246 13.6055 9.12246 10.0653 9.12246C9.80522 9.12246 9.6752 9.24962 9.6752 9.50395C9.6752 10.6857 9.68368 11.8675 9.67096 13.0451C9.67096 13.2939 9.75576 13.3561 9.99743 13.3561C12.8169 13.3478 15.6363 13.352 18.4558 13.352C18.7554 13.352 18.9052 13.5012 18.9052 13.7998C18.9052 16.5407 18.9052 19.2774 18.9052 22.0183C18.9052 22.2782 18.7667 22.4081 18.4897 22.4081C15.6618 22.4081 12.8338 22.4081 10.0101 22.4081C9.7501 22.4081 9.61867 22.538 9.61584 22.7979C9.61584 26.0737 9.61584 29.3536 9.61584 32.6294C9.61584 32.8948 9.48158 33.0275 9.21306 33.0275C6.29609 33.0275 3.37911 33.0275 0.462139 33.0275C0.213404 33.0275 0.089037 32.9031 0.089037 32.6543C0.089037 27.2886 0.089037 21.9229 0.089037 16.5531L0.0847973 16.5573Z" fill="white"/>
<path id="Vector_7" d="M20.5587 40.0186C20.3849 40.4996 20.2153 40.9641 20.0457 41.4285C19.8973 41.8431 19.7405 42.2578 19.6048 42.6807C19.5412 42.8881 19.4225 42.9627 19.2105 42.9503C18.9476 42.9378 18.6848 42.942 18.4219 42.9503C18.2481 42.9544 18.1505 42.8922 18.0954 42.7263C17.5485 41.1009 16.9973 39.4754 16.4461 37.8541C16.391 37.6924 16.4334 37.6344 16.6073 37.6385C16.9761 37.6426 17.3492 37.6509 17.7181 37.6385C17.9216 37.6302 18.0064 37.709 18.0615 37.8956C18.3074 38.729 18.5703 39.5584 18.8289 40.3877C18.8416 40.4333 18.8586 40.4789 18.8798 40.5411C18.9773 40.4789 18.9815 40.3835 19.007 40.3089C19.2868 39.4962 19.5709 38.6793 19.8422 37.8624C19.9058 37.6675 20.0076 37.5887 20.2153 37.6012C20.4612 37.6136 20.7071 37.6136 20.953 37.6012C21.1608 37.5929 21.2625 37.6717 21.3261 37.8624C21.5932 38.671 21.8731 39.4796 22.1529 40.284C22.1826 40.3628 22.1868 40.4582 22.2886 40.5411C22.3691 40.2757 22.4454 40.0269 22.5218 39.7781C22.7083 39.1437 22.8991 38.5134 23.0772 37.879C23.1281 37.7007 23.2171 37.6302 23.4079 37.6385C23.7513 37.6509 24.099 37.6509 24.4424 37.6385C24.6756 37.6302 24.7053 37.7131 24.6332 37.9122C24.3745 38.6503 24.1286 39.3884 23.8785 40.1306C23.5902 40.9848 23.2976 41.839 23.0178 42.6932C22.9542 42.8881 22.8567 42.9668 22.649 42.9586C22.403 42.9461 22.1571 42.9461 21.9112 42.9586C21.6908 42.971 21.589 42.8756 21.5254 42.6766C21.2583 41.8763 20.9742 41.0802 20.6944 40.2799C20.6647 40.2011 20.6605 40.1057 20.563 40.0228L20.5587 40.0186Z" fill="white"/>
<path id="Vector_8" d="M1.66624 40.172C1.60264 40.2508 1.63232 40.342 1.63232 40.425C1.63232 41.1548 1.62384 41.8887 1.63232 42.6185C1.63232 42.8424 1.55176 42.9171 1.33129 42.9088C1.01331 42.8963 0.691084 42.9005 0.36886 42.9088C0.203508 42.9088 0.131432 42.8466 0.131432 42.6807C0.131432 41.076 0.131432 39.4671 0.131432 37.8624C0.131432 37.6924 0.211988 37.6385 0.3731 37.6426C0.699563 37.6468 1.03027 37.6509 1.36097 37.6426C1.52632 37.6385 1.61112 37.7338 1.70015 37.8417C2.29796 38.5963 2.90001 39.351 3.49782 40.1057C3.54446 40.1679 3.57414 40.2467 3.66742 40.2715C3.71829 40.1969 3.69285 40.114 3.69285 40.0352C3.69285 39.3676 3.69285 38.7 3.69285 38.0365C3.69285 37.7767 3.82994 37.6454 4.10411 37.6426C4.35002 37.6426 4.59593 37.6426 4.84184 37.6426C5.21494 37.6426 5.21494 37.6426 5.21494 37.9992C5.21494 38.9239 5.21494 39.8486 5.21494 40.7691C5.21494 41.3787 5.20646 41.9882 5.21494 42.6019C5.21494 42.8258 5.14286 42.9254 4.9012 42.9129C4.64681 42.9005 4.39242 42.9005 4.13803 42.9129C3.95572 42.9212 3.83277 42.8507 3.72253 42.7097C3.0908 41.9094 2.4506 41.1133 1.81463 40.3172C1.77223 40.2633 1.74255 40.1886 1.65352 40.1803L1.66624 40.172Z" fill="white"/>
<path id="Vector_9" d="M31.6119 40.2467C31.6119 39.4837 31.6119 38.7208 31.6119 37.9578C31.6119 37.6509 31.6288 37.6385 31.9256 37.6385C32.8372 37.6385 33.7487 37.6136 34.6603 37.6509C35.5252 37.6883 36.229 38.2646 36.3689 39.0069C36.5131 39.7989 36.3053 40.5162 35.4998 40.9558C35.3599 41.0304 35.3514 41.0884 35.4362 41.2087C35.7711 41.6773 36.0976 42.15 36.424 42.6227C36.4622 42.6807 36.5385 42.7388 36.5004 42.8134C36.4622 42.8922 36.3689 42.8632 36.3011 42.8632C35.8898 42.8632 35.4786 42.8632 35.0673 42.8632C34.9062 42.8632 34.8087 42.8051 34.7239 42.6766C34.4653 42.2868 34.1981 41.9012 33.931 41.5114C33.8038 41.3248 33.435 41.2253 33.2357 41.3207C33.1424 41.3663 33.1467 41.4492 33.1467 41.528C33.1467 41.8721 33.1382 42.2205 33.1467 42.5646C33.1552 42.7761 33.0916 42.8756 32.8541 42.8632C32.5361 42.8466 32.2139 42.8507 31.8917 42.8632C31.6712 42.8715 31.6034 42.7844 31.6076 42.5812C31.6161 41.8017 31.6076 41.0221 31.6076 40.2425L31.6119 40.2467ZM33.1467 39.5045C33.1467 39.6579 33.1467 39.8072 33.1467 39.9606C33.1467 40.056 33.1721 40.143 33.2908 40.143C33.6724 40.1389 34.0625 40.1886 34.4398 40.0891C34.7281 40.0103 34.902 39.7823 34.8935 39.5045C34.8892 39.2557 34.7112 39.0483 34.4398 38.9695C34.2151 38.9032 33.9862 38.9115 33.7572 38.9115C33.3474 38.9115 33.1439 39.1091 33.1467 39.5045Z" fill="white"/>
<path id="Vector_10" d="M56.3595 40.2342C56.3595 39.4547 56.3595 38.6793 56.3595 37.8997C56.3595 37.7463 56.385 37.6343 56.5842 37.6385C57.5212 37.6426 58.4582 37.6053 59.391 37.6551C60.0821 37.6924 60.6883 37.9992 60.9851 38.6585C61.2862 39.3261 61.2098 39.973 60.7392 40.5618C60.612 40.7235 60.4467 40.8479 60.2644 40.935C60.0693 41.0262 60.0948 41.1174 60.2008 41.2667C60.5272 41.7187 60.8452 42.179 61.1632 42.6351C61.2014 42.6931 61.2777 42.7512 61.231 42.8258C61.1929 42.888 61.1123 42.8632 61.0487 42.8632C60.629 42.8632 60.2093 42.8632 59.7938 42.8632C59.6454 42.8632 59.5478 42.8134 59.4673 42.6931C59.2044 42.2951 58.9331 41.9053 58.6617 41.5114C58.5345 41.3248 58.1869 41.2336 57.9876 41.3248C57.8816 41.3704 57.8901 41.4658 57.8901 41.5528C57.8901 41.9053 57.8816 42.2578 57.8901 42.6102C57.8901 42.7927 57.8265 42.8714 57.6315 42.8673C57.2965 42.859 56.9573 42.8549 56.6224 42.8673C56.4146 42.8756 56.3553 42.7844 56.3553 42.5936C56.3638 41.8058 56.3553 41.0221 56.3553 40.2342H56.3595ZM57.8943 39.5086C57.8943 39.662 57.8943 39.8113 57.8943 39.9647C57.8943 40.0642 57.9325 40.143 58.047 40.143C58.4243 40.143 58.8016 40.1845 59.1705 40.0891C59.4758 40.0103 59.6199 39.8154 59.6157 39.5086C59.6114 39.2183 59.4588 39.04 59.162 38.9612C58.9458 38.9073 58.7253 38.9073 58.5049 38.9073C57.8053 38.9198 57.9028 38.812 57.8986 39.5086H57.8943Z" fill="white"/>
<path id="Vector_11" d="M6.26641 40.2342C6.26641 39.4713 6.27065 38.7083 6.26641 37.9453C6.26641 37.7214 6.33001 37.6343 6.57167 37.6343C7.82241 37.6426 9.06891 37.6426 10.3196 37.6343C10.5528 37.6343 10.6249 37.7173 10.6122 37.9329C10.5995 38.1568 10.5995 38.3849 10.6122 38.6088C10.6249 38.8286 10.5316 38.9073 10.3112 38.9032C9.58616 38.8949 8.8654 38.9032 8.1404 38.9032C7.80121 38.9032 7.79697 38.9073 7.79273 39.2391C7.79273 39.3013 7.79697 39.3676 7.79273 39.4298C7.77577 39.6123 7.86481 39.6662 8.04288 39.6662C8.70853 39.662 9.37417 39.6662 10.0398 39.6662C10.3451 39.6662 10.3578 39.6786 10.3578 39.9772C10.3578 40.1679 10.3493 40.3628 10.3578 40.5535C10.3705 40.7609 10.29 40.8396 10.0737 40.8355C9.42505 40.8272 8.77636 40.8355 8.12768 40.8355C7.79697 40.8355 7.79273 40.8396 7.79273 41.1548C7.79273 41.188 7.79273 41.217 7.79273 41.2502C7.79273 41.6026 7.79273 41.6026 8.14463 41.6026C8.88236 41.6026 9.62432 41.6109 10.362 41.6026C10.5868 41.6026 10.6758 41.6731 10.6588 41.897C10.6461 42.1292 10.6461 42.3614 10.6588 42.5936C10.6715 42.8051 10.5868 42.8756 10.3748 42.8715C9.29786 42.8632 8.22095 42.8715 7.14404 42.8715C6.97021 42.8715 6.80062 42.8715 6.62679 42.8715C6.38654 42.8715 6.265 42.7484 6.26217 42.5024C6.26217 41.7477 6.26217 40.9931 6.26217 40.2384L6.26641 40.2342Z" fill="white"/>
<path id="Vector_12" d="M30.7427 40.2881C30.73 41.5196 29.6361 42.7056 28.3218 42.9046C26.6768 43.1575 25.1589 42.0753 24.9724 40.454C24.8748 39.6122 25.2649 38.8949 25.9051 38.3434C27.6095 36.863 30.2339 37.7255 30.6961 39.9066C30.7215 40.031 30.73 40.1596 30.7427 40.2881ZM29.191 40.284C29.191 39.4795 28.6143 38.8783 27.8512 38.8824C27.0753 38.8866 26.4944 39.4712 26.4902 40.2425C26.4902 41.0469 27.0668 41.6482 27.8554 41.6482C28.6355 41.6482 29.191 41.0801 29.191 40.284Z" fill="white"/>
<path id="Vector_13" d="M67.6204 40.2384C67.6162 41.5238 66.5223 42.7097 65.208 42.9088C63.5629 43.1576 62.0663 42.0711 61.8543 40.454C61.7865 39.9315 61.9772 39.4547 62.2359 39.0068C62.8337 37.9826 64.0844 37.4353 65.2885 37.6592C66.4757 37.879 67.4296 38.8493 67.6034 40.0062C67.6162 40.1015 67.6162 40.1969 67.6204 40.2384ZM66.0771 40.2923C66.0771 39.4837 65.5132 38.8866 64.7458 38.8824C63.9657 38.8824 63.3764 39.4754 63.3764 40.2591C63.3764 41.0511 63.9615 41.6441 64.7331 41.6482C65.5132 41.6482 66.0771 41.0843 66.0771 40.2923Z" fill="white"/>
<path id="Vector_14" d="M38.8704 39.6288C39.1969 39.2556 39.5148 38.8907 39.8328 38.5258C40.0491 38.277 40.2695 38.0241 40.4858 37.7712C40.5748 37.6675 40.6765 37.6343 40.8122 37.6343C41.2489 37.6343 41.6814 37.6343 42.1181 37.6343C42.1817 37.6343 42.2622 37.6053 42.2961 37.6758C42.3301 37.7463 42.2537 37.7919 42.2156 37.8375C41.6644 38.4512 41.1132 39.0732 40.5493 39.6744C40.4052 39.832 40.401 39.9357 40.5197 40.1057C41.1175 40.9433 41.7026 41.785 42.2919 42.6268C42.3385 42.6973 42.4445 42.7636 42.3937 42.8549C42.3428 42.9378 42.2283 42.8963 42.1393 42.8963C41.7365 42.8963 41.3337 42.8922 40.9309 42.9005C40.7444 42.9005 40.6257 42.8383 40.5239 42.689C40.1762 42.1748 39.8116 41.6689 39.464 41.1506C39.3664 41.0055 39.3028 40.9848 39.1714 41.1216C38.9382 41.3621 38.7602 41.6067 38.811 41.9675C38.845 42.1956 38.811 42.4319 38.8195 42.6641C38.8195 42.8258 38.7602 42.9005 38.5906 42.8963C38.2302 42.8922 37.8656 42.8922 37.5052 42.8963C37.3313 42.8963 37.2762 42.8217 37.2762 42.66C37.2762 41.0635 37.2762 39.463 37.2762 37.8665C37.2762 37.6924 37.3398 37.6219 37.5221 37.626C37.8656 37.6343 38.2132 37.6343 38.5566 37.626C38.7559 37.6219 38.811 37.7131 38.811 37.8873C38.8068 38.4097 38.811 38.9322 38.811 39.4547C38.811 39.5003 38.8026 39.55 38.8746 39.6205L38.8704 39.6288Z" fill="white"/>
<path id="Vector_15" d="M45.0393 42.9585C44.1701 42.9792 43.4324 42.7263 42.7583 42.2702C42.5717 42.1458 42.5632 42.0504 42.7116 41.8928C42.8982 41.6897 43.0678 41.4699 43.2331 41.2543C43.3264 41.134 43.407 41.1216 43.5384 41.217C43.9836 41.5445 44.5008 41.6897 45.052 41.7311C45.069 41.7311 45.0859 41.7311 45.1029 41.7311C45.4081 41.7353 45.6583 41.6109 45.6965 41.4326C45.7346 41.2543 45.5989 41.1133 45.247 41.0096C44.8697 40.8977 44.4881 40.8064 44.1065 40.6986C43.9793 40.6613 43.8564 40.6157 43.7377 40.5618C43.178 40.3213 42.8092 39.9481 42.7922 39.3054C42.771 38.6046 43.072 38.078 43.7122 37.7877C44.5814 37.398 45.4717 37.4602 46.3451 37.8085C46.5487 37.8914 46.7352 38.0116 46.9302 38.1153C47.0744 38.1941 47.1041 38.2812 46.9896 38.4222C46.8242 38.6295 46.6674 38.8493 46.5232 39.0732C46.413 39.2432 46.3155 39.2764 46.1289 39.1603C45.7134 38.8907 45.247 38.7788 44.7467 38.8036C44.5644 38.8119 44.3906 38.8493 44.3524 39.0566C44.3185 39.2639 44.4627 39.3717 44.6365 39.4215C45.0774 39.55 45.5226 39.662 45.9636 39.7905C46.2731 39.8818 46.5656 40.0103 46.8073 40.2259C47.4644 40.8189 47.3881 41.9758 46.6504 42.5148C46.1586 42.8756 45.5947 42.9751 45.0393 42.9585Z" fill="white"/>
<path id="Vector_16" d="M13.6182 37.6385C14.3008 37.6385 14.9834 37.6468 15.6618 37.6385C15.8907 37.6385 15.9925 37.7007 15.9798 37.937C15.9628 38.1858 15.9671 38.4346 15.9798 38.6834C15.9882 38.8825 15.8992 38.9571 15.6999 38.953C15.3565 38.9447 15.0089 38.9612 14.6654 38.9488C14.4322 38.9405 14.3475 39.0152 14.3517 39.2515C14.3602 40.3586 14.3559 41.4658 14.3517 42.5771C14.3517 42.9088 14.3475 42.9129 14.0083 42.9129C13.72 42.9129 13.4317 42.9129 13.1476 42.9129C12.8508 42.9129 12.8254 42.8881 12.8254 42.5978C12.8254 41.5072 12.8254 40.4126 12.8254 39.322C12.8254 38.9571 12.8254 38.9571 12.4565 38.9571C12.1428 38.9571 11.8333 38.953 11.5195 38.9571C11.3287 38.9571 11.227 38.899 11.2354 38.6917C11.2439 38.4263 11.2439 38.161 11.2354 37.8956C11.2312 37.709 11.3075 37.6385 11.4983 37.6426C12.2064 37.6509 12.9102 37.6426 13.6182 37.6426V37.6385Z" fill="white"/>
</g>
</g>
</g>
<defs>
<clipPath id="clip0_126_17210">
<rect width="79" height="43" fill="white"/>
</clipPath>
</defs>
</svg>
