<svg xmlns="http://www.w3.org/2000/svg" width="25" height="25" viewBox="0 0 25 25" fill="none">
  <g clip-path="url(#clip0_1081_527)">
    <path d="M13.9712 15.5V11.5V7.5" stroke="#667185" stroke-width="1.5" stroke-linecap="round"/>
    <circle cx="11.9712" cy="15.5" r="2" stroke="#667185" stroke-width="1.5"/>
    <path d="M16.9712 10.5C15.3143 10.5 13.9712 9.15685 13.9712 7.5" stroke="#667185" stroke-width="1.5" stroke-linecap="round"/>
    <path d="M14.9712 22.3C14.325 22.4311 13.6561 22.5 12.9712 22.5C7.44834 22.5 2.97119 18.0228 2.97119 12.5C2.97119 6.97715 7.44834 2.5 12.9712 2.5C18.494 2.5 22.9712 6.97715 22.9712 12.5C22.9712 13.1849 22.9023 13.8538 22.7712 14.5" stroke="#667185" stroke-width="1.5" stroke-linecap="round"/>
    <path d="M16.4346 19.2183H19.9346M19.9346 19.2183H23.4346M19.9346 19.2183V22.7183M19.9346 19.2183V15.7183" stroke="#667185" stroke-width="1.5" stroke-linecap="round"/>
  </g>
  <defs>
    <clipPath id="clip0_1081_527">
      <rect width="24" height="24" fill="white" transform="translate(0.971191 0.5)"/>
    </clipPath>
  </defs>
</svg>