<svg width="25" height="25" viewBox="0 0 25 25" fill="none" xmlns="http://www.w3.org/2000/svg">
<g id="20px / chat, support">
<path id="Vector" d="M18.3544 8.56534V11.0126C18.3544 12.3107 17.8387 13.5557 16.9208 14.4736C16.0029 15.3915 14.7579 15.9072 13.4598 15.9072H12.0257L9.86475 18.0693C10.2074 18.2517 10.5977 18.3545 11.0125 18.3545H13.4598L17.1307 22.0254V18.3545H19.578C20.2271 18.3545 20.8495 18.0966 21.3085 17.6377C21.7674 17.1787 22.0253 16.5562 22.0253 15.9072V11.0126C22.0253 10.3636 21.7674 9.74108 21.3085 9.28213C20.8495 8.82318 20.2271 8.56534 19.578 8.56534H18.3544Z" fill="#EFA705"/>
<path id="Vector_2" d="M3.32129 6.9924C3.32129 6.34334 3.57913 5.72086 4.03808 5.26191C4.49703 4.80296 5.11951 4.54512 5.76857 4.54512H14.334C14.9831 4.54512 15.6056 4.80296 16.0645 5.26191C16.5235 5.72086 16.7813 6.34334 16.7813 6.9924V11.887C16.7813 12.536 16.5235 13.1585 16.0645 13.6174C15.6056 14.0764 14.9831 14.3342 14.334 14.3342H11.8868L8.21585 18.0051V14.3342H5.76857C5.11951 14.3342 4.49703 14.0764 4.03808 13.6174C3.57913 13.1585 3.32129 12.536 3.32129 11.887V6.9924Z" fill="#013131"/>
</g>
</svg>
