<svg xmlns="http://www.w3.org/2000/svg" width="20" height="20" viewBox="0 0 20 20" fill="none">
  <path d="M10.4613 13.7551C10.3429 13.8846 10.1755 13.9583 10 13.9583C9.82453 13.9583 9.65714 13.8846 9.53873 13.7551L6.2054 10.1092C5.97248 9.85448 5.99019 9.45915 6.24494 9.22623C6.49969 8.99332 6.89502 9.01102 7.12794 9.26577L9.375 11.7235V2.5C9.375 2.15482 9.65482 1.875 10 1.875C10.3452 1.875 10.625 2.15482 10.625 2.5V11.7235L12.8721 9.26577C13.105 9.01102 13.5003 8.99332 13.7551 9.22623C14.0098 9.45915 14.0275 9.85448 13.7946 10.1092L10.4613 13.7551Z" fill="#1671D9"/>
  <path d="M3.125 12.5C3.125 12.1548 2.84518 11.875 2.5 11.875C2.15482 11.875 1.875 12.1548 1.875 12.5V12.5457C1.87498 13.6854 1.87497 14.604 1.9721 15.3265C2.07295 16.0765 2.2887 16.7081 2.79029 17.2097C3.29189 17.7113 3.92345 17.927 4.67354 18.0279C5.39602 18.125 6.31462 18.125 7.45428 18.125H12.5457C13.6854 18.125 14.604 18.125 15.3265 18.0279C16.0766 17.927 16.7081 17.7113 17.2097 17.2097C17.7113 16.7081 17.9271 16.0765 18.0279 15.3265C18.125 14.604 18.125 13.6854 18.125 12.5457V12.5C18.125 12.1548 17.8452 11.875 17.5 11.875C17.1548 11.875 16.875 12.1548 16.875 12.5C16.875 13.6962 16.8737 14.5304 16.789 15.1599C16.7068 15.7714 16.5565 16.0952 16.3258 16.3258C16.0952 16.5565 15.7714 16.7068 15.1599 16.789C14.5304 16.8737 13.6962 16.875 12.5 16.875H7.5C6.30382 16.875 5.46956 16.8737 4.8401 16.789C4.22862 16.7068 3.90481 16.5565 3.67418 16.3258C3.44354 16.0952 3.29317 15.7714 3.21096 15.1599C3.12633 14.5304 3.125 13.6962 3.125 12.5Z" fill="#1671D9"/>
</svg>