<svg xmlns="http://www.w3.org/2000/svg" width="20" height="20" viewBox="0 0 20 20" fill="none">
  <path d="M2.72916 12.7466C2.02088 11.8264 1.66675 11.3663 1.66675 10.0002C1.66675 8.63402 2.02088 8.17393 2.72916 7.25377C4.14338 5.41646 6.51518 3.3335 10.0001 3.3335C13.485 3.3335 15.8568 5.41646 17.271 7.25377C17.9793 8.17393 18.3334 8.63402 18.3334 10.0002C18.3334 11.3663 17.9793 11.8264 17.271 12.7466C15.8568 14.5839 13.485 16.6668 10.0001 16.6668C6.51518 16.6668 4.14339 14.5839 2.72916 12.7466Z" stroke="#013131" stroke-width="1.5"/>
  <path d="M12.5 10C12.5 11.3807 11.3807 12.5 10 12.5C8.61929 12.5 7.5 11.3807 7.5 10C7.5 8.61929 8.61929 7.5 10 7.5C11.3807 7.5 12.5 8.61929 12.5 10Z" stroke="#013131" stroke-width="1.5"/>
</svg>