<svg width="57" height="57" viewBox="0 0 57 57" fill="none" xmlns="http://www.w3.org/2000/svg">
<circle cx="28.5" cy="28.5" r="28" fill="#F0F2F5"/>
<path d="M21.5 25.5834C21.5 22.0395 24.3729 19.1667 27.9167 19.1667C31.0558 19.1667 33.6707 21.4221 34.2249 24.4012C34.3026 24.8189 34.6013 25.1614 35.0046 25.2951C37.3272 26.0654 39 28.2556 39 30.8334C39 34.055 36.3884 36.6667 33.1667 36.6667C32.5224 36.6667 32 37.189 32 37.8334C32 38.4777 32.5224 39 33.1667 39C37.677 39 41.3334 35.3437 41.3334 30.8334C41.3334 27.4588 39.2873 24.5648 36.3707 23.3195C35.3727 19.5844 31.9671 16.8334 27.9167 16.8334C23.0842 16.8334 19.1667 20.7509 19.1667 25.5834C19.1667 25.7004 19.169 25.8169 19.1736 25.9328C17.0789 27.1413 15.6667 29.4047 15.6667 32C15.6667 35.866 18.8007 39 22.6667 39C23.311 39 23.8334 38.4777 23.8334 37.8334C23.8334 37.189 23.311 36.6667 22.6667 36.6667C20.0894 36.6667 18 34.5774 18 32C18 30.0665 19.1762 28.4049 20.8568 27.697C21.3431 27.4921 21.6313 26.9864 21.5597 26.4635C21.5204 26.1763 21.5 25.8826 21.5 25.5834Z" fill="#475367"/>
<path d="M27.7249 31.1281C28.167 30.7351 28.8331 30.7351 29.2751 31.1281L31.0251 32.6836C31.5067 33.1117 31.5501 33.8491 31.122 34.3307C30.7475 34.752 30.1363 34.8379 29.6667 34.5662V40.1667C29.6667 40.811 29.1444 41.3334 28.5 41.3334C27.8557 41.3334 27.3334 40.811 27.3334 40.1667V34.5662C26.8638 34.8379 26.2525 34.752 25.878 34.3307C25.45 33.8491 25.4934 33.1117 25.9749 32.6836L27.7249 31.1281Z" fill="#475367"/>
</svg>
