<svg width="23" height="22" viewBox="0 0 23 22" fill="none" xmlns="http://www.w3.org/2000/svg">
<g id="Group">
<path id="Vector" d="M22.0623 11.2638C22.0623 10.5209 21.9904 9.75404 21.8705 9.0351H11.4938V13.2768H17.4371C17.1974 14.6428 16.4066 15.8411 15.2323 16.6079L18.7791 19.3639C20.864 17.4227 22.0623 14.5949 22.0623 11.2638Z" fill="#4280EF"/>
<path id="Vector_2" d="M11.4938 22C14.4654 22 16.9577 21.0174 18.7791 19.3399L15.2323 16.6079C14.2497 17.2789 12.9796 17.6624 11.4938 17.6624C8.61803 17.6624 6.1976 15.7212 5.31091 13.1331L1.66827 15.9369C3.53752 19.6515 7.32394 22 11.4938 22Z" fill="#34A353"/>
<path id="Vector_3" d="M5.31091 13.1091C4.85558 11.7431 4.85558 10.2573 5.31091 8.89131L1.66828 6.06348C0.110574 9.17889 0.110574 12.8455 1.66828 15.9369L5.31091 13.1091Z" fill="#F6B704"/>
<path id="Vector_4" d="M11.4938 4.36199C13.0515 4.33803 14.5852 4.93714 15.7116 6.01555L18.851 2.85222C16.8619 0.98297 14.2258 -0.0235464 11.4938 0.000418253C7.32394 0.000418253 3.53752 2.34896 1.66827 6.06348L5.31091 8.89132C6.1976 6.27917 8.61803 4.36199 11.4938 4.36199Z" fill="#E54335"/>
</g>
</svg>
