<svg width="131" height="36" viewBox="0 0 131 36" fill="none" xmlns="http://www.w3.org/2000/svg">
<g id="Group 20">
<g id="Group">
<path id="Vector" fill-rule="evenodd" clip-rule="evenodd" d="M116.871 0.150036C115.896 0.105943 114.916 0.0838967 113.931 0.0832286C112.951 0.0832286 111.993 0.12799 111.059 0.216844C110.999 0.169411 110.976 0.102603 110.992 0.0164208C112.975 -0.0276723 114.935 0.0170889 116.871 0.150036Z" fill="#DE4146"/>
</g>
<g id="Group_2">
<path id="Vector_2" fill-rule="evenodd" clip-rule="evenodd" d="M0.428838 0.0163574C0.406594 11.6964 0.428838 23.3657 0.495638 35.0236C0.562437 35.0236 0.629236 35.0236 0.696035 35.0236C0.601247 35.0871 0.48996 35.1091 0.362039 35.0904C0.339795 23.3877 0.362039 11.6964 0.428838 0.0163574Z" fill="#EE9EA1"/>
</g>
<g id="Group_3">
<path id="Vector_3" fill-rule="evenodd" clip-rule="evenodd" d="M0.42898 0.0165578C2.17725 -0.00548873 3.91403 0.0165578 5.63932 0.0833656C3.92478 0.0833656 2.21031 0.0833656 0.495779 0.0833656C0.495779 11.73 0.495779 23.3772 0.495779 35.0238C0.42898 23.3659 0.406735 11.6966 0.42898 0.0165578Z" fill="#DA2E34"/>
</g>
<g id="Group_4">
<path id="Vector_4" fill-rule="evenodd" clip-rule="evenodd" d="M5.63969 0.0830078C7.97693 6.62549 10.3149 13.1727 12.6536 19.7245C12.6725 19.7773 12.7059 19.822 12.7538 19.8581C12.7872 13.2662 12.7984 6.67493 12.7872 0.0830078C14.5908 0.0830078 16.3944 0.0830078 18.1979 0.0830078C18.1979 10.9947 18.1979 21.9071 18.1979 32.8188C17.8078 32.8676 17.4293 32.9344 17.0624 33.0192C15.4378 33.1802 13.8124 33.3366 12.186 33.4869C12.085 33.0386 11.9626 32.593 11.8186 32.1507C9.96674 26.6772 8.08521 21.221 6.17409 15.7828C6.18444 15.5677 6.11764 15.39 5.97369 15.2484C5.95111 21.6205 5.88431 27.9893 5.77329 34.3554C4.3663 34.503 2.96352 34.6807 1.56494 34.8899C1.3071 34.9106 1.06221 34.9553 0.830151 35.0235C0.785596 35.0235 0.741107 35.0235 0.696552 35.0235C0.629753 35.0235 0.562954 35.0235 0.496155 35.0235C0.496155 23.3769 0.496155 11.7296 0.496155 0.0830078C2.21069 0.0830078 3.92516 0.0830078 5.63969 0.0830078Z" fill="white"/>
</g>
<g id="Group_5">
<path id="Vector_5" fill-rule="evenodd" clip-rule="evenodd" d="M12.7869 0.0163574C12.7869 0.038404 12.7869 0.0611186 12.7869 0.0831652C12.7981 6.67509 12.7869 13.2663 12.7535 19.8583C12.7056 19.8222 12.6722 19.7774 12.6533 19.7246C12.6979 13.1554 12.7424 6.58557 12.7869 0.0163574Z" fill="#E56F74"/>
</g>
<g id="Group_6">
<path id="Vector_6" fill-rule="evenodd" clip-rule="evenodd" d="M12.7867 0.0831652C12.7867 0.0611186 12.7867 0.038404 12.7867 0.0163574C14.6125 0.0163574 16.4384 0.0163574 18.2642 0.0163574C18.2865 10.9615 18.2642 21.8959 18.1974 32.819C18.1974 21.9073 18.1974 10.9949 18.1974 0.0831652C16.3938 0.0831652 14.5903 0.0831652 12.7867 0.0831652Z" fill="#E1575B"/>
</g>
<g id="Group_7">
<path id="Vector_7" fill-rule="evenodd" clip-rule="evenodd" d="M18.2642 0.0163574C18.331 10.9615 18.3533 21.918 18.331 32.8858C17.9109 32.9553 17.4878 33 17.0619 33.0194C17.4288 32.9346 17.8073 32.8677 18.1974 32.819C18.2642 21.8959 18.2865 10.9615 18.2642 0.0163574Z" fill="#F8D6D8"/>
</g>
<g id="Group_8">
<path id="Vector_8" fill-rule="evenodd" clip-rule="evenodd" d="M23.6068 0.0163574C23.6068 0.038404 23.6068 0.0611186 23.6068 0.0831652C23.5624 10.8619 23.6069 21.618 23.7404 32.3513C23.693 32.4114 23.6262 32.4342 23.54 32.4181C23.5178 21.6066 23.54 10.8058 23.6068 0.0163574Z" fill="#ED999C"/>
</g>
<g id="Group_9">
<path id="Vector_9" fill-rule="evenodd" clip-rule="evenodd" d="M23.6067 0.0830078C28.6389 0.0830078 33.6711 0.0830078 38.7033 0.0830078C38.7033 1.86477 38.7033 3.64587 38.7033 5.42763C35.4747 5.42763 32.246 5.42763 29.0174 5.42763C28.9952 7.91087 29.0175 10.3828 29.0842 12.8433C31.5111 12.8052 33.9381 12.7832 36.3653 12.7765C36.3653 14.5803 36.3653 16.3841 36.3653 18.1879C34.7506 18.1659 33.1475 18.1879 31.5558 18.2547C30.7102 18.2921 29.864 18.3148 29.0174 18.3215C29.0174 21.0386 29.0174 23.755 29.0174 26.4721C29.1064 26.4721 29.1956 26.4721 29.2846 26.4721C29.8561 26.4908 30.4128 26.446 30.9546 26.3385C33.5352 26.1608 36.1181 26.0271 38.7033 25.9376C38.746 27.712 38.702 29.4711 38.5697 31.2154C37.8566 31.2508 37.1441 31.2956 36.4321 31.349C35.7291 31.3831 35.0388 31.4499 34.3613 31.5495C33.2881 31.6042 32.2194 31.6938 31.155 31.8167C30.4951 31.8 29.8493 31.8448 29.2178 31.9503C28.527 31.9877 27.8368 32.0325 27.147 32.0839C26.4647 32.104 25.7967 32.1708 25.1431 32.2844C24.6745 32.2897 24.2069 32.3117 23.7403 32.3512C23.6067 21.6178 23.5622 10.8618 23.6067 0.0830078Z" fill="white"/>
</g>
<g id="Group_10">
<path id="Vector_10" fill-rule="evenodd" clip-rule="evenodd" d="M42.3107 0.0163574C47.9219 0.0163574 53.533 0.0163574 59.1441 0.0163574C59.1441 1.84221 59.1441 3.66874 59.1441 5.49459C57.2517 5.49459 55.3586 5.49459 53.4662 5.49459C53.4662 13.9124 53.4662 22.3302 53.4662 30.7479C51.6406 30.7479 49.8143 30.7479 47.9887 30.7479C47.9887 22.3302 47.9887 13.9124 47.9887 5.49459C46.1076 5.42779 44.2145 5.40574 42.3107 5.42779C42.3107 3.62398 42.3107 1.82017 42.3107 0.0163574Z" fill="white"/>
</g>
<g id="Group_11">
<path id="Vector_11" fill-rule="evenodd" clip-rule="evenodd" d="M77.9811 5.49459C74.6632 5.49459 71.3459 5.49459 68.028 5.49459C68.028 7.83287 68.028 10.1711 68.028 12.5094C70.5443 12.5094 73.06 12.5094 75.5763 12.5094C75.5763 14.3132 75.5763 16.117 75.5763 17.9208C73.06 17.9208 70.5443 17.9208 68.028 17.9208C68.028 22.0629 68.028 26.205 68.028 30.3471C66.2465 30.3471 64.4656 30.3471 62.6841 30.3471C62.6841 20.2371 62.6841 10.1264 62.6841 0.0163574C67.7829 0.0163574 72.8823 0.0163574 77.9811 0.0163574C77.9811 1.84221 77.9811 3.66874 77.9811 5.49459Z" fill="white"/>
</g>
<g id="Group_12">
<path id="Vector_12" fill-rule="evenodd" clip-rule="evenodd" d="M94.0796 25.9378C94.779 26.036 95.4911 26.0807 96.2172 26.0714C96.2172 27.8752 96.2172 29.679 96.2172 31.4828C91.3015 31.1528 86.381 30.9303 81.4546 30.8147C81.4546 20.5484 81.4546 10.2827 81.4546 0.0163574C83.2802 0.0163574 85.1065 0.0163574 86.9321 0.0163574C86.9321 8.54571 86.9321 17.0744 86.9321 25.6037C89.3169 25.6739 91.6989 25.7855 94.0796 25.9378Z" fill="white"/>
</g>
<g id="Group_13">
<path id="Vector_13" fill-rule="evenodd" clip-rule="evenodd" d="M105.849 32.2175C104.204 32.0746 102.556 31.9637 100.906 31.8835C100.906 21.2831 100.906 10.6834 100.906 0.0830078C102.665 0.0830078 104.425 0.0830078 106.183 0.0830078C106.183 10.7943 106.183 21.5063 106.183 32.2175C106.072 32.2175 105.961 32.2175 105.849 32.2175Z" fill="white"/>
</g>
<g id="Group_14">
<path id="Vector_14" fill-rule="evenodd" clip-rule="evenodd" d="M105.849 32.2177C105.961 32.2177 106.071 32.2177 106.183 32.2177C106.183 21.5064 106.183 10.7945 106.183 0.0831652C104.424 0.0831652 102.665 0.0831652 100.906 0.0831652C100.906 10.6836 100.906 21.2833 100.906 31.8837C100.839 21.2726 100.817 10.6502 100.839 0.0163574C102.643 0.0163574 104.446 0.0163574 106.25 0.0163574C106.25 10.7724 106.25 21.5285 106.25 32.2845C106.1 32.3039 105.967 32.2818 105.849 32.2177Z" fill="#E15151"/>
</g>
<g id="Group_15">
<path id="Vector_15" fill-rule="evenodd" clip-rule="evenodd" d="M125.355 34.289C125.083 34.1854 124.793 34.1407 124.486 34.1554C124.204 34.2182 124.037 34.1066 123.985 33.8213C122.741 30.5331 121.472 27.2595 120.178 24.0006C118.808 27.0537 117.482 30.1269 116.203 33.2201C115.627 33.1285 115.048 33.0617 114.466 33.0196C113.975 32.9862 113.486 32.9415 112.997 32.886C112.678 32.7932 112.344 32.7484 111.995 32.7524C111.437 32.6943 110.881 32.6275 110.325 32.552C110.449 32.1471 110.593 31.7463 110.759 31.3494C112.957 26.4083 115.128 21.4532 117.272 16.4847C117.132 15.9756 116.965 15.4746 116.771 14.9815C114.86 10.0591 112.956 5.13741 111.06 0.217022C111.993 0.128168 112.951 0.0834064 113.932 0.0834064C114.917 0.0840744 115.896 0.106121 116.871 0.150214C118.079 3.13853 119.271 6.14488 120.445 9.16926C121.718 6.12216 122.999 3.08241 124.286 0.0500025C126.267 0.0165986 128.249 0.00524127 130.231 0.0165986C127.921 5.55363 125.627 11.1094 123.351 16.6851C125.646 22.8174 127.962 28.9417 130.298 35.0573C128.638 34.8809 126.99 34.6244 125.355 34.289Z" fill="white"/>
</g>
<g id="Group_16">
<path id="Vector_16" fill-rule="evenodd" clip-rule="evenodd" d="M23.6066 0.0831652C23.6066 0.0611186 23.6066 0.038404 23.6066 0.0163574C28.6611 0.0163574 33.7156 0.0163574 38.77 0.0163574C38.77 1.84221 38.77 3.66874 38.77 5.49459C35.5414 5.49459 32.3128 5.49459 29.0842 5.49459C29.0842 7.94444 29.0842 10.3936 29.0842 12.8434C29.0175 10.3829 28.9952 7.91103 29.0174 5.42779C32.246 5.42779 35.4746 5.42779 38.7032 5.42779C38.7032 3.64602 38.7032 1.86493 38.7032 0.0831652C33.6711 0.0831652 28.6388 0.0831652 23.6066 0.0831652Z" fill="#E2585B"/>
</g>
<g id="Group_17">
<path id="Vector_17" fill-rule="evenodd" clip-rule="evenodd" d="M42.3099 0.0163574C42.3099 1.82017 42.3099 3.62398 42.3099 5.42779C44.2137 5.40574 46.1068 5.42779 47.9878 5.49459C46.0954 5.49459 44.2023 5.49459 42.3099 5.49459C42.221 3.66874 42.221 1.84221 42.3099 0.0163574Z" fill="#E6696A"/>
</g>
<g id="Group_18">
<path id="Vector_18" fill-rule="evenodd" clip-rule="evenodd" d="M42.3107 5.49457C44.2032 5.49457 46.0962 5.49457 47.9887 5.49457C47.9887 13.9123 47.9887 22.3301 47.9887 30.7479C47.9219 22.3635 47.8998 13.9678 47.9219 5.56138C46.0401 5.58342 44.1698 5.56138 42.3107 5.49457Z" fill="#F3BEBF"/>
</g>
<g id="Group_19">
<path id="Vector_19" fill-rule="evenodd" clip-rule="evenodd" d="M77.9813 5.49457C74.6974 5.56138 71.4016 5.58342 68.095 5.56138C68.095 7.85489 68.095 10.1491 68.095 12.4426C70.6 12.4205 73.0942 12.4426 75.5765 12.5094C73.0602 12.5094 70.5445 12.5094 68.0282 12.5094C68.0282 10.1711 68.0282 7.83284 68.0282 5.49457C71.3461 5.49457 74.6634 5.49457 77.9813 5.49457Z" fill="#F2B3B6"/>
</g>
<g id="Group_20">
<path id="Vector_20" fill-rule="evenodd" clip-rule="evenodd" d="M5.97318 15.2483C5.97318 21.6171 5.97318 27.9865 5.97318 34.3553C5.90638 34.3553 5.83958 34.3553 5.77278 34.3553C5.8838 27.9892 5.9506 21.6204 5.97318 15.2483Z" fill="#DB2F35"/>
</g>
<g id="Group_21">
<path id="Vector_21" fill-rule="evenodd" clip-rule="evenodd" d="M5.97307 15.2483C6.11702 15.3899 6.18382 15.5676 6.17347 15.7828C6.12216 15.732 6.08876 15.6652 6.07327 15.5823C6.06211 21.8509 6.02871 28.1088 5.97307 34.3553C5.97307 27.9865 5.97307 21.6171 5.97307 15.2483Z" fill="#F1B6B8"/>
</g>
<g id="Group_22">
<path id="Vector_22" fill-rule="evenodd" clip-rule="evenodd" d="M75.5763 17.9209C73.0941 17.9877 70.5998 18.0098 68.0948 17.9877C68.0948 22.1298 68.0948 26.2719 68.0948 30.414C66.2799 30.436 64.4763 30.414 62.6841 30.3471C64.4656 30.3471 66.2465 30.3471 68.028 30.3471C68.028 26.2051 68.028 22.063 68.028 17.9209C70.5443 17.9209 73.06 17.9209 75.5763 17.9209Z" fill="#EB8D91"/>
</g>
<g id="Group_23">
<path id="Vector_23" fill-rule="evenodd" clip-rule="evenodd" d="M36.3651 12.7768C36.4318 14.5913 36.454 16.4171 36.4319 18.255C34.8065 18.255 33.181 18.255 31.5556 18.255C33.1473 18.1882 34.7504 18.1662 36.3651 18.1882C36.3651 16.3844 36.3651 14.5806 36.3651 12.7768Z" fill="#E87779"/>
</g>
<g id="Group_24">
<path id="Vector_24" fill-rule="evenodd" clip-rule="evenodd" d="M38.7031 25.9381C38.7699 27.6858 38.7919 29.4448 38.7699 31.2159C38.7031 31.2159 38.6363 31.2159 38.5695 31.2159C38.7018 29.4716 38.7458 27.7125 38.7031 25.9381Z" fill="#E35E63"/>
</g>
<g id="Group_25">
<path id="Vector_25" fill-rule="evenodd" clip-rule="evenodd" d="M94.0922 25.9377C94.8183 25.9244 95.531 25.9691 96.2297 26.0713C95.5036 26.0807 94.7916 26.0359 94.0922 25.9377Z" fill="#F4BBBD"/>
</g>
<g id="Group_26">
<path id="Vector_26" fill-rule="evenodd" clip-rule="evenodd" d="M30.9544 26.3387C30.4126 26.4462 29.8559 26.491 29.2844 26.4723C29.8284 26.3935 30.3851 26.3494 30.9544 26.3387Z" fill="#EC898B"/>
</g>
<g id="Group_27">
<path id="Vector_27" fill-rule="evenodd" clip-rule="evenodd" d="M36.432 31.3491C36.3579 31.4019 36.2689 31.4353 36.1648 31.4493C35.5655 31.5188 34.9643 31.5522 34.3613 31.5495C35.0387 31.45 35.729 31.3832 36.432 31.3491Z" fill="#F7C6C6"/>
</g>
<g id="Group_28">
<path id="Vector_28" fill-rule="evenodd" clip-rule="evenodd" d="M31.1551 31.8169C30.5234 31.9184 29.8776 31.9632 29.218 31.9505C29.8495 31.8449 30.4952 31.8002 31.1551 31.8169Z" fill="#F9D4D5"/>
</g>
<g id="Group_29">
<path id="Vector_29" fill-rule="evenodd" clip-rule="evenodd" d="M27.1471 32.0842C26.4942 32.2038 25.8262 32.2706 25.1431 32.2846C25.7967 32.171 26.4647 32.1042 27.1471 32.0842Z" fill="#F3B1B2"/>
</g>
<g id="Group_30">
<path id="Vector_30" fill-rule="evenodd" clip-rule="evenodd" d="M111.995 32.7523C112.344 32.7483 112.678 32.793 112.997 32.8859C112.648 32.8899 112.314 32.8451 111.995 32.7523Z" fill="#EB8A8C"/>
</g>
<g id="Group_31">
<path id="Vector_31" fill-rule="evenodd" clip-rule="evenodd" d="M114.466 33.0195C115.048 33.0616 115.627 33.1284 116.203 33.2199C116.151 33.2633 116.085 33.2854 116.002 33.2867C115.477 33.2179 114.965 33.129 114.466 33.0195Z" fill="#E97778"/>
</g>
<g id="Group_32">
<path id="Vector_32" fill-rule="evenodd" clip-rule="evenodd" d="M124.486 34.1549C124.794 34.1402 125.083 34.185 125.355 34.2885C125.048 34.3032 124.758 34.2584 124.486 34.1549Z" fill="#E76B6A"/>
</g>
<g id="Group_33">
<path id="Vector_33" fill-rule="evenodd" clip-rule="evenodd" d="M1.56405 34.8901C1.3406 35.005 1.09572 35.0491 0.829254 35.0238C1.06131 34.9556 1.3062 34.9108 1.56405 34.8901Z" fill="#EF999A"/>
</g>
</g>
</svg>
