<svg width="20" height="20" viewBox="0 0 20 20" fill="none" xmlns="http://www.w3.org/2000/svg">
<path d="M10 20C4.48583 20 0 15.5142 0 10C0 4.48583 4.48583 0 10 0C15.5142 0 20 4.48583 20 10C20 15.5142 15.5142 20 10 20ZM10 0.833333C4.94583 0.833333 0.833333 4.94583 0.833333 10C0.833333 15.0542 4.94583 19.1667 10 19.1667C15.0542 19.1667 19.1667 15.0542 19.1667 10C19.1667 4.94583 15.0542 0.833333 10 0.833333Z" fill="#202020"/>
<path d="M8.88925 13.1192C8.77842 13.1192 8.67258 13.075 8.59425 12.9975L5.86925 10.2725C5.70675 10.11 5.70675 9.84582 5.86925 9.68332C6.03175 9.52082 6.29592 9.52082 6.45842 9.68332L8.88842 12.1133L13.9984 7.00249C14.1609 6.83999 14.4251 6.83999 14.5876 7.00249C14.7501 7.16499 14.7501 7.42916 14.5876 7.59166L9.18342 12.9967C9.10592 13.075 9.00008 13.1192 8.88925 13.1192Z" fill="#202020"/>
</svg>
