<svg width="40" height="44" viewBox="0 0 40 44" fill="none" xmlns="http://www.w3.org/2000/svg">
<g id="Group 1000004094">
<path id="Vector" d="M26.405 9.47145C26.7651 9.89573 27.4079 9.93414 27.8322 9.57412L28.8096 8.72557V14.0232C28.8096 14.576 29.2597 15.0261 29.8125 15.0261C30.3653 15.0261 30.8154 14.576 30.8154 14.0232V8.72557L31.7928 9.57412C32.2171 9.93414 32.847 9.89573 33.22 9.47145C33.58 9.04718 33.5412 8.41688 33.117 8.04428L30.4683 5.75529C30.2755 5.58838 30.044 5.5112 29.8125 5.5112C29.581 5.5112 29.3369 5.58838 29.1567 5.75529L26.5081 8.04428C26.0838 8.4043 26.0321 9.04718 26.405 9.47145Z" fill="#EFA705"/>
<path id="Vector_2" d="M29.8124 23.1269C28.5521 23.1269 27.3436 22.9467 26.1863 22.5996V30.0316C25.8521 29.9674 25.5176 29.9415 25.1705 29.9415C21.9561 29.9415 19.3717 32.6548 19.5774 35.9079C19.7443 38.698 22.0204 40.9741 24.8234 41.1539C28.0894 41.3596 30.7898 38.7752 30.7898 35.5608V23.0882C30.4552 23.114 30.134 23.1269 29.8124 23.1269Z" fill="#013131"/>
<path id="Vector_3" d="M17.1216 12.3776L9.07224 13.869C8.08226 14.0488 7.37514 14.9106 7.37514 15.9135V32.8475C7.04061 32.7833 6.70642 32.7578 6.35932 32.7578C3.14461 32.7578 0.560199 35.4707 0.765877 38.7238C0.933142 41.5139 3.20886 43.79 6.01187 43.9698C9.27791 44.1755 11.9783 41.5911 11.9783 38.3767V21.4811L21.1974 19.7966C19.076 17.8806 17.6101 15.2961 17.1216 12.3776Z" fill="#013131"/>
<g id="Clip path group">
<mask id="mask0_124_3048" style="mask-type:luminance" maskUnits="userSpaceOnUse" x="19" y="0" width="21" height="21">
<g id="d1a65a42de">
<path id="Vector_4" d="M39.6951 20.1392H19.9389V0.393444H39.6951V20.1392Z" fill="white"/>
</g>
</mask>
<g mask="url(#mask0_124_3048)">
<g id="Group">
<path id="Vector_5" d="M29.8216 0.414709C35.2607 0.414709 39.6836 4.83764 39.6836 10.2767C39.6836 15.7158 35.2607 20.1391 29.8216 20.1391C24.3825 20.1391 19.9592 15.7158 19.9592 10.2767C19.9592 4.83764 24.3825 0.414709 29.8216 0.414709ZM29.8216 18.0303C34.1034 18.0303 37.5877 14.5457 37.5877 10.2638C37.5877 5.98196 34.1034 2.49767 29.8216 2.49767C25.5397 2.49767 22.0551 5.98196 22.0551 10.2638C22.0551 14.5457 25.5397 18.0303 29.8216 18.0303Z" fill="#EFA705"/>
</g>
</g>
</g>
</g>
</svg>
