<svg width="107" height="20" viewBox="0 0 107 20" fill="none" xmlns="http://www.w3.org/2000/svg">
<path d="M5.50095 3.5205C5.08061 3.27033 4.54981 3.25488 4.11413 3.4809C3.67947 3.70789 3.40947 4.13965 3.40845 4.60908V15.3906C3.40947 15.86 3.67947 16.2918 4.11413 16.5187C4.54981 16.7448 5.08061 16.7293 5.50095 16.4791L14.5378 11.0884C14.9336 10.8527 15.1729 10.4412 15.1729 9.99982C15.1729 9.5584 14.9336 9.14692 14.5378 8.91124L5.50095 3.5205Z" fill="#013131"/>
<rect x="21.8181" y="5.60352" width="0.96113" height="9.70194" rx="0.480565" fill="#333333"/>
<rect x="21.8181" y="5.60352" width="0.96113" height="9.70194" rx="0.480565" fill="#333333"/>
<rect x="23.679" y="2.16089" width="0.96113" height="16.5872" rx="0.480565" fill="#333333"/>
<rect x="23.679" y="2.16089" width="0.96113" height="16.5872" rx="0.480565" fill="#333333"/>
<rect x="25.5398" y="3.4126" width="0.96113" height="14.0835" rx="0.480565" fill="#333333"/>
<rect x="25.5398" y="3.4126" width="0.96113" height="14.0835" rx="0.480565" fill="#333333"/>
<rect x="27.4009" y="6.85547" width="0.96113" height="7.19821" rx="0.480565" fill="#333333"/>
<rect x="27.4009" y="6.85547" width="0.96113" height="7.19821" rx="0.480565" fill="#333333"/>
<rect x="29.2617" y="5.60352" width="0.96113" height="9.70194" rx="0.480565" fill="#333333"/>
<rect x="29.2617" y="5.60352" width="0.96113" height="9.70194" rx="0.480565" fill="#333333"/>
<rect x="31.1226" y="6.54248" width="0.96113" height="7.82414" rx="0.480565" fill="#333333"/>
<rect x="31.1226" y="6.54248" width="0.96113" height="7.82414" rx="0.480565" fill="#333333"/>
<rect x="32.9834" y="0.908936" width="0.96113" height="19.0909" rx="0.480565" fill="#333333"/>
<rect x="32.9834" y="0.908936" width="0.96113" height="19.0909" rx="0.480565" fill="#333333"/>
<rect x="34.8447" y="5.60352" width="0.96113" height="9.70194" rx="0.480565" fill="#333333"/>
<rect x="34.8447" y="5.60352" width="0.96113" height="9.70194" rx="0.480565" fill="#333333"/>
<rect x="36.7056" y="5.60352" width="0.96113" height="9.70194" rx="0.480565" fill="#333333"/>
<rect x="36.7056" y="5.60352" width="0.96113" height="9.70194" rx="0.480565" fill="#333333"/>
<rect x="38.5662" y="5.60352" width="0.96113" height="9.70194" rx="0.480565" fill="#333333"/>
<rect x="38.5662" y="5.60352" width="0.96113" height="9.70194" rx="0.480565" fill="#333333"/>
<rect x="40.427" y="7.16846" width="0.96113" height="6.57228" rx="0.480565" fill="#333333"/>
<rect x="40.427" y="7.16846" width="0.96113" height="6.57228" rx="0.480565" fill="#333333"/>
<rect x="42.2881" y="6.22974" width="0.96113" height="8.45008" rx="0.480565" fill="#333333"/>
<rect x="42.2881" y="6.22974" width="0.96113" height="8.45008" rx="0.480565" fill="#333333"/>
<rect x="44.1489" y="8.73315" width="0.96113" height="3.44262" rx="0.480565" fill="#333333"/>
<rect x="44.1489" y="8.73315" width="0.96113" height="3.44262" rx="0.480565" fill="#333333"/>
<rect x="46.0098" y="6.22974" width="0.96113" height="8.45008" rx="0.480565" fill="#333333"/>
<rect x="46.0098" y="6.22974" width="0.96113" height="8.45008" rx="0.480565" fill="#333333"/>
<rect x="47.8708" y="1.53491" width="0.96113" height="17.839" rx="0.480565" fill="#333333"/>
<rect x="47.8708" y="1.53491" width="0.96113" height="17.839" rx="0.480565" fill="#333333"/>
<rect x="49.7314" y="4.35156" width="0.96113" height="12.2057" rx="0.480565" fill="#333333"/>
<rect x="49.7314" y="4.35156" width="0.96113" height="12.2057" rx="0.480565" fill="#333333"/>
<rect x="51.5928" y="6.22974" width="0.96113" height="8.45008" rx="0.480565" fill="#333333"/>
<rect x="51.5928" y="6.22974" width="0.96113" height="8.45008" rx="0.480565" fill="#333333"/>
<rect x="53.4539" y="7.79419" width="0.96113" height="5.32042" rx="0.480565" fill="#333333"/>
<rect x="53.4539" y="7.79419" width="0.96113" height="5.32042" rx="0.480565" fill="#333333"/>
<rect x="55.3145" y="4.35156" width="0.96113" height="12.2057" rx="0.480565" fill="#333333"/>
<rect x="55.3145" y="4.35156" width="0.96113" height="12.2057" rx="0.480565" fill="#333333"/>
<rect x="57.1753" y="1.53491" width="0.96113" height="17.839" rx="0.480565" fill="#333333"/>
<rect x="57.1753" y="1.53491" width="0.96113" height="17.839" rx="0.480565" fill="#333333"/>
<rect x="59.0361" y="4.35156" width="0.96113" height="12.2057" rx="0.480565" fill="#333333"/>
<rect x="59.0361" y="4.35156" width="0.96113" height="12.2057" rx="0.480565" fill="#333333"/>
<rect x="60.897" y="4.35156" width="0.96113" height="12.2057" rx="0.480565" fill="#333333"/>
<rect x="60.897" y="4.35156" width="0.96113" height="12.2057" rx="0.480565" fill="#333333"/>
<rect x="62.7583" y="3.4126" width="0.96113" height="14.0835" rx="0.480565" fill="#333333"/>
<rect x="62.7583" y="3.4126" width="0.96113" height="14.0835" rx="0.480565" fill="#333333"/>
<rect x="64.6191" y="1.53491" width="0.96113" height="17.839" rx="0.480565" fill="#333333"/>
<rect x="64.6191" y="1.53491" width="0.96113" height="17.839" rx="0.480565" fill="#333333"/>
<rect x="66.48" y="4.97754" width="0.96113" height="10.9538" rx="0.480565" fill="#333333"/>
<rect x="66.48" y="4.97754" width="0.96113" height="10.9538" rx="0.480565" fill="#333333"/>
<rect x="68.3408" y="6.22974" width="0.96113" height="8.45008" rx="0.480565" fill="#333333"/>
<rect x="68.3408" y="6.22974" width="0.96113" height="8.45008" rx="0.480565" fill="#333333"/>
<rect x="70.2019" y="4.35156" width="0.96113" height="12.2057" rx="0.480565" fill="#333333"/>
<rect x="70.2019" y="4.35156" width="0.96113" height="12.2057" rx="0.480565" fill="#333333"/>
<rect x="72.0625" y="4.35156" width="0.96113" height="12.2057" rx="0.480565" fill="#333333"/>
<rect x="72.0625" y="4.35156" width="0.96113" height="12.2057" rx="0.480565" fill="#333333"/>
<rect x="73.9236" y="5.60352" width="0.96113" height="9.70194" rx="0.480565" fill="#333333"/>
<rect x="73.9236" y="5.60352" width="0.96113" height="9.70194" rx="0.480565" fill="#333333"/>
<g filter="url(#filter0_d_598_1443)">
<path d="M83.6227 5.47273C84.5137 5.47273 85.1882 5.86727 85.6591 6.64364C86.13 7.42 86.3718 8.46364 86.3718 9.8C86.3718 11.1364 86.13 12.1927 85.6591 12.9691C85.1882 13.7455 84.5137 14.1273 83.6227 14.1273C82.7446 14.1273 82.0573 13.7455 81.5864 12.9691C81.1155 12.1927 80.8737 11.1364 80.8737 9.8C80.8737 8.46364 81.1155 7.42 81.5864 6.64364C82.0573 5.86727 82.7446 5.47273 83.6227 5.47273ZM83.6227 6.46545C82.5664 6.46545 82.0955 7.73818 82.0955 9.73636C82.0955 11.7345 82.5664 13.1218 83.6227 13.1218C84.6918 13.1218 85.1627 11.7345 85.1627 9.73636C85.1627 7.73818 84.6918 6.46545 83.6227 6.46545ZM87.7034 8.59091C87.7034 8.19636 88.0216 7.86545 88.4289 7.86545C88.8234 7.86545 89.1543 8.19636 89.1543 8.59091C89.1543 8.99818 88.8362 9.31636 88.4289 9.31636C88.0216 9.31636 87.7034 8.99818 87.7034 8.59091ZM87.7034 13.3382C87.7034 12.9436 88.0216 12.6127 88.4289 12.6127C88.8234 12.6127 89.1543 12.9436 89.1543 13.3382C89.1543 13.7455 88.8362 14.0636 88.4289 14.0636C88.0216 14.0636 87.7034 13.7455 87.7034 13.3382ZM89.8089 6.94909L92.0107 5.6H93.0289V12.2182C93.0289 12.8418 93.0798 13.4782 93.1434 14H91.8834V6.84727L89.898 8.10727H89.8089V6.94909ZM97.4438 5.47273C98.3347 5.47273 99.0092 5.86727 99.4801 6.64364C99.951 7.42 100.193 8.46364 100.193 9.8C100.193 11.1364 99.951 12.1927 99.4801 12.9691C99.0092 13.7455 98.3347 14.1273 97.4438 14.1273C96.5656 14.1273 95.8783 13.7455 95.4074 12.9691C94.9365 12.1927 94.6947 11.1364 94.6947 9.8C94.6947 8.46364 94.9365 7.42 95.4074 6.64364C95.8783 5.86727 96.5656 5.47273 97.4438 5.47273ZM97.4438 6.46545C96.3874 6.46545 95.9165 7.73818 95.9165 9.73636C95.9165 11.7345 96.3874 13.1218 97.4438 13.1218C98.5129 13.1218 98.9838 11.7345 98.9838 9.73636C98.9838 7.73818 98.5129 6.46545 97.4438 6.46545Z" fill="#98A2B3"/>
</g>
<defs>
<filter id="filter0_d_598_1443" x="79.9644" y="4.56357" width="21.1375" height="10.4727" filterUnits="userSpaceOnUse" color-interpolation-filters="sRGB">
<feFlood flood-opacity="0" result="BackgroundImageFix"/>
<feColorMatrix in="SourceAlpha" type="matrix" values="0 0 0 0 0 0 0 0 0 0 0 0 0 0 0 0 0 0 127 0" result="hardAlpha"/>
<feOffset/>
<feGaussianBlur stdDeviation="0.454545"/>
<feComposite in2="hardAlpha" operator="out"/>
<feColorMatrix type="matrix" values="0 0 0 0 0 0 0 0 0 0 0 0 0 0 0 0 0 0 0.01 0"/>
<feBlend mode="normal" in2="BackgroundImageFix" result="effect1_dropShadow_598_1443"/>
<feBlend mode="normal" in="SourceGraphic" in2="effect1_dropShadow_598_1443" result="shape"/>
</filter>
</defs>
</svg>
