<svg xmlns="http://www.w3.org/2000/svg" width="213" height="152" viewBox="0 0 213 152" fill="none">
  <path d="M13.799 55.286C13.799 55.286 13.6272 69.7397 1.20687 72.2477C1.20687 72.2477 12.1173 72.6719 13.3887 89.7984C13.3887 89.7984 12.6759 75.3341 26.2802 72.5458C26.2802 72.5458 15.3487 73.8908 13.799 55.286Z" stroke="#5E5E5E" stroke-width="2.10811" stroke-miterlimit="10" stroke-linejoin="round"/>
  <path d="M180.805 104.876C180.805 104.876 181.209 112.787 174.502 114.587C174.502 114.587 180.484 114.444 181.769 123.766C181.769 123.766 180.88 115.88 188.226 113.887C188.226 113.887 182.293 114.999 180.805 104.876Z" stroke="#5E5E5E" stroke-width="2.10811" stroke-miterlimit="10" stroke-linejoin="round"/>
  <ellipse cx="107.346" cy="69.6491" rx="69.6491" ry="69.6491" fill="white"/>
  <rect x="86.6871" y="35.4146" width="126.313" height="38.9563" rx="15" fill="#DADCE0"/>
  <circle cx="104.395" cy="54.8928" r="8.8537" fill="#A8A8A8"/>
  <rect x="117.97" y="47.8096" width="80.8638" height="5.31222" rx="2.65611" fill="#838383"/>
  <rect x="117.97" y="56.6636" width="51.9417" height="5.31222" rx="2.65611" fill="white"/>
  <circle cx="58.9456" cy="24.2" r="20.8391" fill="#F2F2F2" stroke="#F2F2F2" stroke-width="2"/>
  <path d="M47.9847 20.1866H61.4875V22.1906H47.9847V20.1866ZM47.5747 18.3384C47.1629 18.3384 46.8375 18.6678 46.8375 19.0882V27.529C46.8375 27.9493 47.1629 28.2753 47.5747 28.2753H56.9972C57.1874 28.2753 57.2667 28.2384 57.2086 28.0218C57.1329 27.7402 57.2156 27.4464 57.3512 27.1733L58.0583 25.7533C58.289 25.2874 58.5825 25.0286 59.0405 24.7716L61.6742 23.2867C61.8838 23.1692 62.105 23.1094 62.3202 23.0986C62.6121 23.082 62.6352 22.9151 62.6352 22.7206L62.635 19.0881C62.635 18.6678 62.3109 18.3384 61.8994 18.3384L47.5747 18.3384Z" fill="#A8A8A8"/>
  <path d="M61.96 23.7942L59.3239 25.2763C58.9056 25.5124 58.7699 25.6267 58.5779 26.0114L57.8725 27.432C57.7705 27.636 58.0658 27.9686 58.263 27.7733L59.1603 26.8793C59.5194 26.5361 59.9873 26.3904 60.48 26.4411C60.8087 26.4748 61.1557 26.5824 61.5148 26.7631C61.8595 26.9391 62.1002 26.9444 62.3273 26.7374L62.9098 26.2057C63.1702 25.9669 63.4801 26.1919 63.1736 26.5614C62.5965 27.26 62.7747 27.5221 63.2338 27.786C64.1838 28.3349 65.1342 28.9546 65.1342 28.9546C65.4896 29.1512 65.2572 29.5103 64.9193 29.2833L61.7596 27.5624C61.2315 27.2392 60.7759 27.0577 60.4188 27.0205C60.0633 26.9836 59.8084 27.064 59.5641 27.3003L56.0304 30.6827C55.6094 31.0866 55.557 31.6355 55.6998 31.962C55.7717 32.1256 55.8788 32.2259 56.0166 32.2687C56.1555 32.3109 56.3507 32.2999 56.6251 32.1421C56.6376 32.1351 56.6497 32.1277 56.662 32.1209L58.0222 30.2468C58.3446 29.8046 58.7488 29.453 59.2574 29.321C59.7679 29.1889 60.352 29.2914 60.9855 29.6568C62.0358 30.2625 64.3781 31.8277 64.3781 31.8277C64.7336 32.0237 64.4767 32.4407 64.1406 32.2157C64.1406 32.2157 61.728 30.7581 60.6954 30.1615C60.1496 29.8487 59.7437 29.7959 59.4042 29.8839C59.0663 29.9717 58.7671 30.2146 58.4947 30.5914L55.7534 34.3637C55.3804 34.8776 55.4663 35.4214 55.6686 35.74C55.8955 36.0972 56.5346 36.0931 56.64 35.6972C56.6315 35.3725 56.7142 35.0569 56.8778 34.7985L58.1074 32.856C58.3382 32.4937 58.6761 32.2628 59.058 32.1631C59.4394 32.0628 59.8659 32.0937 60.2666 32.2572L63.506 33.7307C63.8651 33.8796 63.699 34.2954 63.3389 34.1476L60.0449 32.7977C59.4432 32.5514 58.9104 32.6802 58.6004 33.1674L57.3707 35.1099C57.1069 35.5269 57.1223 36.2745 57.8333 36.6639L58.7888 37.1846C59.204 37.4115 59.5576 37.3044 59.7357 37.0473C59.9979 36.6673 60.0418 36.5511 59.688 36.3398L58.5637 35.6681C58.2664 35.4915 58.4475 35.1193 58.8702 35.3474L61.8456 36.9487C62.178 37.1475 61.8787 37.6487 61.5466 37.4501L60.4874 36.8166C60.4431 37.0484 60.3289 37.2633 60.1616 37.4429C59.7991 37.8314 59.1447 38.0395 58.5113 37.6949L57.545 37.1723C57.3427 37.0616 57.1473 36.9163 57.0277 36.7284C56.7041 36.2168 56.1216 36.6459 56.1798 37.1916C56.3098 38.4315 56.6761 39.357 57.0527 40.279C57.5253 41.437 57.9991 42.6016 57.9919 44.2824L57.9906 44.9178C57.9906 45.2128 58.2142 45.4489 58.5096 45.4489H63.6567C63.9523 45.4489 64.1894 45.2128 64.1894 44.9178L64.207 43.1104C64.207 43.0773 64.214 43.0419 64.2265 43.01L67.8883 33.2694C68.2018 32.4374 68.1697 31.7167 67.8005 31.0783L63.9767 24.4809C63.4859 23.6342 62.7215 23.3664 61.9601 23.794L61.96 23.7942Z" fill="#A8A8A8"/>
  <rect x="1.10144" y="80.8638" width="148.742" height="70.8296" rx="15" fill="#F2F2F2"/>
  <circle cx="22.9407" cy="100.342" r="9.44395" fill="#DADCE0"/>
  <rect x="37.1067" y="92.6685" width="102.703" height="13.5757" rx="6.78784" fill="#838383"/>
  <rect x="13.4967" y="112.737" width="102.703" height="5.90247" rx="2.95123" fill="#A8A8A8"/>
  <rect x="13.4967" y="125.132" width="73.1906" height="5.90247" rx="2.95123" fill="#DADCE0"/>
  <rect x="13.4967" y="138.118" width="45.449" height="5.90247" rx="2.95123" fill="white"/>
</svg>