<svg width="213" height="164" viewBox="0 0 213 164" fill="none" xmlns="http://www.w3.org/2000/svg">
<g id="Group 1000000834">
<path id="Vector" d="M13.7992 55.2861C13.7992 55.2861 13.6273 69.7399 1.20699 72.2478C1.20699 72.2478 12.1174 72.672 13.3888 89.7985C13.3888 89.7985 12.6761 75.3342 26.2803 72.5459C26.2803 72.5459 15.3488 73.891 13.7992 55.2861Z" stroke="#5E5E5E" stroke-width="2.10811" stroke-miterlimit="10" stroke-linejoin="round"/>
<path id="Vector_2" d="M180.805 104.876C180.805 104.876 181.209 112.787 174.502 114.587C174.502 114.587 180.484 114.444 181.769 123.766C181.769 123.766 180.881 115.88 188.226 113.887C188.226 113.887 182.293 114.999 180.805 104.876Z" stroke="#5E5E5E" stroke-width="2.10811" stroke-miterlimit="10" stroke-linejoin="round"/>
<g id="Group 1000000833">
<ellipse id="Ellipse 686" cx="107.346" cy="69.6491" rx="69.6491" ry="69.6491" fill="white"/>
<g id="Group 1000000832">
<g id="Group 1000000821">
<g id="Group 1000000831">
<rect id="Rectangle 14" x="86.6873" y="35.4149" width="126.313" height="38.9563" rx="15" fill="#DADCE0"/>
<circle id="Ellipse 687" cx="104.395" cy="54.893" r="8.8537" fill="#A8A8A8"/>
<rect id="Rectangle 18" x="117.97" y="47.81" width="80.8638" height="5.31222" rx="2.65611" fill="#838383"/>
<rect id="Rectangle 19" x="117.97" y="56.6638" width="51.9417" height="5.31222" rx="2.65611" fill="white"/>
</g>
</g>
<g id="Group 1000000823">
<circle id="Ellipse 685" cx="58.9456" cy="24.2002" r="20.8391" fill="#F2F2F2" stroke="#F2F2F2" stroke-width="2"/>
<g id="Group 1000000824">
<path id="Vector_3" d="M47.9846 20.1866H61.4873V22.1906H47.9846V20.1866ZM47.5746 18.3384C47.1627 18.3384 46.8374 18.6678 46.8374 19.0882V27.529C46.8374 27.9493 47.1628 28.2753 47.5746 28.2753H56.9971C57.1873 28.2753 57.2666 28.2384 57.2085 28.0218C57.1328 27.7402 57.2155 27.4464 57.351 27.1733L58.0581 25.7533C58.2889 25.2874 58.5824 25.0286 59.0403 24.7716L61.6741 23.2867C61.8836 23.1692 62.1049 23.1094 62.3201 23.0986C62.6119 23.082 62.6351 22.9151 62.6351 22.7206L62.6348 19.0881C62.6348 18.6678 62.3108 18.3384 61.8993 18.3384L47.5746 18.3384Z" fill="#A8A8A8"/>
<path id="Vector_4" d="M61.9598 23.7944L59.3237 25.2765C58.9055 25.5126 58.7698 25.6269 58.5778 26.0116L57.8724 27.4322C57.7704 27.6362 58.0656 27.9688 58.2629 27.7734L59.1602 26.8795C59.5193 26.5363 59.9871 26.3906 60.4799 26.4413C60.8086 26.475 61.1556 26.5825 61.5147 26.7632C61.8593 26.9393 62.1 26.9446 62.3272 26.7376L62.9096 26.2059C63.1701 25.9671 63.48 26.1921 63.1735 26.5615C62.5964 27.2602 62.7745 27.5223 63.2337 27.7862C64.1837 28.335 65.1341 28.9548 65.1341 28.9548C65.4895 29.1514 65.2571 29.5104 64.9192 29.2835L61.7595 27.5626C61.2314 27.2394 60.7758 27.0578 60.4187 27.0207C60.0632 26.9838 59.8083 27.0642 59.5639 27.3005L56.0303 30.6829C55.6093 31.0867 55.5569 31.6356 55.6996 31.9622C55.7715 32.1258 55.8786 32.2261 56.0165 32.2689C56.1554 32.3111 56.3505 32.3001 56.625 32.1423C56.6375 32.1353 56.6496 32.1279 56.6619 32.1211L58.022 30.247C58.3444 29.8048 58.7487 29.4532 59.2573 29.3212C59.7678 29.1891 60.3519 29.2915 60.9854 29.657C62.0357 30.2627 64.378 31.8279 64.378 31.8279C64.7335 32.0239 64.4766 32.4409 64.1404 32.2158C64.1404 32.2158 61.7279 30.7583 60.6952 30.1617C60.1495 29.8489 59.7436 29.7961 59.404 29.8841C59.0662 29.9719 58.7669 30.2148 58.4946 30.5916L55.7533 34.3639C55.3802 34.8778 55.4661 35.4216 55.6685 35.7402C55.8954 36.0974 56.5344 36.0933 56.6399 35.6974C56.6314 35.3726 56.7141 35.057 56.8776 34.7987L58.1073 32.8562C58.3381 32.4939 58.676 32.2629 59.0579 32.1633C59.4393 32.0629 59.8658 32.0939 60.2664 32.2574L63.5059 33.7308C63.865 33.8797 63.6989 34.2956 63.3388 34.1478L60.0448 32.7979C59.4431 32.5516 58.9103 32.6804 58.6003 33.1675L57.3706 35.1101C57.1067 35.527 57.1222 36.2747 57.8331 36.6641L58.7886 37.1847C59.2039 37.4117 59.5575 37.3046 59.7356 37.0475C59.9977 36.6675 60.0417 36.5512 59.6879 36.34L58.5636 35.6683C58.2662 35.4916 58.4474 35.1194 58.8701 35.3476L61.8455 36.9489C62.1779 37.1476 61.8786 37.6488 61.5465 37.4503L60.4873 36.8168C60.4429 37.0486 60.3288 37.2634 60.1615 37.4431C59.799 37.8316 59.1445 38.0397 58.5112 37.695L57.5449 37.1724C57.3425 37.0617 57.1472 36.9165 57.0276 36.7285C56.7039 36.217 56.1215 36.646 56.1797 37.1917C56.3097 38.4316 56.676 39.3572 57.0526 40.2792C57.5252 41.4372 57.999 42.6017 57.9918 44.2826L57.9905 44.918C57.9905 45.213 58.214 45.4491 58.5095 45.4491H63.6565C63.9522 45.4491 64.1893 45.213 64.1893 44.918L64.2069 43.1105C64.2069 43.0775 64.2139 43.042 64.2264 43.0102L67.8882 33.2696C68.2016 32.4376 68.1696 31.7169 67.8004 31.0785L63.9765 24.4811C63.4858 23.6344 62.7214 23.3666 61.96 23.7941L61.9598 23.7944Z" fill="#A8A8A8"/>
</g>
</g>
</g>
</g>
<g id="Group 1000000830">
<rect id="Rectangle 20" x="1.10132" y="80.8638" width="148.742" height="70.8296" rx="15" fill="#F2F2F2"/>
<g id="Group 1000000820">
<circle id="Ellipse 685_2" cx="139.809" cy="141.659" r="20.8391" fill="#DADCE0" stroke="#DADCE0" stroke-width="2"/>
<path id="Vector_5" d="M149.315 142.809H146.519V140.572H149.315C149.715 140.572 150.084 140.359 150.284 140.013C150.484 139.667 150.484 139.24 150.284 138.894C150.084 138.548 149.715 138.335 149.315 138.335H146.519V132.743C146.519 132.344 146.306 131.975 145.96 131.775C145.614 131.575 145.188 131.575 144.842 131.775C144.496 131.975 144.283 132.344 144.283 132.743V138.335H139.619L137.383 133.001H137.382C137.106 132.374 136.558 131.908 135.895 131.737C135.232 131.565 134.527 131.707 133.982 132.121C133.437 132.536 133.112 133.177 133.099 133.862V138.335H130.303C129.904 138.335 129.535 138.548 129.335 138.894C129.135 139.24 129.135 139.667 129.335 140.013C129.535 140.359 129.904 140.572 130.303 140.572H133.099V142.808L130.303 142.809C129.904 142.809 129.535 143.022 129.335 143.368C129.135 143.714 129.135 144.14 129.335 144.486C129.535 144.832 129.904 145.045 130.303 145.045H133.099V150.637C133.099 151.037 133.312 151.406 133.658 151.606C134.004 151.805 134.431 151.805 134.777 151.606C135.123 151.406 135.336 151.037 135.336 150.637V145.045H139.999L142.236 150.38H142.236C142.405 150.784 142.689 151.131 143.053 151.375C143.417 151.62 143.844 151.752 144.283 151.755C144.431 151.772 144.581 151.772 144.73 151.755C145.243 151.651 145.703 151.37 146.03 150.961C146.357 150.552 146.53 150.042 146.519 149.519V145.045H149.315C149.715 145.045 150.084 144.832 150.284 144.486C150.484 144.14 150.484 143.714 150.284 143.368C150.084 143.022 149.715 142.809 149.315 142.809ZM144.283 140.572V142.808L141.487 142.809L140.559 140.572L144.283 140.572ZM135.335 133.862L137.203 138.335H135.335V133.862ZM135.335 142.808V140.572H138.131L139.06 142.808H135.335ZM144.282 149.518L142.415 145.045L144.282 145.045L144.282 149.518Z" fill="#838383"/>
</g>
<g id="Group 1000000822">
<circle id="Ellipse 688" cx="22.9405" cy="100.342" r="9.44395" fill="#DADCE0"/>
<rect id="Rectangle 20_2" x="37.1067" y="92.6688" width="102.703" height="13.5757" rx="6.78784" fill="#838383"/>
</g>
<rect id="Rectangle 21" x="13.4966" y="112.737" width="102.703" height="5.90247" rx="2.95123" fill="#A8A8A8"/>
<rect id="Rectangle 22" x="13.4966" y="125.132" width="73.1906" height="5.90247" rx="2.95123" fill="#DADCE0"/>
<rect id="Rectangle 23" x="13.4966" y="138.118" width="45.449" height="5.90247" rx="2.95123" fill="white"/>
</g>
</g>
</svg>
