<svg xmlns="http://www.w3.org/2000/svg" width="120" height="115" viewBox="0 0 120 115" fill="none">
  <path d="M119.866 47.5584C119.244 46.5288 117.089 47.1753 115.389 48.2288C114.864 48.57 114.382 48.9718 113.952 49.426C113.447 48.9995 112.901 48.6226 112.324 48.3007C111.503 47.8368 110.614 47.5055 109.69 47.319C108.469 47.1274 108.014 47.4866 107.822 47.8457C107.631 48.2049 107.583 48.7795 108.397 49.6894C109.04 50.3753 109.793 50.9498 110.624 51.3894C111.538 51.9155 112.547 52.2572 113.593 52.3951H114C115.181 52.2829 116.317 51.8798 117.304 51.2218C118.126 50.7492 118.862 50.1422 119.483 49.426C120.129 48.4922 120.058 47.8936 119.866 47.5584ZM108.948 49.0429C108.493 48.5162 108.469 48.2528 108.493 48.2288C108.517 48.2049 108.493 48.2288 108.948 48.2288C109.107 48.2095 109.268 48.2095 109.427 48.2288C110.269 48.3864 111.079 48.686 111.821 49.1148C112.325 49.3948 112.805 49.7151 113.258 50.0725V50.5514C112.696 50.3668 112.151 50.1345 111.629 49.857C110.694 49.7486 109.786 49.4729 108.948 49.0429ZM118.741 48.8514C118.182 49.4778 117.528 50.0112 116.801 50.4317C116.297 50.7526 115.759 51.0176 115.197 51.2218V50.7669C115.618 50.3884 116.075 50.0516 116.562 49.7612C118.406 48.6598 119.675 48.6119 119.794 48.7795C119.914 48.9472 119.1 48.3246 118.741 48.8514Z" fill="#A8A8A8"/>
  <path d="M16.9077 85.3415C16.2851 84.3119 14.1541 84.9584 12.4302 85.988C11.8825 86.3283 11.3692 86.7212 10.8978 87.1612C10.3879 86.7295 9.83414 86.3523 9.24569 86.0358C8.4249 85.572 7.53601 85.2407 6.61187 85.0541C5.41468 84.8626 4.93581 85.2218 4.74426 85.557C4.55271 85.8922 4.50482 86.5147 5.31891 87.4246C5.98278 88.0908 6.74116 88.6555 7.56962 89.1006C8.47313 89.6362 9.47434 89.9862 10.5147 90.1302H10.9936C12.175 90.0181 13.3102 89.615 14.2978 88.957C15.1088 88.4693 15.8431 87.8642 16.4767 87.1612C17.195 86.1795 17.1232 85.5809 16.9077 85.3415ZM5.98934 86.802C5.5344 86.2992 5.5344 86.0358 5.55835 86.0119C5.58229 85.988 5.67807 86.0119 5.98934 86.0119H6.46821C7.3099 86.1725 8.11905 86.4719 8.86259 86.8978C9.37423 87.1743 9.85569 87.5033 10.2992 87.8795V88.2147C9.72715 88.0277 9.17401 87.7872 8.64709 87.4964C7.7226 87.3865 6.82373 87.1193 5.98934 86.7063V86.802ZM15.7823 86.5387C15.2293 87.1707 14.5736 87.705 13.8429 88.119C13.3438 88.4345 12.8144 88.6992 12.2626 88.9091V88.5978V88.4542C12.684 88.0756 13.141 87.7388 13.6274 87.4485C15.4471 86.3232 16.7401 86.2753 16.8598 86.4668C16.9795 86.6584 16.1654 86.0119 15.7823 86.5387Z" fill="#A8A8A8"/>
  <path d="M92.4023 76.4105H91.3966C91.3077 76.4105 91.2225 76.3752 91.1596 76.3123C91.0967 76.2495 91.0614 76.1642 91.0614 76.0753C91.0613 76.0292 91.0707 75.9836 91.089 75.9412C91.1073 75.8989 91.1342 75.8608 91.1679 75.8294C91.2016 75.7979 91.2415 75.7738 91.2849 75.7584C91.3284 75.743 91.3746 75.7368 91.4206 75.7401C92.0192 75.7401 92.6178 75.7401 93.1924 75.7401C93.2364 75.7401 93.28 75.7488 93.3207 75.7656C93.3614 75.7825 93.3983 75.8071 93.4294 75.8383C93.4606 75.8694 93.4853 75.9064 93.5021 75.947C93.519 75.9877 93.5276 76.0313 93.5276 76.0753C93.5278 76.1666 93.4933 76.2545 93.431 76.3212C93.3688 76.3879 93.2835 76.4284 93.1924 76.4345L92.4023 76.4105ZM96.8079 76.0514C96.7292 76.0439 96.6548 76.0123 96.5948 75.9608C96.5347 75.9094 96.4921 75.8407 96.4727 75.764C96.4659 75.72 96.4681 75.675 96.4789 75.6317C96.4898 75.5885 96.5091 75.5478 96.5359 75.5121C96.5626 75.4764 96.5962 75.4465 96.6347 75.4239C96.6732 75.4014 96.7158 75.3868 96.76 75.3809C97.3586 75.3809 97.9333 75.1415 98.5079 74.9978C98.5964 74.983 98.6873 75.0017 98.7626 75.0505C98.8379 75.0992 98.8923 75.1744 98.915 75.2612C98.9368 75.3469 98.9239 75.4378 98.8791 75.5141C98.8342 75.5903 98.7611 75.6457 98.6755 75.6683L96.8798 76.0514H96.8079ZM87.7811 76.0514L86.0332 75.764C85.9887 75.7556 85.9464 75.7381 85.9088 75.7128C85.8712 75.6875 85.8391 75.6549 85.8145 75.6168C85.7899 75.5788 85.7732 75.5362 85.7655 75.4915C85.7579 75.4468 85.7593 75.4011 85.7699 75.357C85.7783 75.3125 85.7957 75.2701 85.821 75.2325C85.8463 75.1949 85.879 75.1629 85.917 75.1383C85.9551 75.1136 85.9977 75.097 86.0424 75.0893C86.0871 75.0816 86.1328 75.0831 86.1769 75.0936L87.9248 75.4288C87.9704 75.4311 88.015 75.4434 88.0554 75.4648C88.0958 75.4863 88.1309 75.5164 88.1584 75.5529C88.1858 75.5895 88.2048 75.6317 88.2141 75.6764C88.2234 75.7212 88.2227 75.7675 88.2121 75.8119C88.1909 75.8834 88.1463 75.9458 88.0856 75.9892C88.0249 76.0326 87.9515 76.0544 87.8769 76.0514H87.7811ZM82.5135 74.7584C81.9389 74.5669 81.3642 74.3753 80.7896 74.1359C80.7073 74.1037 80.641 74.0405 80.6052 73.9598C80.5693 73.8791 80.5667 73.7875 80.598 73.7049C80.635 73.6209 80.7027 73.5542 80.7873 73.5186C80.872 73.4829 80.967 73.4811 81.0529 73.5133C81.6036 73.7288 82.1783 73.9443 82.729 74.1119C82.8179 74.1119 82.9032 74.1472 82.966 74.2101C83.0289 74.273 83.0642 74.3582 83.0642 74.4471C83.0642 74.536 83.0289 74.6213 82.966 74.6842C82.9032 74.747 82.8179 74.7823 82.729 74.7823L82.5135 74.7584ZM102.028 74.519C101.962 74.5239 101.897 74.5081 101.841 74.4737C101.785 74.4393 101.741 74.3881 101.716 74.3274C101.696 74.2867 101.685 74.2424 101.683 74.1971C101.68 74.1519 101.687 74.1066 101.703 74.0641C101.719 74.0216 101.743 73.9827 101.774 73.9497C101.805 73.9168 101.842 73.8905 101.884 73.8725C102.432 73.6378 102.968 73.3741 103.488 73.0823C103.568 73.0379 103.661 73.0268 103.749 73.0515C103.837 73.0762 103.911 73.1347 103.955 73.214C104 73.2934 104.011 73.3872 103.986 73.4748C103.961 73.5623 103.903 73.6365 103.823 73.6809C103.273 73.9683 102.722 74.2556 102.171 74.495L102.028 74.519ZM77.5093 72.6274H77.3417L75.7374 71.7175C75.6802 71.6556 75.6484 71.5744 75.6484 71.4901C75.6484 71.4058 75.6802 71.3245 75.7374 71.2626C75.7665 71.2314 75.8018 71.2066 75.8409 71.1896C75.88 71.1726 75.9222 71.1638 75.9649 71.1638C76.0075 71.1638 76.0498 71.1726 76.0889 71.1896C76.128 71.2066 76.1632 71.2314 76.1924 71.2626C76.6952 71.5739 77.2219 71.8612 77.7487 72.1485C77.7882 72.1688 77.8233 72.1966 77.852 72.2305C77.8806 72.2644 77.9022 72.3037 77.9156 72.346C77.929 72.3883 77.9338 72.4328 77.9298 72.4771C77.9258 72.5213 77.9131 72.5642 77.8924 72.6035C77.8508 72.6324 77.8024 72.6499 77.7519 72.6541C77.7015 72.6583 77.6508 72.6491 77.605 72.6274H77.5093ZM106.769 71.6936C106.683 71.7247 106.59 71.7247 106.505 71.6936C106.473 71.6624 106.448 71.6251 106.431 71.584C106.413 71.5429 106.405 71.4988 106.405 71.4542C106.405 71.4096 106.413 71.3654 106.431 71.3243C106.448 71.2832 106.473 71.2459 106.505 71.2147C106.96 70.8316 107.391 70.4246 107.822 70.0175C107.851 69.9824 107.888 69.9541 107.929 69.9347C107.971 69.9152 108.016 69.9052 108.061 69.9052C108.107 69.9052 108.152 69.9152 108.194 69.9347C108.235 69.9541 108.272 69.9824 108.301 70.0175C108.36 70.0834 108.392 70.1686 108.392 70.257C108.392 70.3453 108.36 70.4306 108.301 70.4964C107.869 70.9362 107.414 71.3519 106.936 71.7415L106.769 71.6936ZM110.384 67.6711C110.322 67.6951 110.254 67.6951 110.192 67.6711C110.161 67.6419 110.136 67.6067 110.119 67.5676C110.102 67.5285 110.094 67.4863 110.094 67.4436C110.094 67.4009 110.102 67.3587 110.119 67.3196C110.136 67.2805 110.161 67.2452 110.192 67.2161C110.504 66.7133 110.815 66.2105 111.102 65.6837C111.144 65.6043 111.215 65.5446 111.3 65.5177C111.385 65.4907 111.478 65.4988 111.557 65.5401C111.637 65.5813 111.696 65.6525 111.723 65.7378C111.75 65.8231 111.742 65.9156 111.701 65.995C111.418 66.538 111.106 67.0656 110.767 67.5753C110.714 67.6266 110.649 67.6626 110.577 67.6794C110.505 67.6963 110.43 67.6934 110.36 67.6711H110.384ZM112.778 62.8823C112.733 62.8722 112.691 62.8521 112.655 62.8237C112.619 62.7953 112.589 62.7591 112.569 62.7179C112.548 62.6766 112.537 62.6313 112.536 62.5852C112.535 62.5391 112.544 62.4934 112.563 62.4513C112.73 61.9006 112.922 61.326 113.066 60.7274C113.088 60.6418 113.144 60.5687 113.22 60.5238C113.296 60.479 113.387 60.4661 113.473 60.4879C113.558 60.5105 113.631 60.5659 113.676 60.6421C113.721 60.7184 113.734 60.8093 113.712 60.895C113.569 61.5175 113.401 62.0922 113.209 62.6668C113.185 62.7083 113.152 62.7445 113.113 62.7731C113.075 62.8018 113.03 62.8223 112.983 62.8334C112.936 62.8446 112.888 62.8462 112.84 62.8382C112.793 62.8301 112.747 62.8125 112.707 62.7865L112.778 62.8823ZM113.952 57.471C113.908 57.4682 113.866 57.4564 113.828 57.4364C113.79 57.4164 113.756 57.3886 113.729 57.3548C113.702 57.3211 113.682 57.282 113.671 57.2401C113.66 57.1983 113.658 57.1546 113.664 57.1119C113.664 56.5133 113.664 55.9147 113.808 55.3161C113.811 55.272 113.823 55.229 113.842 55.1895C113.862 55.15 113.889 55.1147 113.923 55.0858C113.956 55.0569 113.995 55.0348 114.037 55.0209C114.079 55.007 114.123 55.0016 114.167 55.0048C114.258 55.0109 114.343 55.0514 114.406 55.1181C114.468 55.1848 114.503 55.2727 114.502 55.364C114.502 55.9626 114.502 56.5851 114.335 57.1837C114.329 57.2279 114.314 57.2705 114.292 57.309C114.269 57.3475 114.239 57.3811 114.204 57.4079C114.168 57.4346 114.127 57.454 114.084 57.4648C114.041 57.4757 113.996 57.4778 113.952 57.471Z" fill="#A8A8A8"/>
  <path d="M16.0699 97.3135C15.4406 97.2289 14.8274 97.0514 14.2502 96.7868C14.1705 96.7456 14.1091 96.6761 14.0781 96.5919C14.047 96.5077 14.0487 96.4149 14.0826 96.3318C14.1006 96.2903 14.1269 96.2528 14.1598 96.2217C14.1928 96.1905 14.2317 96.1664 14.2742 96.1507C14.3167 96.1351 14.362 96.1282 14.4072 96.1305C14.4525 96.1328 14.4968 96.1443 14.5375 96.1642C15.0553 96.3989 15.6033 96.5601 16.1657 96.6431C16.2089 96.6459 16.251 96.6577 16.2894 96.6777C16.3278 96.6977 16.3616 96.7255 16.3886 96.7593C16.4157 96.7931 16.4354 96.8321 16.4464 96.874C16.4575 96.9158 16.4598 96.9595 16.453 97.0023C16.4502 97.0486 16.4378 97.0938 16.4166 97.1351C16.3954 97.1763 16.3658 97.2128 16.3298 97.242C16.2938 97.2713 16.2521 97.2927 16.2074 97.305C16.1626 97.3174 16.1158 97.3203 16.0699 97.3135ZM19.6615 96.9783C19.5878 96.9776 19.5161 96.9543 19.4561 96.9114C19.3962 96.8686 19.3508 96.8084 19.3263 96.7389C19.3117 96.6949 19.3065 96.6484 19.3108 96.6022C19.3152 96.5561 19.329 96.5114 19.3515 96.4709C19.374 96.4304 19.4047 96.395 19.4415 96.367C19.4784 96.3389 19.5207 96.3188 19.5657 96.3079H19.8051C20.2621 96.1592 20.697 95.9499 21.0981 95.6854C21.1293 95.6535 21.1666 95.6282 21.2077 95.6109C21.2488 95.5936 21.2929 95.5847 21.3375 95.5847C21.3821 95.5847 21.4263 95.5936 21.4674 95.6109C21.5085 95.6282 21.5458 95.6535 21.577 95.6854C21.6359 95.7512 21.6684 95.8365 21.6684 95.9248C21.6684 96.0131 21.6359 96.0984 21.577 96.1642C21.1253 96.4841 20.6236 96.7269 20.0925 96.8825H19.853L19.6615 96.9783ZM11.6882 94.4163C11.6318 94.4208 11.5752 94.4098 11.5246 94.3845C11.474 94.3591 11.4312 94.3205 11.4009 94.2727C11.044 93.7339 10.7696 93.1447 10.5868 92.5248C10.5723 92.4824 10.5671 92.4373 10.5717 92.3927C10.5762 92.348 10.5903 92.3049 10.613 92.2663C10.6358 92.2276 10.6666 92.1943 10.7034 92.1687C10.7402 92.1431 10.7821 92.1257 10.8262 92.1178C10.912 92.0959 11.0028 92.1088 11.0791 92.1536C11.1553 92.1985 11.2108 92.2716 11.2333 92.3572C11.4191 92.8956 11.6682 93.41 11.9755 93.8896C12.0344 93.9554 12.067 94.0407 12.067 94.129C12.067 94.2174 12.0344 94.3026 11.9755 94.3684L11.6882 94.4163ZM23.4685 93.3868H23.3249C23.2469 93.3502 23.1861 93.285 23.1549 93.2048C23.1236 93.1246 23.1245 93.0354 23.1573 92.9558C23.4117 92.4239 23.62 91.8712 23.7798 91.3037C23.8075 91.2163 23.8676 91.1428 23.9477 91.0983C24.0278 91.0538 24.122 91.0416 24.2108 91.0642C24.2558 91.0751 24.2981 91.0952 24.335 91.1233C24.3718 91.1513 24.4025 91.1867 24.425 91.2272C24.4475 91.2677 24.4613 91.3125 24.4657 91.3586C24.47 91.4047 24.4648 91.4512 24.4502 91.4952C24.2681 92.0851 24.0441 92.6612 23.7798 93.2192C23.7369 93.2541 23.6854 93.277 23.6307 93.2854C23.576 93.2938 23.52 93.2875 23.4685 93.267V93.3868ZM24.8573 88.1431C24.8131 88.1372 24.7705 88.1226 24.732 88.1001C24.6935 88.0776 24.6599 88.0476 24.6331 88.0119C24.6064 87.9762 24.587 87.9356 24.5761 87.8923C24.5653 87.849 24.5632 87.8041 24.5699 87.76C24.5699 87.1853 24.6897 86.5867 24.7376 85.9642C24.7406 85.9202 24.7523 85.8771 24.772 85.8376C24.7917 85.7981 24.8191 85.7628 24.8524 85.7339C24.8858 85.705 24.9246 85.683 24.9665 85.6691C25.0084 85.6552 25.0527 85.6497 25.0967 85.6529C25.1878 85.659 25.2731 85.6995 25.3353 85.7662C25.3976 85.833 25.4321 85.9208 25.4319 86.0121C25.4319 86.6346 25.4319 87.2572 25.2404 87.8318C25.2056 87.9007 25.1495 87.9564 25.0805 87.9909C25.0115 88.0254 24.9332 88.0368 24.8573 88.0234V88.1431ZM25.1446 82.7079C25.0557 82.7079 24.9704 82.6725 24.9076 82.6097C24.8447 82.5468 24.8094 82.4616 24.8094 82.3727C24.8094 81.7741 24.8094 81.1755 24.8094 80.5529C24.8061 80.5101 24.8117 80.467 24.8258 80.4264C24.84 80.3859 24.8624 80.3487 24.8916 80.3172C24.9209 80.2857 24.9563 80.2606 24.9957 80.2435C25.0351 80.2264 25.0777 80.2176 25.1207 80.2177C25.1647 80.2145 25.2089 80.2199 25.2509 80.2338C25.2928 80.2477 25.3316 80.2698 25.3649 80.2987C25.3983 80.3276 25.4256 80.3628 25.4453 80.4024C25.4651 80.4419 25.4768 80.4849 25.4798 80.529C25.4798 81.1515 25.4798 81.7741 25.4798 82.3727C25.4737 82.4637 25.4332 82.549 25.3665 82.6113C25.2998 82.6735 25.2119 82.7081 25.1207 82.7079H25.1446Z" fill="#A8A8A8"/>
  <path d="M52.0573 102.964C52.2281 102.745 52.3208 102.476 52.3207 102.198C52.3239 102.018 52.2908 101.839 52.2234 101.672C52.156 101.505 52.0555 101.353 51.9282 101.226C51.8008 101.098 51.649 100.998 51.482 100.931C51.3149 100.863 51.136 100.83 50.9559 100.833C50.8461 100.346 50.5721 99.9108 50.1797 99.6013C49.7874 99.2918 49.3006 99.1265 48.8009 99.1333C48.4532 99.1305 48.1097 99.2091 47.7979 99.363C47.486 99.5168 47.2145 99.7415 47.0052 100.019C46.689 99.9375 46.3584 99.9296 46.0387 99.996C45.7191 100.062 45.4189 100.201 45.1615 100.402C42.7671 100.019 41.2587 100.402 40.7559 101.48L39.4389 104.257C39.3241 104.496 39.2667 104.758 39.2713 105.023C37.9835 104.789 36.6775 104.669 35.3685 104.664C31.0347 104.664 26.4375 105.909 26.4375 108.208V111.297C26.4375 113.691 31.0347 114.84 35.3685 114.84C39.7023 114.84 44.2995 113.595 44.2995 111.297V110.387C44.8502 110.698 45.4249 111.009 46.0235 111.273C47.8949 112.2 49.9115 112.799 51.9855 113.045H52.7756C54.2362 113.045 55.17 112.614 55.601 111.823L56.9179 109.022C57.7798 107.274 55.0982 104.736 52.0573 102.964ZM46.9094 100.977C46.9623 101.005 47.0205 101.021 47.0802 101.026C47.1399 101.03 47.1999 101.021 47.2562 101.001C47.3125 100.981 47.364 100.949 47.4073 100.908C47.4507 100.867 47.485 100.817 47.508 100.761C47.6212 100.541 47.7925 100.355 48.0034 100.224C48.2144 100.093 48.457 100.022 48.7052 100.019C49.0503 100.019 49.3817 100.155 49.628 100.396C49.8743 100.638 50.0158 100.967 50.0221 101.312C50.0158 101.393 50.0328 101.475 50.0709 101.547C50.109 101.619 50.1668 101.679 50.2376 101.719C50.3081 101.755 50.386 101.774 50.465 101.774C50.5441 101.774 50.622 101.755 50.6925 101.719H50.8841C50.9427 101.719 51.0008 101.731 51.0547 101.754C51.1086 101.777 51.1572 101.811 51.1976 101.854C51.2379 101.896 51.2692 101.947 51.2894 102.002C51.3096 102.057 51.3183 102.116 51.315 102.174C51.3123 102.263 51.2803 102.349 51.2241 102.418C51.1679 102.487 51.0905 102.536 51.0038 102.557C50.9115 102.556 50.8222 102.525 50.749 102.469C50.6757 102.413 50.6223 102.335 50.5967 102.246C50.5698 102.174 50.525 102.109 50.4663 102.059C50.4077 102.009 50.3372 101.974 50.2615 101.959C50.1812 101.943 50.098 101.95 50.0216 101.98C49.9453 102.009 49.879 102.06 49.8305 102.126C49.6463 102.348 49.3942 102.504 49.113 102.569C48.8318 102.634 48.5371 102.604 48.2742 102.485C48.1653 102.442 48.0443 102.44 47.9339 102.479C47.8236 102.519 47.7317 102.598 47.6756 102.701C47.5709 102.923 47.4048 103.111 47.197 103.243C46.9892 103.374 46.7483 103.444 46.5024 103.443C46.1531 103.443 45.8181 103.304 45.5711 103.057C45.3242 102.81 45.1854 102.475 45.1854 102.126C45.1831 101.906 45.2358 101.689 45.3388 101.495C45.4418 101.301 45.5918 101.136 45.7751 101.014C45.9584 100.893 46.1692 100.819 46.3882 100.8C46.6073 100.781 46.8276 100.817 47.0291 100.905L46.9094 100.977ZM43.4854 101.168H44.3714C44.2309 101.477 44.1574 101.811 44.1559 102.15C44.1469 102.621 44.2891 103.082 44.5614 103.466C44.8338 103.85 45.222 104.137 45.6692 104.284C46.1164 104.431 46.599 104.432 47.0463 104.284C47.4935 104.137 47.8819 103.851 48.1545 103.467C48.4652 103.548 48.7903 103.558 49.1055 103.496C49.4206 103.434 49.7175 103.301 49.9742 103.108C50.2163 103.349 50.5426 103.486 50.8841 103.491H51.0756C54.6911 105.454 56.4629 107.705 56.008 108.663C55.5531 109.621 51.8897 109.645 47.6277 107.633C43.3657 105.622 40.9474 102.964 41.4742 101.839C41.7854 101.408 42.5277 101.168 43.5812 101.168H43.4854ZM35.2727 105.574C36.6637 105.57 38.0515 105.706 39.415 105.981C40.1776 107.336 41.2738 108.473 42.5995 109.285C40.386 110.433 37.9065 110.97 35.4164 110.842C30.6277 110.842 27.3713 109.453 27.3713 108.208C27.3713 106.963 30.6277 105.574 35.3685 105.574H35.2727ZM35.2727 113.93C30.484 113.93 27.2276 112.542 27.2276 111.297V109.836C29.6636 111.249 32.4613 111.915 35.2727 111.752C38.0777 111.928 40.8713 111.261 43.2939 109.836V111.297C43.3897 112.542 40.0854 113.93 35.3685 113.93H35.2727ZM54.6911 111.536C54.4277 112.087 53.4221 112.326 51.9615 112.207C49.9982 111.95 48.0896 111.376 46.3108 110.507C42.1206 108.447 39.7263 105.79 40.253 104.64L40.8756 103.323C42.4734 105.632 44.7126 107.422 47.3164 108.471C49.4419 109.54 51.7649 110.16 54.1404 110.291C54.5677 110.295 54.9938 110.247 55.4094 110.147L54.6911 111.536Z" fill="#A8A8A8"/>
  <path d="M35.8473 91.3994C36.1118 91.3994 36.3262 91.185 36.3262 90.9205C36.3262 90.6561 36.1118 90.4417 35.8473 90.4417C35.5828 90.4417 35.3684 90.6561 35.3684 90.9205C35.3684 91.185 35.5828 91.3994 35.8473 91.3994Z" fill="#A8A8A8"/>
  <path d="M24.1151 112.183C24.3796 112.183 24.594 111.968 24.594 111.704C24.594 111.439 24.3796 111.225 24.1151 111.225C23.8506 111.225 23.6362 111.439 23.6362 111.704C23.6362 111.968 23.8506 112.183 24.1151 112.183Z" fill="#A8A8A8"/>
  <path d="M14.7528 113.595C15.0173 113.595 15.2317 113.381 15.2317 113.116C15.2317 112.852 15.0173 112.637 14.7528 112.637C14.4883 112.637 14.2739 112.852 14.2739 113.116C14.2739 113.381 14.4883 113.595 14.7528 113.595Z" fill="#A8A8A8"/>
  <path d="M77.8208 108.567L76.2166 107.801C76.1084 107.751 75.9852 107.746 75.8734 107.786C75.7615 107.827 75.6698 107.909 75.618 108.016C75.5901 108.069 75.5736 108.127 75.5694 108.187C75.5652 108.247 75.5736 108.307 75.5938 108.363C75.6141 108.419 75.6459 108.471 75.6872 108.514C75.7284 108.557 75.7783 108.592 75.8335 108.615L77.4377 109.381H77.6293C77.7308 109.378 77.8286 109.342 77.907 109.277C77.9854 109.213 78.04 109.124 78.062 109.025C78.0841 108.926 78.0723 108.822 78.0286 108.73C77.9849 108.639 77.9117 108.564 77.8208 108.519V108.567Z" fill="#A8A8A8"/>
  <path d="M60.4855 110.746C60.3907 110.746 60.2982 110.774 60.2194 110.827C60.1407 110.879 60.0793 110.954 60.043 111.041C60.0068 111.129 59.9973 111.225 60.0158 111.318C60.0343 111.411 60.0799 111.496 60.1469 111.563C60.2138 111.63 60.2991 111.676 60.392 111.694C60.4849 111.713 60.5812 111.703 60.6687 111.667C60.7562 111.631 60.831 111.57 60.8836 111.491C60.9363 111.412 60.9643 111.319 60.9643 111.225C60.9643 111.098 60.9139 110.976 60.8241 110.886C60.7343 110.796 60.6125 110.746 60.4855 110.746Z" fill="#A8A8A8"/>
  <path d="M72.6012 108.591C72.5065 108.591 72.4139 108.619 72.3351 108.672C72.2564 108.724 72.195 108.799 72.1588 108.886C72.1225 108.974 72.113 109.07 72.1315 109.163C72.15 109.256 72.1956 109.341 72.2626 109.408C72.3295 109.475 72.4149 109.521 72.5078 109.539C72.6007 109.558 72.6969 109.548 72.7844 109.512C72.872 109.476 72.9467 109.414 72.9994 109.336C73.052 109.257 73.0801 109.164 73.0801 109.07C73.0801 108.943 73.0296 108.821 72.9398 108.731C72.85 108.641 72.7282 108.591 72.6012 108.591Z" fill="#A8A8A8"/>
  <path d="M81.3646 109.285C81.3522 108.841 81.1684 108.418 80.8516 108.105C80.5348 107.793 80.1094 107.615 79.6646 107.609C79.5722 107.256 79.4002 106.928 79.1617 106.652L79.6406 105.646C79.6685 105.593 79.685 105.535 79.6892 105.475C79.6934 105.415 79.685 105.355 79.6648 105.299C79.6445 105.243 79.6127 105.191 79.5715 105.148C79.5302 105.105 79.4804 105.07 79.4251 105.047C79.3199 104.996 79.1989 104.987 79.0874 105.023C78.9759 105.059 78.8825 105.136 78.8265 105.239L78.4674 106.005C78.2865 105.869 78.0842 105.763 77.8688 105.694C77.6112 105.233 77.2363 104.849 76.7821 104.579C76.328 104.31 75.8107 104.166 75.2828 104.161C74.8784 104.158 74.4777 104.239 74.1065 104.4C73.7354 104.561 73.402 104.798 73.1279 105.095H72.9364L73.9181 102.701C73.9453 102.646 73.9608 102.587 73.9633 102.526C73.9659 102.465 73.9555 102.404 73.9329 102.348C73.9103 102.291 73.8759 102.24 73.8321 102.198C73.7882 102.155 73.7359 102.123 73.6786 102.102C73.5703 102.062 73.4507 102.064 73.3439 102.108C73.2372 102.153 73.1514 102.236 73.104 102.342L71.9786 105.047C71.7717 105.024 71.5629 105.024 71.3561 105.047C71.0633 104.502 70.6282 104.046 70.0969 103.728C69.5657 103.41 68.9582 103.243 68.3392 103.243C67.7201 103.243 67.1126 103.41 66.5814 103.728C66.0501 104.046 65.615 104.502 65.3223 105.047L63.1913 102.653C63.1069 102.574 62.9956 102.53 62.88 102.53C62.7644 102.53 62.6531 102.574 62.5687 102.653C62.488 102.741 62.4432 102.856 62.4432 102.976C62.4432 103.096 62.488 103.211 62.5687 103.299L64.9631 106.221C64.3499 106.303 63.7794 106.58 63.3349 107.011C63.3231 106.899 63.2699 106.795 63.1859 106.72C63.1018 106.644 62.9928 106.603 62.88 106.604C62.753 106.604 62.6312 106.654 62.5414 106.744C62.4516 106.834 62.4011 106.956 62.4011 107.083C62.4011 107.21 62.4516 107.331 62.5414 107.421C62.6312 107.511 62.753 107.561 62.88 107.561C62.6006 108 62.4425 108.505 62.4216 109.025C62.4007 109.545 62.5179 110.061 62.7612 110.52C63.0044 110.98 63.3651 111.367 63.8066 111.642C64.248 111.918 64.7544 112.071 65.2744 112.087C65.706 112.088 66.1321 111.99 66.5194 111.799C67.1038 112.082 67.7659 112.16 68.3998 112.021C69.0336 111.882 69.6025 111.534 70.0152 111.033C70.6284 111.559 71.41 111.848 72.2181 111.847C72.7202 111.838 73.2147 111.723 73.6688 111.508C74.1229 111.293 74.5262 110.985 74.8519 110.602C75.3843 111.078 76.0773 111.335 76.7913 111.321C77.4723 111.318 78.1317 111.081 78.6589 110.65C78.9415 110.841 79.2756 110.941 79.6167 110.937C79.8535 110.938 80.0876 110.887 80.3027 110.788C80.5177 110.688 80.7085 110.543 80.8617 110.363H81.0293C81.112 110.366 81.1945 110.352 81.2715 110.322C81.3486 110.292 81.4186 110.246 81.4771 110.188C81.5356 110.129 81.5813 110.059 81.6114 109.982C81.6415 109.905 81.6553 109.823 81.6519 109.74C81.6411 109.648 81.6096 109.559 81.5599 109.48C81.5102 109.401 81.4434 109.335 81.3646 109.285ZM79.6646 110.099C79.5456 110.103 79.4274 110.079 79.3194 110.029C79.2113 109.979 79.1163 109.905 79.042 109.812C79.0012 109.762 78.9503 109.721 78.8925 109.692C78.8347 109.663 78.7714 109.647 78.7068 109.644C78.6379 109.642 78.5693 109.655 78.5068 109.685C78.4443 109.714 78.3897 109.757 78.3477 109.812C78.1592 110.027 77.9274 110.2 77.6675 110.32C77.4075 110.44 77.1253 110.503 76.8392 110.506C76.5208 110.506 76.2073 110.429 75.9242 110.283C75.6412 110.138 75.3967 109.927 75.211 109.668C75.164 109.613 75.1051 109.57 75.0387 109.541C74.9724 109.512 74.9003 109.498 74.8279 109.501C74.7515 109.504 74.6768 109.525 74.6102 109.562C74.5435 109.599 74.4868 109.652 74.4448 109.716C74.2389 110.114 73.9256 110.446 73.5404 110.675C73.1552 110.903 72.7137 111.019 72.2659 111.009C71.9018 111.008 71.5423 110.928 71.2117 110.775C70.8812 110.622 70.5875 110.4 70.3504 110.123C70.3012 110.066 70.2377 110.022 70.1662 109.997C70.0947 109.972 70.0179 109.966 69.9434 109.98C69.8737 109.984 69.8063 110.006 69.7476 110.044C69.6889 110.081 69.6409 110.134 69.6082 110.195C69.4315 110.511 69.1746 110.775 68.8636 110.96C68.5525 111.145 68.1982 111.244 67.8364 111.249C67.4768 111.246 67.1233 111.156 66.8068 110.985C66.7288 110.961 66.6453 110.961 66.5673 110.985C66.497 110.965 66.4222 110.965 66.3518 110.985C66.0327 111.149 65.6808 111.239 65.3223 111.249C64.7825 111.249 64.2648 111.034 63.8831 110.653C63.5015 110.271 63.287 109.753 63.287 109.213C63.287 108.674 63.5015 108.156 63.8831 107.774C64.2648 107.393 64.7825 107.178 65.3223 107.178C65.4402 107.17 65.5511 107.119 65.6335 107.035L66.2561 107.777C65.9605 108.105 65.7982 108.532 65.8011 108.974C65.8069 109.093 65.8567 109.205 65.9408 109.289C66.0249 109.373 66.1373 109.423 66.2561 109.429C66.3767 109.429 66.4924 109.381 66.5777 109.296C66.6631 109.21 66.711 109.095 66.711 108.974C66.711 108.714 66.8144 108.464 66.9985 108.28C67.1826 108.096 67.4323 107.992 67.6927 107.992C67.9453 107.996 68.1863 108.099 68.3631 108.28C68.4036 108.326 68.4533 108.362 68.509 108.387C68.5648 108.413 68.6252 108.426 68.6864 108.426C68.7475 108.426 68.8079 108.413 68.8637 108.387C68.9194 108.362 68.9691 108.326 69.0096 108.28C69.0549 108.241 69.0914 108.194 69.1164 108.14C69.1414 108.086 69.1543 108.028 69.1543 107.968C69.1543 107.909 69.1414 107.851 69.1164 107.797C69.0914 107.743 69.0549 107.695 69.0096 107.657C68.8385 107.481 68.6337 107.342 68.4074 107.247C68.1811 107.153 67.938 107.105 67.6927 107.106C67.4628 107.068 67.2282 107.068 66.9983 107.106L66.0645 105.957C66.2182 105.448 66.537 105.005 66.9705 104.697C67.404 104.389 67.9277 104.234 68.4589 104.257C68.9715 104.245 69.4756 104.39 69.9036 104.672C70.3316 104.955 70.6629 105.361 70.8533 105.837C70.9001 105.95 70.9847 106.043 71.0927 106.101C71.1494 106.125 71.2105 106.138 71.2723 106.138C71.334 106.138 71.3951 106.125 71.4519 106.101C72.0348 105.861 72.6886 105.861 73.2716 106.101C73.3636 106.133 73.4633 106.137 73.5574 106.111C73.6516 106.086 73.7356 106.032 73.7983 105.957C73.9797 105.694 74.2233 105.48 74.5073 105.334C74.7913 105.188 75.1071 105.114 75.4265 105.119C75.8136 105.119 76.1926 105.229 76.5192 105.437C76.8457 105.645 77.1062 105.942 77.2702 106.292C77.3339 106.41 77.435 106.502 77.5575 106.556C77.9373 106.663 78.2775 106.879 78.5369 107.177C78.7962 107.474 78.9634 107.841 79.0181 108.232C79.0427 108.355 79.1107 108.466 79.2096 108.543C79.2692 108.573 79.3347 108.588 79.4012 108.588C79.4676 108.588 79.5332 108.573 79.5927 108.543H79.8322C80.0417 108.543 80.2427 108.626 80.3909 108.774C80.5391 108.923 80.6223 109.124 80.6223 109.333C80.6223 109.543 80.5391 109.744 80.3909 109.892C80.2427 110.04 80.0417 110.123 79.8322 110.123L79.6646 110.099Z" fill="#A8A8A8"/>
  <path d="M101.549 59.9133L87.3982 20.885C86.9624 19.2929 86.1124 17.8447 84.9347 16.688C83.757 15.5314 82.2937 14.7075 80.694 14.3005L25.6234 0.29343C24.4379 -0.0118076 23.2037 -0.0797378 21.9919 0.0935413C20.7801 0.26682 19.6144 0.677893 18.562 1.30313C17.5095 1.92837 16.591 2.75545 15.8593 3.73682C15.1275 4.7182 14.5969 5.83452 14.298 7.02162L0.266959 62.0922C-0.315488 64.4788 0.0634878 66.9987 1.32215 69.1085C2.58082 71.2182 4.61831 72.7486 6.99515 73.3697L27.1318 78.4458C26.9654 79.8206 27.3031 81.2091 28.0825 82.3539C28.8618 83.4986 30.0298 84.3219 31.3699 84.6712L33.2614 85.15C33.7153 85.2647 34.182 85.321 34.6502 85.3176C35.7945 85.3217 36.9132 84.9782 37.8581 84.3326C38.803 83.687 39.5296 82.7697 39.9417 81.7021L42.1685 82.2768C42.5277 85.4134 43.6051 87.4486 45.0417 87.5444L48.1305 87.7599C49.2558 87.7599 50.2854 86.6106 51.0516 84.5754L61.9939 87.3768C62.7767 87.5731 63.5812 87.6696 64.3883 87.6641C66.4576 87.6602 68.4669 86.969 70.1008 85.6992C71.7346 84.4294 72.9004 82.6529 73.4151 80.6486L77.294 65.3725L92.2588 69.9936C92.909 70.1544 93.5764 70.2348 94.2461 70.2331C95.5384 70.2332 96.8117 69.9211 97.9574 69.3232C99.5813 68.4423 100.836 67.0091 101.495 65.2831C102.154 63.5571 102.173 61.6522 101.549 59.9133ZM36.9009 79.0683L36.6136 80.1697C36.4781 80.6976 36.1434 81.1524 35.6797 81.4388C35.4486 81.5786 35.1914 81.6698 34.9238 81.7068C34.6562 81.7439 34.3838 81.726 34.1234 81.6542L32.2318 81.1754C31.9699 81.1169 31.7235 81.0034 31.5088 80.8424C31.2942 80.6814 31.1162 80.4766 30.9868 80.2416C30.7064 79.7741 30.6204 79.2153 30.7473 78.6852L31.0347 77.5838L33.0938 69.4908L38.96 70.9753L36.9009 79.0683ZM45.0896 86.6585C44.3234 86.6585 43.4615 85.174 43.1023 82.5402L45.3051 83.1148C45.4574 84.406 45.8906 85.6483 46.5741 86.7542L45.0896 86.6585ZM48.1544 86.874C47.484 86.874 46.6699 85.605 46.2629 83.3542L50.2375 84.3838C49.5911 86.2035 48.777 86.9937 48.1784 86.9458L48.1544 86.874ZM69.8714 79.6909C69.6871 80.4148 69.3618 81.0952 68.914 81.6931C68.4661 82.291 67.9047 82.7946 67.2618 83.175C66.6189 83.5554 65.9072 83.8051 65.1675 83.9098C64.4279 84.0146 63.6749 83.9722 62.9517 83.7852L40.8516 78.1345L42.9108 70.0176C42.9719 69.788 42.9869 69.5486 42.9549 69.3132C42.9229 69.0778 42.8445 68.8511 42.7242 68.6462C42.604 68.4413 42.4442 68.2623 42.2543 68.1196C42.0644 67.9769 41.848 67.8733 41.6178 67.8148L32.2318 65.4204C32.0018 65.3602 31.7618 65.3483 31.5269 65.3854C31.292 65.4225 31.0674 65.5078 30.8671 65.6359C30.4553 65.8803 30.1547 66.2753 30.029 66.7373L27.9699 74.8542L7.85712 69.7781C7.13157 69.594 6.44941 69.2688 5.8496 68.821C5.24978 68.3732 4.74406 67.8116 4.36134 67.1683C3.64418 65.9036 3.4467 64.4097 3.81063 63.0021L17.8417 7.93148C18.0233 7.20491 18.3476 6.52171 18.7956 5.92157C19.2437 5.32144 19.8066 4.81636 20.4515 4.4357C21.7509 3.67082 23.2987 3.44724 24.7614 3.81316L79.832 17.8442C81.2951 18.2168 82.5505 19.1547 83.3226 20.4521C84.0948 21.7495 84.3205 23.3003 83.9503 24.7639L69.8714 79.6909ZM96.3532 66.1866C95.4042 66.6865 94.3028 66.8146 93.2644 66.5457L78.2038 61.9007L80.5982 52.7302L92.1391 56.2021H92.2827C92.3781 56.2019 92.4711 56.1718 92.5484 56.1159C92.6258 56.0601 92.6836 55.9813 92.7137 55.8908C92.7443 55.7734 92.7291 55.6488 92.6714 55.5421C92.6136 55.4354 92.5175 55.3547 92.4025 55.3161L80.7658 51.8203L82.825 44.2781L88.8588 46.0978C88.9551 46.1016 89.0499 46.073 89.128 46.0165C89.2061 45.9601 89.2631 45.8791 89.2898 45.7865C89.3203 45.6691 89.3052 45.5445 89.2474 45.4379C89.1896 45.3312 89.0935 45.2504 88.9785 45.2119L82.825 43.3922L86.4405 29.1696L98.149 61.1345C98.4971 62.0528 98.5077 63.0649 98.1788 63.9903C97.8498 64.9156 97.2028 65.694 96.3532 66.1866Z" fill="#A8A8A8"/>
</svg>