<svg width="22" height="26" viewBox="0 0 22 26" fill="none" xmlns="http://www.w3.org/2000/svg">
<g id="Group 1000003888">
<path id="Vector" d="M10.0626 26C11.5216 26 12.7154 24.8152 12.7154 23.3671H7.40983C7.40983 24.8152 8.59031 26 10.0626 26ZM18.0209 18.1013V11.5191C18.0209 7.47759 15.8456 4.09432 12.0522 3.19914V2.30396C12.0522 1.2113 11.1635 0.329285 10.0626 0.329285C8.9617 0.329285 8.07302 1.2113 8.07302 2.30396V3.19914C4.26629 4.09432 2.10428 7.46443 2.10428 11.5191V18.1013L0.393243 19.7995C-0.44238 20.6289 0.14123 22.0507 1.32171 22.0507H18.7902C19.9707 22.0507 20.5676 20.6289 19.732 19.7995L18.0209 18.1013Z" fill="black"/>
<path id="Ellipse 124" d="M21.4997 4.93668C21.4997 7.38345 19.5001 9.37336 17.0257 9.37336C14.5513 9.37336 12.5518 7.38345 12.5518 4.93668C12.5518 2.48991 14.5513 0.5 17.0257 0.5C19.5001 0.5 21.4997 2.48991 21.4997 4.93668Z" fill="#FFC107" stroke="white"/>
</g>
</svg>
