<svg width="21" height="26" viewBox="0 0 21 26" fill="none" xmlns="http://www.w3.org/2000/svg">
<path d="M10.0626 25.9999C11.5216 25.9999 12.7154 24.8151 12.7154 23.3671H7.40983C7.40983 24.8151 8.59031 25.9999 10.0626 25.9999ZM18.0209 18.1013V11.519C18.0209 7.47753 15.8456 4.09426 12.0522 3.19908V2.30389C12.0522 1.21124 11.1635 0.329224 10.0626 0.329224C8.9617 0.329224 8.07302 1.21124 8.07302 2.30389V3.19908C4.26629 4.09426 2.10428 7.46437 2.10428 11.519V18.1013L0.393243 19.7995C-0.44238 20.6288 0.14123 22.0506 1.32171 22.0506H18.7902C19.9707 22.0506 20.5676 20.6288 19.732 19.7995L18.0209 18.1013Z" fill="black"/>
</svg>
