<svg xmlns="http://www.w3.org/2000/svg" width="24" height="24" viewBox="0 0 24 24" fill="none">
  <path d="M10.5 22V20M14.5 22V20" stroke="#013131" stroke-linecap="round"/>
  <path d="M11 20V20.5H11.5V20H11ZM14 19.5C13.7239 19.5 13.5 19.7239 13.5 20C13.5 20.2761 13.7239 20.5 14 20.5V19.5ZM17.5 5.5C17.2239 5.5 17 5.72386 17 6C17 6.27614 17.2239 6.5 17.5 6.5V5.5ZM7 5.5C6.72386 5.5 6.5 5.72386 6.5 6C6.5 6.27614 6.72386 6.5 7 6.5V5.5ZM9 19.5C8.72386 19.5 8.5 19.7239 8.5 20C8.5 20.2761 8.72386 20.5 9 20.5V19.5ZM15 20.5C15.2761 20.5 15.5 20.2761 15.5 20C15.5 19.7239 15.2761 19.5 15 19.5V20.5ZM10.5 11.25V20H11.5V11.25H10.5ZM11 19.5H4.23256V20.5H11V19.5ZM2.5 17.3953V11.25H1.5V17.3953H2.5ZM4.23256 19.5C3.34523 19.5 2.5 18.6328 2.5 17.3953H1.5C1.5 19.0349 2.65387 20.5 4.23256 20.5V19.5ZM6.5 6.5C8.63961 6.5 10.5 8.55156 10.5 11.25H11.5C11.5 8.14945 9.33096 5.5 6.5 5.5V6.5ZM6.5 5.5C3.66904 5.5 1.5 8.14945 1.5 11.25H2.5C2.5 8.55156 4.36039 6.5 6.5 6.5V5.5ZM21.5 11.25V17.4253H22.5V11.25H21.5ZM19.7931 19.5H14V20.5H19.7931V19.5ZM21.5 17.4253C21.5 18.6462 20.6663 19.5 19.7931 19.5V20.5C21.3576 20.5 22.5 19.0483 22.5 17.4253H21.5ZM22.5 11.25C22.5 8.14945 20.331 5.5 17.5 5.5V6.5C19.6396 6.5 21.5 8.55156 21.5 11.25H22.5ZM7 6.5H18V5.5H7V6.5ZM9 20.5H15V19.5H9V20.5Z" fill="#013131"/>
  <path d="M5 16H8" stroke="#013131" stroke-linecap="round"/>
  <path d="M16 9.88432V5.41121M16 5.41121V2.63519C16 2.39905 16.1676 2.19612 16.3994 2.15144L16.8855 2.05779C17.4738 1.94443 18.0821 1.99855 18.6412 2.214L18.7203 2.24451C19.2746 2.4581 19.8807 2.498 20.4582 2.35891C20.7343 2.2924 21 2.50168 21 2.78573V5.00723C21 5.2442 20.8376 5.45031 20.6073 5.5058L20.5407 5.52184C19.9095 5.67387 19.247 5.63026 18.6412 5.39679C18.0821 5.18135 17.4738 5.12722 16.8855 5.24058L16 5.41121Z" stroke="#013131" stroke-linecap="round"/>
</svg>