<svg xmlns="http://www.w3.org/2000/svg" width="20" height="20" viewBox="0 0 20 20" fill="none">
  <path d="M7.49992 9.99984C7.49992 11.1504 6.56718 12.0832 5.41659 12.0832C4.26599 12.0832 3.33325 11.1504 3.33325 9.99984C3.33325 8.84924 4.26599 7.9165 5.41659 7.9165C6.56718 7.9165 7.49992 8.84924 7.49992 9.99984Z" stroke="#1C274C" stroke-width="1.5"/>
  <path d="M11.6667 5.4165L7.5 8.33317" stroke="#1C274C" stroke-width="1.5" stroke-linecap="round"/>
  <path d="M11.6667 14.5835L7.5 11.6668" stroke="#1C274C" stroke-width="1.5" stroke-linecap="round"/>
  <path d="M15.8334 15.4168C15.8334 16.5674 14.9007 17.5002 13.7501 17.5002C12.5995 17.5002 11.6667 16.5674 11.6667 15.4168C11.6667 14.2662 12.5995 13.3335 13.7501 13.3335C14.9007 13.3335 15.8334 14.2662 15.8334 15.4168Z" stroke="#1C274C" stroke-width="1.5"/>
  <path d="M15.8334 4.58333C15.8334 5.73393 14.9007 6.66667 13.7501 6.66667C12.5995 6.66667 11.6667 5.73393 11.6667 4.58333C11.6667 3.43274 12.5995 2.5 13.7501 2.5C14.9007 2.5 15.8334 3.43274 15.8334 4.58333Z" stroke="#1C274C" stroke-width="1.5"/>
</svg>