<svg xmlns="http://www.w3.org/2000/svg" width="16" height="16" viewBox="0 0 16 16" fill="none">
  <path d="M10.3333 11.3333C10.5985 11.3333 10.8528 11.4387 11.0404 11.6262C11.2279 11.8138 11.3333 12.0681 11.3333 12.3333C11.3333 12.5985 11.2279 12.8529 11.0404 13.0404C10.8528 13.228 10.5985 13.3333 10.3333 13.3333C10.068 13.3333 9.81368 13.228 9.62614 13.0404C9.43861 12.8529 9.33325 12.5985 9.33325 12.3333C9.33325 12.0681 9.43861 11.8138 9.62614 11.6262C9.81368 11.4387 10.068 11.3333 10.3333 11.3333ZM10.3333 6.66667C10.5985 6.66667 10.8528 6.77202 11.0404 6.95956C11.2279 7.1471 11.3333 7.40145 11.3333 7.66667C11.3333 7.93188 11.2279 8.18624 11.0404 8.37377C10.8528 8.56131 10.5985 8.66667 10.3333 8.66667C10.068 8.66667 9.81368 8.56131 9.62614 8.37377C9.43861 8.18624 9.33325 7.93188 9.33325 7.66667C9.33325 7.40145 9.43861 7.1471 9.62614 6.95956C9.81368 6.77202 10.068 6.66667 10.3333 6.66667ZM10.3333 2C10.5985 2 10.8528 2.10536 11.0404 2.29289C11.2279 2.48043 11.3333 2.73478 11.3333 3C11.3333 3.26522 11.2279 3.51957 11.0404 3.70711C10.8528 3.89464 10.5985 4 10.3333 4C10.068 4 9.81368 3.89464 9.62614 3.70711C9.43861 3.51957 9.33325 3.26522 9.33325 3C9.33325 2.73478 9.43861 2.48043 9.62614 2.29289C9.81368 2.10536 10.068 2 10.3333 2Z" fill="#667085"/>
</svg>