<svg width="43" height="43" viewBox="0 0 43 43" fill="none" xmlns="http://www.w3.org/2000/svg">
<g id="Bold / Money / Verified Check">
<path id="Subtract" fill-rule="evenodd" clip-rule="evenodd" d="M17.1864 5.73382C16.75 6.10565 16.5319 6.29158 16.2989 6.44774C15.7648 6.80572 15.165 7.05418 14.5342 7.17871C14.259 7.23304 13.9732 7.25584 13.4018 7.30144C11.966 7.41602 11.2481 7.47331 10.6491 7.68487C9.26381 8.17418 8.17416 9.26383 7.68485 10.6491C7.47329 11.2481 7.416 11.966 7.30142 13.4018C7.25582 13.9733 7.23302 14.259 7.17869 14.5342C7.05416 15.165 6.8057 15.7648 6.44772 16.2989C6.29155 16.5319 6.10564 16.7501 5.7338 17.1864C4.79956 18.2827 4.33242 18.8308 4.05849 19.4039C3.42492 20.7295 3.42492 22.2705 4.05849 23.5961C4.33242 24.1692 4.79955 24.7173 5.7338 25.8136C6.10559 26.2499 6.29156 26.4681 6.44772 26.7011C6.8057 27.2352 7.05416 27.835 7.17869 28.4658C7.23302 28.741 7.25582 29.0267 7.30142 29.5982C7.416 31.034 7.47329 31.7519 7.68485 32.3509C8.17416 33.7362 9.26381 34.8258 10.6491 35.3151C11.2481 35.5267 11.966 35.584 13.4018 35.6986C13.9732 35.7442 14.259 35.767 14.5342 35.8213C15.165 35.9458 15.7648 36.1943 16.2989 36.5523C16.5319 36.7084 16.75 36.8943 17.1864 37.2662C18.2827 38.2004 18.8308 38.6676 19.4039 38.9415C20.7295 39.5751 22.2705 39.5751 23.596 38.9415C24.1691 38.6676 24.7173 38.2004 25.8136 37.2662C26.2499 36.8943 26.4681 36.7084 26.7011 36.5523C27.2352 36.1943 27.835 35.9458 28.4658 35.8213C28.741 35.767 29.0267 35.7442 29.5982 35.6986C31.034 35.584 31.7519 35.5267 32.3508 35.3151C33.7361 34.8258 34.8258 33.7362 35.3151 32.3509C35.5267 31.7519 35.584 31.034 35.6985 29.5982C35.7441 29.0267 35.7669 28.741 35.8213 28.4658C35.9458 27.835 36.1943 27.2352 36.5522 26.7011C36.7084 26.4681 36.8943 26.2499 37.2662 25.8136C38.2004 24.7173 38.6675 24.1692 38.9415 23.5961C39.575 22.2705 39.575 20.7295 38.9415 19.4039C38.6675 18.8308 38.2004 18.2827 37.2662 17.1864C36.8943 16.7501 36.7084 16.5319 36.5522 16.2989C36.1943 15.7648 35.9458 15.165 35.8213 14.5342C35.7669 14.259 35.7441 13.9733 35.6985 13.4018C35.584 11.966 35.5267 11.2481 35.3151 10.6491C34.8258 9.26383 33.7361 8.17418 32.3508 7.68487C31.7519 7.47331 31.034 7.41602 29.5982 7.30144C29.0267 7.25584 28.741 7.23304 28.4658 7.17871C27.835 7.05418 27.2352 6.80572 26.7011 6.44774C26.4681 6.29157 26.2499 6.10566 25.8136 5.73382C24.7173 4.79957 24.1691 4.33244 23.596 4.05851C22.2705 3.42494 20.7295 3.42494 19.4039 4.05851C18.8308 4.33244 18.2826 4.79958 17.1864 5.73382ZM29.3358 17.6715C29.9053 17.102 29.9053 16.1787 29.3358 15.6093C28.7664 15.0398 27.8431 15.0398 27.2736 15.6093L18.5836 24.2993L15.7263 21.442C15.1568 20.8725 14.2336 20.8725 13.6641 21.442C13.0947 22.0114 13.0947 22.9347 13.6641 23.5041L17.5525 27.3926C18.122 27.962 19.0453 27.962 19.6147 27.3926L29.3358 17.6715Z" fill="#EFA705"/>
</g>
</svg>
