<svg xmlns="http://www.w3.org/2000/svg" width="20" height="20" viewBox="0 0 20 20" fill="none">
  <path d="M15.8334 11.6665V16.6665M15.8334 16.6665L17.5001 14.9998M15.8334 16.6665L14.1667 14.9998" stroke="#013131" stroke-width="1.5" stroke-linecap="round" stroke-linejoin="round"/>
  <path d="M18.3334 10.0002C18.3334 6.85747 18.3334 5.28612 17.3571 4.30981C16.3808 3.3335 14.8094 3.3335 11.6667 3.3335H8.33341C5.19072 3.3335 3.61937 3.3335 2.64306 4.30981C1.66675 5.28612 1.66675 6.85747 1.66675 10.0002C1.66675 13.1429 1.66675 14.7142 2.64306 15.6905C3.61937 16.6668 5.19072 16.6668 8.33341 16.6668H11.6667" stroke="#013131" stroke-width="1.5" stroke-linecap="round"/>
  <path d="M8.33333 13.3335H5" stroke="#013131" stroke-width="1.5" stroke-linecap="round"/>
  <path d="M10.8334 13.3335H10.4167" stroke="#013131" stroke-width="1.5" stroke-linecap="round"/>
  <path d="M1.66675 8.3335L18.3334 8.3335" stroke="#013131" stroke-width="1.5" stroke-linecap="round"/>
</svg>