<svg xmlns="http://www.w3.org/2000/svg" width="779" height="221" viewBox="0 0 779 221" fill="none">
  <path d="M471.605 15.763L376.738 68.0255C371.287 70.1295 365.904 72.5879 360.622 75.3826C330.539 84.65 295.83 70.1009 278.775 39.1429C259.471 4.10087 269.976 -38.8595 302.188 -56.6056L541.558 -188.475L492.488 -277.548L253.118 -145.678C175.755 -103.059 150.532 0.0939186 196.894 84.2514C208.543 105.397 223.619 123.341 240.887 137.727C212.544 143.039 181.651 128.416 165.872 99.7746L82.5362 -51.4968L0.65504 -6.38825L83.9908 144.883C130.353 229.041 231.023 262.838 308.386 220.219L403.253 167.956C408.704 165.852 414.087 163.394 419.369 160.599C449.452 151.332 484.161 165.881 501.225 196.857C520.53 231.899 510.025 274.859 477.812 292.605L238.442 424.475L287.513 513.547L526.882 381.678C604.245 339.059 629.469 235.906 583.106 151.748C571.457 130.603 556.381 112.659 539.113 98.273C567.456 92.9604 598.35 107.583 614.129 136.225L696.89 286.453L778.771 241.345L696.01 91.1166C649.647 6.9591 548.977 -26.8387 471.614 15.7807L471.605 15.763Z" fill="#14BA6D" fill-opacity="0.1"/>
</svg>