<svg width="115" height="24" viewBox="0 0 115 24" fill="none" xmlns="http://www.w3.org/2000/svg">
<path d="M16.0558 8.54334H11.9747C11.7565 8.51609 11.5342 8.50072 11.309 8.49723C10.1477 8.27575 9.26668 7.25499 9.26668 6.03162C9.26668 4.64686 10.3945 3.5199 11.7803 3.5199H22.078V0H11.7803C8.45213 0 5.74415 2.70595 5.74415 6.03162C5.74415 6.86723 5.91545 7.66302 6.2238 8.38754C5.19179 8.07523 4.43806 7.11596 4.43806 5.98411V0.00628778H0.915527V5.98411C0.915527 9.30978 3.6235 12.0157 6.95166 12.0157H11.0328C11.251 12.043 11.4733 12.0583 11.6985 12.0618C12.8598 12.2833 13.7408 13.3041 13.7408 14.5281C13.7408 15.9129 12.613 17.0399 11.2272 17.0399H0.929512V20.5598H11.2272C14.5554 20.5598 17.2633 17.8538 17.2633 14.5281C17.2633 13.6925 17.092 12.8968 16.7837 12.1722C17.8157 12.4845 18.5694 13.4438 18.5694 14.5757V20.5123H22.092V14.5757C22.092 11.25 19.384 8.54404 16.0558 8.54404V8.54334Z" fill="#EFA705"/>
<path d="M40.8532 9.44591C40.1449 9.30967 37.8033 8.8744 37.2041 8.73816C35.7058 8.46638 34.3717 7.94936 34.3717 6.34382C34.3717 4.54754 36.0603 3.70354 38.1026 3.70354C40.5267 3.70354 41.7789 4.57478 42.188 6.31657H45.5105C45.0749 2.99649 42.297 0.84668 38.1571 0.84668C33.5816 0.84668 31.0764 3.32277 31.0764 6.42556C31.0764 9.33692 32.9006 10.9697 35.9239 11.5412L39.7093 12.2762C41.4524 12.6298 42.6508 13.3375 42.6508 15.161C42.6508 17.0929 40.9078 18.1276 38.4837 18.1276C36.0596 18.1276 34.0445 17.3381 33.6089 14.943H30.2863C30.6401 18.5356 33.6362 20.9844 38.348 20.9844C43.4675 20.9844 45.9461 18.1814 45.9461 15.0248C45.9461 11.6502 43.822 10.0992 40.8532 9.44591Z" fill="white"/>
<path d="M52.7516 24L60.1896 6.77917H57.0306L53.5172 15.1339H52.8089L48.9417 6.77917H45.7009L51.5832 19.2707L49.5954 24H52.7516Z" fill="white"/>
<path d="M68.2504 6.42554C66.3989 6.42554 65.0369 7.05085 64.2468 8.11283H63.5938V6.77906H60.625V20.6309H63.7021V13.2285C63.7021 11.0514 65.0914 9.1741 67.2974 9.1741C69.3397 9.1741 70.3745 10.3171 70.3745 12.5759V20.6309H73.4524V11.9772C73.4524 8.52085 71.7093 6.42554 68.2504 6.42554Z" fill="white"/>
<path d="M84.4822 16.195C84.1823 17.5833 83.202 18.3721 81.4589 18.3721C78.7355 18.3721 77.6462 16.195 77.6462 13.6645C77.6462 11.1339 78.7083 9.03786 81.4589 9.03786C83.0929 9.03786 83.9648 9.80011 84.3731 10.9969H87.423C87.0147 8.27562 84.836 6.42554 81.4316 6.42554C77.1288 6.42554 74.5684 9.44589 74.5684 13.6917C74.5684 17.9375 77.1288 20.9844 81.4316 20.9844C84.7815 20.9844 87.0965 19.0526 87.5321 16.195H84.4822Z" fill="white"/>
<path d="M98.8062 1.2002H93.5777L87.1227 20.6309H90.3915L92.1611 15.052H100.141L101.939 20.6309H105.288L98.8062 1.2002ZM93.0876 12.14L95.5382 4.38404H96.7094L99.188 12.14H93.0876Z" fill="white"/>
<path d="M105.805 0.84668V20.6309H108.883V0.84668H105.805Z" fill="white"/>
<path d="M111.007 0.84668V20.6309H114.084V0.84668H111.007Z" fill="white"/>
</svg>
