<svg width="145" height="145" viewBox="0 0 145 145" fill="none" xmlns="http://www.w3.org/2000/svg">
<path d="M59.0947 23.5066C62.5015 20.6034 64.2048 19.1518 65.9858 18.3006C70.1049 16.3318 74.8936 16.3318 79.0128 18.3006C80.7937 19.1518 82.4971 20.6034 85.9038 23.5066C87.2597 24.6621 87.9377 25.2398 88.6617 25.7251C90.3214 26.8375 92.1854 27.6096 94.1456 27.9966C95.0007 28.1654 95.8886 28.2363 97.6644 28.378C102.126 28.7341 104.357 28.9121 106.218 29.5695C110.523 31.09 113.909 34.4761 115.43 38.781C116.087 40.6422 116.265 42.8731 116.621 47.3349C116.763 49.1107 116.834 49.9986 117.003 50.8537C117.39 52.8139 118.162 54.6779 119.274 56.3376C119.759 57.0616 120.337 57.7396 121.493 59.0955C124.396 62.5022 125.847 64.2056 126.699 65.9865C128.668 70.1057 128.668 74.8943 126.699 79.0135C125.847 80.7945 124.396 82.4978 121.493 85.9046C120.337 87.2604 119.759 87.9384 119.274 88.6624C118.162 90.3222 117.39 92.1861 117.003 94.1463C116.834 95.0014 116.763 95.8893 116.621 97.6651C116.265 102.127 116.087 104.358 115.43 106.219C113.909 110.524 110.523 113.91 106.218 115.431C104.357 116.088 102.126 116.266 97.6644 116.622C95.8886 116.764 95.0007 116.835 94.1456 117.003C92.1854 117.39 90.3214 118.162 88.6617 119.275C87.9377 119.76 87.2597 120.338 85.9038 121.493C82.4971 124.397 80.7937 125.848 79.0128 126.699C74.8936 128.668 70.105 128.668 65.9858 126.699C64.2048 125.848 62.5015 124.397 59.0947 121.493C57.7389 120.338 57.0609 119.76 56.3369 119.275C54.6771 118.162 52.8132 117.39 50.853 117.003C49.9979 116.835 49.11 116.764 47.3342 116.622C42.8724 116.266 40.6415 116.088 38.7802 115.431C34.4754 113.91 31.0893 110.524 29.5688 106.219C28.9114 104.358 28.7333 102.127 28.3773 97.6651C28.2356 95.8893 28.1647 95.0014 27.9959 94.1463C27.6089 92.1861 26.8368 90.3222 25.7244 88.6624C25.2391 87.9384 24.6614 87.2604 23.5059 85.9046C20.6027 82.4978 19.1511 80.7945 18.2999 79.0135C16.331 74.8943 16.331 70.1057 18.2999 65.9865C19.1511 64.2056 20.6027 62.5022 23.5059 59.0955C24.6614 57.7396 25.2391 57.0616 25.7244 56.3376C26.8368 54.6779 27.6089 52.8139 27.9959 50.8537C28.1647 49.9986 28.2356 49.1107 28.3773 47.3349C28.7333 42.8731 28.9114 40.6422 29.5688 38.781C31.0893 34.4761 34.4754 31.09 38.7802 29.5695C40.6415 28.9121 42.8724 28.7341 47.3342 28.378C49.11 28.2363 49.9979 28.1654 50.853 27.9966C52.8132 27.6096 54.6771 26.8375 56.3369 25.7251C57.0609 25.2398 57.7389 24.6621 59.0947 23.5066Z" stroke="#013131" stroke-width="9.88636"/>
<path d="M51.3547 75.5211L63.4381 87.6045L93.6464 57.3961" stroke="#013131" stroke-width="9.88636" stroke-linecap="round" stroke-linejoin="round"/>
</svg>
