<svg xmlns="http://www.w3.org/2000/svg" width="80" height="80" viewBox="0 0 80 80" fill="none">
  <path fill-rule="evenodd" clip-rule="evenodd" d="M31.9748 10.6674C31.163 11.3592 30.7571 11.7051 30.3236 11.9956C29.3299 12.6616 28.214 13.1239 27.0404 13.3556C26.5284 13.4567 25.9969 13.4991 24.9337 13.5839C22.2624 13.7971 20.9268 13.9037 19.8124 14.2973C17.2351 15.2076 15.2078 17.2349 14.2975 19.8122C13.9039 20.9265 13.7973 22.2622 13.5842 24.9334C13.4993 25.9966 13.4569 26.5282 13.3558 27.0402C13.1241 28.2137 12.6619 29.3297 11.9959 30.3234C11.7053 30.7569 11.3594 31.1627 10.6677 31.9745C8.92953 34.0141 8.06043 35.0339 7.5508 36.1002C6.37206 38.5663 6.37206 41.4333 7.5508 43.8995C8.06043 44.9657 8.92951 45.9855 10.6677 48.0252C11.3594 48.8368 11.7054 49.2428 11.9959 49.6763C12.6619 50.67 13.1241 51.7859 13.3558 52.9595C13.4569 53.4715 13.4993 54.0031 13.5842 55.0662C13.7973 57.7375 13.9039 59.0732 14.2975 60.1875C15.2078 62.7648 17.2351 64.7921 19.8124 65.7024C20.9268 66.096 22.2624 66.2026 24.9337 66.4157C25.9969 66.5006 26.5285 66.543 27.0404 66.6441C28.214 66.8758 29.3299 67.338 30.3236 68.004C30.7571 68.2946 31.163 68.6405 31.9748 69.3323C34.0144 71.0704 35.0342 71.9395 36.1004 72.4491C38.5666 73.6279 41.4336 73.6279 43.8997 72.4491C44.966 71.9395 45.9858 71.0704 48.0254 69.3323C48.8372 68.6405 49.2431 68.2946 49.6765 68.004C50.6702 67.338 51.7862 66.8758 52.9597 66.6441C53.4717 66.543 54.0033 66.5006 55.0665 66.4157C57.7378 66.2026 59.0734 66.096 60.1877 65.7024C62.765 64.7921 64.7923 62.7648 65.7026 60.1875C66.0962 59.0732 66.2028 57.7375 66.416 55.0662C66.5008 54.0031 66.5433 53.4715 66.6443 52.9595C66.876 51.7859 67.3383 50.67 68.0043 49.6763C68.2948 49.2428 68.6407 48.8369 69.3325 48.0252C71.0707 45.9855 71.9397 44.9657 72.4494 43.8995C73.6281 41.4333 73.6281 38.5663 72.4494 36.1002C71.9397 35.0339 71.0707 34.0141 69.3325 31.9745C68.6407 31.1627 68.2948 30.7569 68.0043 30.3234C67.3383 29.3297 66.876 28.2137 66.6443 27.0402C66.5433 26.5282 66.5008 25.9966 66.416 24.9334C66.2028 22.2622 66.0962 20.9265 65.7026 19.8122C64.7923 17.2349 62.765 15.2076 60.1877 14.2973C59.0734 13.9037 57.7378 13.7971 55.0665 13.5839C54.0033 13.4991 53.4717 13.4567 52.9597 13.3556C51.7862 13.1239 50.6702 12.6616 49.6765 11.9956C49.2431 11.7051 48.8372 11.3592 48.0254 10.6674C45.9858 8.92926 44.966 8.06019 43.8997 7.55056C41.4336 6.37182 38.5666 6.37182 36.1004 7.55056C35.0342 8.06019 34.0143 8.92928 31.9748 10.6674ZM54.5784 32.877C55.6378 31.8175 55.6378 30.0998 54.5784 29.0404C53.5189 27.9809 51.8012 27.9809 50.7418 29.0404L34.5743 45.2079L29.2583 39.8918C28.1988 38.8324 26.4811 38.8324 25.4217 39.8918C24.3623 40.9513 24.3623 42.669 25.4217 43.7284L32.656 50.9627C33.7155 52.0222 35.4331 52.0222 36.4926 50.9627L54.5784 32.877Z" fill="#013131"/>
</svg>