<svg xmlns="http://www.w3.org/2000/svg" width="25" height="25" viewBox="0 0 25 25" fill="none">
  <path fill-rule="evenodd" clip-rule="evenodd" d="M6.59555 4.9241C4.93656 5.68243 3.72119 7.48614 3.72119 9.63701C3.72119 11.8344 4.62041 13.5281 5.90948 14.9797C6.97192 16.176 8.25803 17.1675 9.51232 18.1345C9.81023 18.3642 10.1063 18.5925 10.3972 18.8218C10.9233 19.2365 11.3925 19.6004 11.8448 19.8647C12.2973 20.1292 12.6616 20.2499 12.9712 20.2499C13.2808 20.2499 13.645 20.1292 14.0976 19.8647C14.5499 19.6004 15.0191 19.2365 15.5451 18.8218C15.836 18.5925 16.1322 18.3642 16.4301 18.1345C17.6844 17.1675 18.9705 16.176 20.0329 14.9797C21.322 13.5281 22.2212 11.8344 22.2212 9.63701C22.2212 7.48614 21.0058 5.68243 19.3468 4.9241C17.7351 4.18739 15.5695 4.38249 13.5116 6.52065C13.3702 6.66754 13.1751 6.75054 12.9712 6.75054C12.7673 6.75054 12.5722 6.66754 12.4308 6.52065C10.3729 4.38249 8.20726 4.18739 6.59555 4.9241ZM12.9712 4.95873C10.6591 2.89015 8.07015 2.60078 5.97195 3.55987C3.7559 4.57283 2.22119 6.92494 2.22119 9.63701C2.22119 12.3025 3.33169 14.336 4.78791 15.9757C5.95406 17.2888 7.38141 18.3879 8.64202 19.3585C8.92778 19.5785 9.20497 19.792 9.46861 19.9998C9.98085 20.4036 10.5307 20.8342 11.088 21.1598C11.645 21.4853 12.2808 21.7499 12.9712 21.7499C13.6616 21.7499 14.2973 21.4853 14.8544 21.1598C15.4116 20.8342 15.9615 20.4036 16.4738 19.9998C16.7374 19.792 17.0146 19.5785 17.3004 19.3585C18.561 18.3879 19.9883 17.2888 21.1545 15.9757C22.6107 14.336 23.7212 12.3025 23.7212 9.63701C23.7212 6.92494 22.1865 4.57283 19.9704 3.55987C17.8722 2.60078 15.2832 2.89015 12.9712 4.95873Z" fill="#667185"/>
</svg>