<svg width="45" height="45" viewBox="0 0 45 45" fill="none" xmlns="http://www.w3.org/2000/svg">
<g clip-path="url(#clip0_2684_1609)">
<path fill-rule="evenodd" clip-rule="evenodd" d="M5.32798 0C4.44656 0 3.73203 0.714533 3.73203 1.59595V43.204C3.73203 44.0855 4.44656 44.8 5.32798 44.8H39.4694C40.3508 44.8 41.0654 44.0855 41.0654 43.204V7.46532L33.6 0H5.32798Z" fill="#E4E7EC"/>
<path fill-rule="evenodd" clip-rule="evenodd" d="M41.0654 7.46532V7.46667H33.6001V0L41.0654 7.46532Z" fill="#98A2B3"/>
<rect x="1.8674" y="18.6667" width="41.0667" height="18.6667" rx="1.59595" fill="#037847"/>
<path d="M18.6332 26.5108H17.3036C17.2525 26.2267 17.1573 25.9767 17.0181 25.7608C16.8789 25.5449 16.7085 25.3617 16.5067 25.2111C16.305 25.0605 16.0792 24.9469 15.8292 24.8702C15.582 24.7935 15.3192 24.7551 15.0408 24.7551C14.538 24.7551 14.0877 24.8816 13.69 25.1344C13.2951 25.3872 12.9826 25.758 12.7525 26.2466C12.5252 26.7353 12.4116 27.3318 12.4116 28.0364C12.4116 28.7466 12.5252 29.346 12.7525 29.8347C12.9826 30.3233 13.2965 30.6926 13.6942 30.9426C14.092 31.1926 14.5394 31.3176 15.0366 31.3176C15.3121 31.3176 15.5735 31.2807 15.8207 31.2068C16.0707 31.1301 16.2965 31.0179 16.4982 30.8702C16.6999 30.7225 16.8704 30.5421 17.0096 30.329C17.1516 30.1131 17.2496 29.8659 17.3036 29.5875L18.6332 29.5918C18.5621 30.0208 18.4244 30.4156 18.2198 30.7764C18.0181 31.1344 17.7582 31.4441 17.44 31.7054C17.1246 31.9639 16.7638 32.1642 16.3576 32.3063C15.9513 32.4483 15.5082 32.5193 15.0281 32.5193C14.2724 32.5193 13.5991 32.3404 13.0082 31.9824C12.4173 31.6216 11.9513 31.106 11.6104 30.4355C11.2724 29.7651 11.1033 28.9654 11.1033 28.0364C11.1033 27.1046 11.2738 26.3049 11.6147 25.6372C11.9556 24.9668 12.4215 24.4526 13.0124 24.0946C13.6033 23.7338 14.2752 23.5534 15.0281 23.5534C15.4911 23.5534 15.9229 23.6202 16.3235 23.7537C16.7269 23.8844 17.0891 24.0776 17.4102 24.3333C17.7312 24.5861 17.9968 24.8958 18.207 25.2622C18.4173 25.6259 18.5593 26.0421 18.6332 26.5108ZM24.9688 25.9654C24.9233 25.562 24.7358 25.2495 24.4062 25.0279C24.0767 24.8034 23.6619 24.6912 23.1619 24.6912C22.804 24.6912 22.4943 24.748 22.233 24.8617C21.9716 24.9725 21.7685 25.1259 21.6236 25.3219C21.4815 25.5151 21.4105 25.7353 21.4105 25.9824C21.4105 26.1898 21.4588 26.3688 21.5554 26.5193C21.6548 26.6699 21.7841 26.7963 21.9432 26.8986C22.1051 26.998 22.2784 27.0818 22.4631 27.15C22.6477 27.2154 22.8253 27.2693 22.9957 27.312L23.848 27.5335C24.1264 27.6017 24.4119 27.6941 24.7045 27.8105C24.9972 27.927 25.2685 28.0804 25.5185 28.2708C25.7685 28.4611 25.9702 28.6969 26.1236 28.9781C26.2798 29.2594 26.358 29.596 26.358 29.9881C26.358 30.4824 26.2301 30.9213 25.9744 31.3049C25.7216 31.6884 25.3537 31.9909 24.8707 32.2125C24.3906 32.4341 23.8097 32.5449 23.1278 32.5449C22.4744 32.5449 21.9091 32.4412 21.4318 32.2338C20.9545 32.0264 20.581 31.7324 20.3111 31.3517C20.0412 30.9682 19.892 30.5137 19.8636 29.9881H21.1847C21.2102 30.3034 21.3125 30.5662 21.4915 30.7764C21.6733 30.9838 21.9048 31.1387 22.1861 31.2409C22.4702 31.3404 22.7812 31.3901 23.1193 31.3901C23.4915 31.3901 23.8224 31.3318 24.1122 31.2154C24.4048 31.096 24.6349 30.9313 24.8026 30.721C24.9702 30.508 25.054 30.2594 25.054 29.9753C25.054 29.7168 24.9801 29.5051 24.8324 29.3404C24.6875 29.1756 24.4901 29.0392 24.2401 28.9313C23.9929 28.8233 23.7131 28.7281 23.4006 28.6458L22.3693 28.3645C21.6705 28.1742 21.1165 27.8943 20.7074 27.525C20.3011 27.1557 20.098 26.6671 20.098 26.0591C20.098 25.5563 20.2344 25.1174 20.5071 24.7424C20.7798 24.3674 21.1491 24.0762 21.6151 23.8688C22.081 23.6585 22.6065 23.5534 23.1918 23.5534C23.7827 23.5534 24.304 23.6571 24.7557 23.8645C25.2102 24.0719 25.5682 24.3574 25.8295 24.721C26.0909 25.0818 26.2273 25.4966 26.2386 25.9654H24.9688ZM28.6942 23.6728L31.1232 30.7807H31.2212L33.6502 23.6728H35.0735L31.9329 32.4H30.4116L27.271 23.6728H28.6942Z" fill="white"/>
</g>
<defs>
<clipPath id="clip0_2684_1609">
<rect width="44.8" height="44.8" fill="white"/>
</clipPath>
</defs>
</svg>
