<svg width="167" height="51" viewBox="0 0 167 51" fill="none" xmlns="http://www.w3.org/2000/svg">
<g id="Group 20">
<g id="Group">
<path id="Vector" fill-rule="evenodd" clip-rule="evenodd" d="M34.0001 0.0342705C35.2077 -0.125957 36.1736 0.275666 36.8986 1.23899C37.2871 2.19207 37.2366 3.12068 36.748 4.0249C35.95 4.8347 34.9841 5.14838 33.8495 4.96609C32.3604 4.57945 31.6956 3.61319 31.8545 2.06723C32.1014 0.885178 32.8166 0.207524 34.0001 0.0342705Z" fill="white"/>
</g>
<g id="Group_2">
<path id="Vector_2" fill-rule="evenodd" clip-rule="evenodd" d="M109.511 0.0343081C110.636 -0.0804414 111.577 0.27096 112.334 1.08844C112.795 2.07548 112.77 3.05431 112.259 4.02494C111.486 4.81794 110.545 5.1317 109.436 4.96612C107.834 4.53815 107.169 3.49652 107.441 1.84139C107.77 0.82114 108.461 0.218781 109.511 0.0343081Z" fill="white"/>
</g>
<g id="Group_3">
<path id="Vector_3" fill-rule="evenodd" clip-rule="evenodd" d="M126.827 0.184953C128.082 0.172379 129.337 0.184953 130.591 0.222601C130.797 0.252568 130.935 0.365511 131.005 0.561428C131.081 8.17231 131.055 15.7771 130.93 23.3758C130.862 23.4662 130.774 23.529 130.667 23.564C129.537 23.6142 128.408 23.6142 127.279 23.564C127.197 23.492 127.109 23.4293 127.015 23.3758C126.877 23.0213 126.739 22.6699 126.601 22.3217C124.115 24.3064 121.455 24.5699 118.621 23.1123C117.098 22.0126 116.106 20.5443 115.647 18.7075C115.171 16.5163 115.195 14.3328 115.722 12.1568C116.825 8.51784 119.272 6.79863 123.063 6.99914C124.181 7.17955 125.211 7.58117 126.149 8.20386C126.247 8.24076 126.347 8.25333 126.451 8.24151C126.438 5.68133 126.451 3.1213 126.488 0.561428C126.565 0.396758 126.678 0.271241 126.827 0.184953Z" fill="white"/>
</g>
<g id="Group_4">
<path id="Vector_4" fill-rule="evenodd" clip-rule="evenodd" d="M157.468 6.96151C159.706 6.73856 161.763 7.22798 163.642 8.42976C165.178 9.69336 166.119 11.3122 166.465 13.2863C166.673 15.0901 166.597 16.8721 166.239 18.6322C165.435 21.5695 163.541 23.3389 160.555 23.9405C154.083 24.7186 150.745 21.8448 150.542 15.3192C150.554 13.2875 151.119 11.4302 152.236 9.74742C153.593 8.09643 155.337 7.16782 157.468 6.96151Z" fill="white"/>
</g>
<g id="Group_5">
<path id="Vector_5" fill-rule="evenodd" clip-rule="evenodd" d="M9.45738 6.96156C12.6977 6.82897 14.9186 8.25957 16.1201 11.2534C16.5899 12.5286 16.803 13.8462 16.76 15.2064C16.8564 17.5018 16.2669 19.5975 14.9908 21.4935C13.4174 23.4578 11.3719 24.2734 8.8551 23.9406C8.41769 23.8869 7.99158 23.7865 7.57525 23.6394C6.86983 23.3367 6.19226 22.9979 5.54255 22.6229C5.57944 25.064 5.54179 27.4982 5.42962 29.9265C5.36186 30.0169 5.27378 30.0794 5.16612 30.1147C3.88627 30.1652 2.60642 30.1652 1.32657 30.1147C1.12255 30.0199 0.959182 29.8821 0.83722 29.7006C0.786779 22.4221 0.786779 15.1436 0.83722 7.8651C0.984026 7.68484 1.17224 7.5719 1.40186 7.52627C2.35572 7.47605 3.30883 7.47605 4.2627 7.52627C4.60449 7.6429 4.81755 7.88136 4.90262 8.24157C4.96436 8.43862 5.002 8.63943 5.01555 8.84393C5.0946 8.85515 5.16989 8.84265 5.24141 8.80629C6.47834 7.79839 7.88392 7.18353 9.45738 6.96156Z" fill="white"/>
</g>
<g id="Group_6">
<path id="Vector_6" fill-rule="evenodd" clip-rule="evenodd" d="M49.4336 7.03679C50.1368 7.02429 50.8392 7.03679 51.5416 7.07444C52.3381 7.13076 53.0654 7.38172 53.7249 7.82739C54.0938 8.19633 54.4574 8.56023 54.8165 8.91916C56.1958 7.9657 57.7135 7.35077 59.3713 7.07444C60.3831 6.99334 61.3867 7.04357 62.3827 7.22503C64.0623 7.80081 65.029 8.96788 65.2812 10.7262C65.3316 14.8925 65.3316 19.0589 65.2812 23.2252C65.2398 23.4542 65.1012 23.5923 64.8671 23.6393C63.6121 23.6895 62.3579 23.6895 61.1028 23.6393C60.9485 23.5693 60.8356 23.4564 60.7641 23.3005C60.7392 19.586 60.7136 15.8714 60.6888 12.1568C60.4817 11.0666 59.8162 10.5395 58.6937 10.5756C57.5321 10.5869 56.4404 10.8631 55.4188 11.4039C55.394 15.2942 55.3684 19.1843 55.3435 23.0746C55.3209 23.2544 55.2577 23.4176 55.1553 23.564C54.4597 23.6499 53.7573 23.6876 53.0473 23.677C52.3946 23.6644 51.7426 23.6519 51.0899 23.6393C50.916 23.5558 50.8031 23.4177 50.7511 23.2252C50.7489 19.433 50.6992 15.6431 50.6006 11.8557C50.4402 11.1932 50.0261 10.7791 49.3584 10.6133C48.3834 10.5159 47.4303 10.6163 46.4975 10.9145C46.0849 11.06 45.6957 11.2483 45.3306 11.4792C45.3298 15.4761 45.2794 19.4667 45.18 23.4511C45.0919 23.556 44.979 23.6188 44.8412 23.6393C43.5862 23.6895 42.332 23.6895 41.077 23.6393C40.9693 23.6043 40.8812 23.5415 40.8135 23.4511C40.7261 20.8346 40.6885 18.2118 40.7005 15.5828C40.6885 12.9537 40.7261 10.3309 40.8135 7.71444C40.9076 7.66091 40.9957 7.59819 41.077 7.52621C42.1061 7.47598 43.1345 7.47598 44.1637 7.52621C44.3233 7.61069 44.4618 7.72363 44.5777 7.86503C44.7012 8.15808 44.8013 8.45926 44.8789 8.76857C44.9082 8.83845 44.9579 8.88867 45.0294 8.91916C46.3838 8.00937 47.8519 7.38187 49.4336 7.03679Z" fill="white"/>
</g>
<g id="Group_7">
<path id="Vector_7" fill-rule="evenodd" clip-rule="evenodd" d="M74.9551 7.11206C76.427 6.99798 77.8574 7.18622 79.2464 7.67677C81.8061 8.96996 82.7472 11.0155 82.0696 13.8133C81.7858 14.8457 81.1707 15.6113 80.2251 16.1098C78.288 16.9946 76.2553 17.3209 74.127 17.0886C73.5255 16.9925 72.9232 16.9046 72.3202 16.8251C72.3382 19.039 73.4419 20.3064 75.6327 20.6275C77.347 20.7678 79.0281 20.592 80.6768 20.1004C80.932 20.0438 81.1835 20.0564 81.4297 20.1381C81.511 20.2258 81.5742 20.3262 81.6179 20.4393C81.6683 21.142 81.6683 21.8448 81.6179 22.5475C81.5652 22.816 81.4274 23.0294 81.2038 23.1875C78.3083 24.3715 75.3722 24.497 72.3954 23.564C70.0149 22.5118 68.6221 20.6922 68.2171 18.1051C67.6081 15.1565 68.1102 12.4208 69.7228 9.89797C71.0802 8.24652 72.8246 7.31784 74.9551 7.11206Z" fill="white"/>
</g>
<g id="Group_8">
<path id="Vector_8" fill-rule="evenodd" clip-rule="evenodd" d="M141.357 7.11192C142.781 7.04829 144.161 7.2616 145.497 7.75192C147.919 9.0424 148.836 11.0377 148.245 13.7379C147.968 14.7175 147.404 15.4831 146.551 16.0344C144.941 16.8874 143.222 17.2514 141.394 17.1261C140.371 17.0796 139.355 16.9792 138.345 16.825C138.375 17.9339 138.752 18.9002 139.475 19.7238C140.099 20.1999 140.802 20.5011 141.583 20.6274C142.536 20.6776 143.49 20.6776 144.443 20.6274C145.251 20.4677 146.054 20.2921 146.853 20.1003C147.25 19.9703 147.538 20.0833 147.718 20.4391C147.786 21.2467 147.761 22.0499 147.643 22.8486C147.253 23.2129 146.789 23.4514 146.25 23.5639C144.121 24.163 141.963 24.2885 139.776 23.9403C137.421 23.416 135.777 22.0482 134.845 19.8368C133.798 16.8795 133.898 13.9681 135.146 11.1025C136.487 8.64356 138.557 7.31333 141.357 7.11192Z" fill="white"/>
</g>
<g id="Group_9">
<path id="Vector_9" fill-rule="evenodd" clip-rule="evenodd" d="M28.0528 7.33775C28.6303 7.32525 29.2077 7.33775 29.7844 7.3754C29.9191 7.43451 30.0321 7.5223 30.1232 7.63893C30.2444 8.71302 30.27 9.79222 30.1984 10.8766C30.1744 11.1381 30.0614 11.3514 29.8597 11.5166C28.0543 11.3894 26.2972 11.6153 24.5897 12.1943C24.5272 12.257 24.464 12.3198 24.4015 12.3825C24.3766 16.0469 24.351 19.7112 24.3262 23.3756C24.2351 23.4922 24.1222 23.58 23.9874 23.6391C22.7076 23.6893 21.4277 23.6893 20.1479 23.6391C19.9521 23.5687 19.8392 23.4307 19.8091 23.225C19.7586 18.0799 19.7586 12.9346 19.8091 7.78952C19.8972 7.70165 19.9845 7.61386 20.0726 7.52599C21.1266 7.47577 22.1806 7.47577 23.2346 7.52599C23.4777 7.64368 23.6411 7.83191 23.7239 8.0907C23.8414 8.66129 24.0047 9.21342 24.2133 9.74719C24.9744 8.92301 25.8522 8.25793 26.8483 7.75188C27.2503 7.58931 27.6523 7.4513 28.0528 7.33775Z" fill="white"/>
</g>
<g id="Group_10">
<path id="Vector_10" fill-rule="evenodd" clip-rule="evenodd" d="M32.5696 7.48854C33.8751 7.47597 35.1797 7.48854 36.4844 7.52619C36.7013 7.64583 36.8142 7.83407 36.8232 8.0909C36.8737 12.9851 36.8737 17.8792 36.8232 22.7734C36.7984 22.9491 36.7728 23.1248 36.7479 23.3005C36.7103 23.4385 36.6222 23.5264 36.4844 23.564C35.1797 23.6142 33.8743 23.6142 32.5696 23.564C32.4062 23.5013 32.2933 23.3883 32.2308 23.2252C32.1804 18.1051 32.1804 12.9851 32.2308 7.86502C32.3076 7.70035 32.4205 7.57483 32.5696 7.48854Z" fill="white"/>
</g>
<g id="Group_11">
<path id="Vector_11" fill-rule="evenodd" clip-rule="evenodd" d="M89.7114 7.48854C91.0921 7.47597 92.4721 7.48854 93.8521 7.52619C94.0117 7.61067 94.1502 7.72361 94.2662 7.86502C95.4406 11.6658 96.5699 15.4806 97.654 19.3098C98.8089 15.494 99.963 11.6791 101.117 7.86502C101.247 7.70562 101.411 7.59268 101.606 7.52619C102.861 7.47597 104.116 7.47597 105.371 7.52619C105.784 7.56263 105.922 7.77594 105.785 8.1662C103.912 13.2345 101.979 18.2793 99.9878 23.3005C99.8817 23.3974 99.7688 23.4852 99.6491 23.564C98.4264 23.6872 97.197 23.7123 95.9601 23.6393C95.6401 23.5491 95.4022 23.3609 95.2449 23.0746C93.4177 18.2447 91.5604 13.4258 89.6738 8.61797C89.5254 8.22478 89.5382 7.8483 89.7114 7.48854Z" fill="white"/>
</g>
<g id="Group_12">
<path id="Vector_12" fill-rule="evenodd" clip-rule="evenodd" d="M108.156 7.48854C109.411 7.47597 110.666 7.48854 111.92 7.52619C112.108 7.61406 112.246 7.75207 112.334 7.94031C112.385 13.0101 112.385 18.0801 112.334 23.1499C112.278 23.3813 112.141 23.5444 111.92 23.6393C110.64 23.6895 109.36 23.6895 108.081 23.6393C107.939 23.5231 107.826 23.3851 107.742 23.2252C107.691 18.1302 107.691 13.0353 107.742 7.94031C107.819 7.72572 107.956 7.57513 108.156 7.48854Z" fill="white"/>
</g>
<g id="Group_13">
<path id="Vector_13" fill-rule="evenodd" clip-rule="evenodd" d="M74.9554 10.3498C75.8264 10.2506 76.6545 10.3887 77.4398 10.7639C78.2333 11.609 78.3206 12.5251 77.7033 13.5121C77.2275 13.9486 76.6628 14.1871 76.0094 14.2274C74.8244 14.2992 73.6454 14.249 72.4709 14.0768C72.4002 12.9123 72.7766 11.9084 73.6002 11.0651C74.0256 10.7646 74.4773 10.5262 74.9554 10.3498Z" fill="black"/>
</g>
<g id="Group_14">
<path id="Vector_14" fill-rule="evenodd" clip-rule="evenodd" d="M140.905 10.3497C141.588 10.321 142.266 10.3587 142.938 10.4626C143.766 10.739 144.192 11.3163 144.218 12.1944C144.24 12.9791 143.914 13.5564 143.239 13.9262C142.83 14.1043 142.404 14.2047 141.959 14.2274C140.824 14.2999 139.695 14.2497 138.572 14.0768C138.467 14.0048 138.416 13.9044 138.421 13.7756C138.517 12.731 138.919 11.8275 139.625 11.065C140.014 10.7456 140.44 10.5072 140.905 10.3497Z" fill="black"/>
</g>
<g id="Group_15">
<path id="Vector_15" fill-rule="evenodd" clip-rule="evenodd" d="M122.46 10.5003C123.739 10.3789 124.969 10.5671 126.149 11.065C126.237 11.1529 126.325 11.2407 126.413 11.3286C126.463 14.0643 126.463 16.8 126.413 19.5357C125.95 19.9419 125.41 20.2054 124.794 20.3263C122.4 20.9437 120.882 20.0778 120.239 17.7286C119.856 16.0097 119.907 14.3029 120.39 12.6086C120.745 11.5638 121.435 10.8611 122.46 10.5003Z" fill="black"/>
</g>
<g id="Group_16">
<path id="Vector_16" fill-rule="evenodd" clip-rule="evenodd" d="M7.80083 10.5003C8.48593 10.4782 9.1635 10.5409 9.83353 10.6885C10.7799 11.0075 11.395 11.6475 11.678 12.6085C11.8188 13.1274 11.9189 13.6545 11.9792 14.1897C12.1237 15.6721 11.998 17.1278 11.6027 18.5568C10.8619 20.1385 9.61972 20.7785 7.87612 20.4769C7.02765 20.3951 6.26276 20.1064 5.57992 19.611C5.52948 16.8753 5.52948 14.1395 5.57992 11.4038C5.8788 11.1477 6.21758 10.9594 6.59627 10.8391C7.00959 10.7335 7.41161 10.6206 7.80083 10.5003Z" fill="black"/>
</g>
<g id="Group_17">
<path id="Vector_17" fill-rule="evenodd" clip-rule="evenodd" d="M157.92 10.5755C159.562 10.3484 160.729 10.9758 161.421 12.4578C161.883 13.8013 162.034 15.1818 161.872 16.5991C161.809 17.5558 161.558 18.4594 161.12 19.3097C160.308 20.3574 159.242 20.7715 157.92 20.552C156.995 20.3719 156.33 19.8574 155.925 19.0085C155.34 17.5061 155.139 15.9501 155.323 14.3402C155.376 13.4515 155.628 12.6233 156.075 11.8555C156.54 11.2016 157.154 10.775 157.92 10.5755Z" fill="black"/>
</g>
<g id="Group_18">
<path id="Vector_18" fill-rule="evenodd" clip-rule="evenodd" d="M119.449 30.83C121.22 30.7487 122.976 30.8617 124.719 31.1689C125.293 31.3104 125.845 31.5107 126.375 31.7712C126.732 32.0204 126.945 32.3593 127.015 32.7877C127.094 37.77 125.664 42.2628 122.724 46.2655C122.204 46.9371 121.589 47.5018 120.879 47.9596C120.258 48.0628 120.019 47.7992 120.164 47.169C121.239 44.4193 122.118 41.6085 122.799 38.736C122.97 37.8648 123.02 36.9861 122.95 36.1007C122.717 35.2913 122.177 34.8267 121.331 34.7077C119.86 34.466 118.379 34.3907 116.889 34.4818C115.127 34.6226 113.37 34.8109 111.619 35.0466C110.901 34.9916 110.713 34.64 111.055 33.9924C112.03 33.1469 113.121 32.482 114.33 31.9971C115.988 31.3518 117.694 30.9633 119.449 30.83Z" fill="white"/>
</g>
<g id="Group_19">
<path id="Vector_19" fill-rule="evenodd" clip-rule="evenodd" d="M41.679 31.8087C42.0833 31.8599 42.4597 31.9976 42.8083 32.2228C56.7119 40.7025 71.8194 44.6931 88.13 44.1947C98.5916 43.7188 108.579 41.3094 118.094 36.9664C119.13 36.7435 119.758 37.1456 119.976 38.1711C119.937 38.5107 119.824 38.8246 119.637 39.1123C116.761 41.5119 113.612 43.5072 110.189 45.0982C94.8274 52.1556 79.168 52.8837 63.2106 47.2818C54.8592 44.1427 47.5437 39.4368 41.2649 33.164C40.9194 32.5526 41.0571 32.1008 41.679 31.8087Z" fill="white"/>
</g>
</g>
</svg>
