<svg xmlns="http://www.w3.org/2000/svg" width="18" height="18" viewBox="0 0 18 18" fill="none">
  <path fill-rule="evenodd" clip-rule="evenodd" d="M16.5 9C16.5 13.1421 13.1421 16.5 9 16.5C4.85786 16.5 1.5 13.1421 1.5 9C1.5 4.85786 4.85786 1.5 9 1.5C13.1421 1.5 16.5 4.85786 16.5 9ZM9.4256 5.62629C9.63342 5.39538 9.61471 5.03972 9.38379 4.8319C9.15288 4.62408 8.79722 4.64279 8.5894 4.87371L8.5819 4.88204C8.37408 5.11295 8.39279 5.46861 8.62371 5.67643C8.85462 5.88426 9.21028 5.86554 9.4181 5.63463L9.4256 5.62629ZM9.5625 8.25083C9.5625 7.94017 9.31066 7.68833 9 7.68833C8.68934 7.68833 8.4375 7.94017 8.4375 8.25083V12.0008C8.4375 12.3115 8.68934 12.5633 9 12.5633C9.31066 12.5633 9.5625 12.3115 9.5625 12.0008V8.25083Z" fill="#CED2DA"/>
</svg>