<svg width="24" height="24" viewBox="0 0 24 24" fill="none" xmlns="http://www.w3.org/2000/svg">
<g id="Linear / Arrows Action / Login 2">
<path id="Vector" d="M2.00098 11.999L16.001 11.999M16.001 11.999L12.501 8.99902M16.001 11.999L12.501 14.999" stroke="#667185" stroke-linecap="round" stroke-linejoin="round"/>
<path id="Vector_2" d="M9 7C9.01211 4.82497 9.10856 3.64706 9.87694 2.87868C10.7556 2 12.1698 2 14.9983 2L15.9983 2C18.8267 2 20.2409 2 21.1196 2.87868C21.9983 3.75736 21.9983 5.17157 21.9983 8L21.9983 16C21.9983 18.8284 21.9983 20.2426 21.1196 21.1213C20.2409 22 18.8267 22 15.9983 22H14.9983C12.1698 22 10.7556 22 9.87694 21.1213C9.10856 20.3529 9.01211 19.175 9 17" stroke="#667185" stroke-linecap="round"/>
</g>
</svg>
