<svg xmlns="http://www.w3.org/2000/svg" width="31" height="30" viewBox="0 0 31 30" fill="none">
  <path d="M8.24512 12.5068H13.2183" stroke="#1C274C" stroke-width="1.24329" stroke-linecap="round" stroke-linejoin="round"/>
  <path d="M26.6871 13.75H23.4513C21.2329 13.75 19.4346 15.4199 19.4346 17.4799C19.4346 19.5398 21.2329 21.2097 23.4513 21.2097H26.6871C26.7907 21.2097 26.8425 21.2097 26.8862 21.2071C27.5567 21.1663 28.0908 20.6703 28.1347 20.0478C28.1376 20.0071 28.1376 19.959 28.1376 19.8628V15.0969C28.1376 15.0007 28.1376 14.9526 28.1347 14.912C28.0908 14.2894 27.5567 13.7935 26.8862 13.7527C26.8425 13.75 26.7907 13.75 26.6871 13.75Z" stroke="#1C274C" stroke-width="1.24329"/>
  <path d="M26.851 13.7501C26.7543 11.4223 26.4426 9.99509 25.4379 8.99029C23.9812 7.53369 21.6369 7.53369 16.9481 7.53369H13.2183C8.52955 7.53369 6.18518 7.53369 4.72858 8.9903C3.27197 10.4469 3.27197 12.7913 3.27197 17.48C3.27197 22.1687 3.27197 24.5131 4.72858 25.9697C6.18518 27.4263 8.52955 27.4263 13.2183 27.4263H16.9481C21.6369 27.4263 23.9813 27.4263 25.4379 25.9697C26.4426 24.9649 26.7543 23.5377 26.851 21.2099" stroke="#1C274C" stroke-width="1.24329"/>
  <path d="M8.24512 7.53358L12.8894 4.45412C14.1973 3.58691 15.9691 3.58691 17.277 4.45412L21.9213 7.53358" stroke="#1C274C" stroke-width="1.24329" stroke-linecap="round"/>
  <path d="M23.1536 17.48H23.1648" stroke="#1C274C" stroke-width="1.24329" stroke-linecap="round" stroke-linejoin="round"/>
</svg>