<svg xmlns="http://www.w3.org/2000/svg" width="159" height="57" viewBox="0 0 159 57" fill="none">
  <rect x="0.529785" y="14.0164" width="2.86966" height="28.9672" rx="1.43483" fill="#98A2B3"/>
  <rect x="0.529785" y="14.0164" width="2.86966" height="28.9672" rx="1.43483" fill="#98A2B3"/>
  <rect x="6.08594" y="3.73755" width="2.86966" height="49.5246" rx="1.43483" fill="#98A2B3"/>
  <rect x="6.08594" y="3.73755" width="2.86966" height="49.5246" rx="1.43483" fill="#98A2B3"/>
  <rect x="11.6421" y="7.47534" width="2.86966" height="42.0492" rx="1.43483" fill="#98A2B3"/>
  <rect x="11.6421" y="7.47534" width="2.86966" height="42.0492" rx="1.43483" fill="#98A2B3"/>
  <rect x="17.1982" y="17.7542" width="2.86966" height="21.4918" rx="1.43483" fill="#98A2B3"/>
  <rect x="17.1982" y="17.7542" width="2.86966" height="21.4918" rx="1.43483" fill="#98A2B3"/>
  <rect x="22.7544" y="14.0164" width="2.86966" height="28.9672" rx="1.43483" fill="#98A2B3"/>
  <rect x="22.7544" y="14.0164" width="2.86966" height="28.9672" rx="1.43483" fill="#98A2B3"/>
  <rect x="28.3105" y="16.8198" width="2.86966" height="23.3607" rx="1.43483" fill="#98A2B3"/>
  <rect x="28.3105" y="16.8198" width="2.86966" height="23.3607" rx="1.43483" fill="#98A2B3"/>
  <rect x="33.8667" width="2.86966" height="57" rx="1.43483" fill="#98A2B3"/>
  <rect x="33.8667" width="2.86966" height="57" rx="1.43483" fill="#98A2B3"/>
  <rect x="39.4229" y="14.0164" width="2.86966" height="28.9672" rx="1.43483" fill="#98A2B3"/>
  <rect x="39.4229" y="14.0164" width="2.86966" height="28.9672" rx="1.43483" fill="#98A2B3"/>
  <rect x="44.979" y="14.0164" width="2.86966" height="28.9672" rx="1.43483" fill="#98A2B3"/>
  <rect x="44.979" y="14.0164" width="2.86966" height="28.9672" rx="1.43483" fill="#98A2B3"/>
  <rect x="50.5352" y="14.0164" width="2.86966" height="28.9672" rx="1.43483" fill="#98A2B3"/>
  <rect x="50.5352" y="14.0164" width="2.86966" height="28.9672" rx="1.43483" fill="#98A2B3"/>
  <rect x="56.0913" y="18.6885" width="2.86966" height="19.6229" rx="1.43483" fill="#98A2B3"/>
  <rect x="56.0913" y="18.6885" width="2.86966" height="19.6229" rx="1.43483" fill="#98A2B3"/>
  <rect x="61.6475" y="15.885" width="2.86966" height="25.2295" rx="1.43483" fill="#98A2B3"/>
  <rect x="61.6475" y="15.885" width="2.86966" height="25.2295" rx="1.43483" fill="#98A2B3"/>
  <rect x="67.2036" y="23.3606" width="2.86966" height="10.2787" rx="1.43483" fill="#98A2B3"/>
  <rect x="67.2036" y="23.3606" width="2.86966" height="10.2787" rx="1.43483" fill="#98A2B3"/>
  <rect x="72.7598" y="15.885" width="2.86966" height="25.2295" rx="1.43483" fill="#98A2B3"/>
  <rect x="72.7598" y="15.885" width="2.86966" height="25.2295" rx="1.43483" fill="#98A2B3"/>
  <rect x="78.3159" y="1.86865" width="2.86966" height="53.2623" rx="1.43483" fill="#98A2B3"/>
  <rect x="78.3159" y="1.86865" width="2.86966" height="53.2623" rx="1.43483" fill="#98A2B3"/>
  <rect x="83.8721" y="10.2788" width="2.86966" height="36.4426" rx="1.43483" fill="#98A2B3"/>
  <rect x="83.8721" y="10.2788" width="2.86966" height="36.4426" rx="1.43483" fill="#98A2B3"/>
  <rect x="89.4282" y="15.8853" width="2.86966" height="25.2295" rx="1.43483" fill="#98A2B3"/>
  <rect x="89.4282" y="15.8853" width="2.86966" height="25.2295" rx="1.43483" fill="#98A2B3"/>
  <rect x="94.9844" y="20.5574" width="2.86966" height="15.8852" rx="1.43483" fill="#98A2B3"/>
  <rect x="94.9844" y="20.5574" width="2.86966" height="15.8852" rx="1.43483" fill="#98A2B3"/>
  <rect x="100.541" y="10.2788" width="2.86966" height="36.4426" rx="1.43483" fill="#98A2B3"/>
  <rect x="100.541" y="10.2788" width="2.86966" height="36.4426" rx="1.43483" fill="#98A2B3"/>
  <rect x="106.097" y="1.86865" width="2.86966" height="53.2623" rx="1.43483" fill="#98A2B3"/>
  <rect x="106.097" y="1.86865" width="2.86966" height="53.2623" rx="1.43483" fill="#98A2B3"/>
  <rect x="111.653" y="10.2788" width="2.86966" height="36.4426" rx="1.43483" fill="#98A2B3"/>
  <rect x="111.653" y="10.2788" width="2.86966" height="36.4426" rx="1.43483" fill="#98A2B3"/>
  <rect x="117.209" y="10.2788" width="2.86966" height="36.4426" rx="1.43483" fill="#98A2B3"/>
  <rect x="117.209" y="10.2788" width="2.86966" height="36.4426" rx="1.43483" fill="#98A2B3"/>
  <rect x="122.765" y="7.47534" width="2.86966" height="42.0492" rx="1.43483" fill="#98A2B3"/>
  <rect x="122.765" y="7.47534" width="2.86966" height="42.0492" rx="1.43483" fill="#98A2B3"/>
  <rect x="128.321" y="1.86865" width="2.86966" height="53.2623" rx="1.43483" fill="#98A2B3"/>
  <rect x="128.321" y="1.86865" width="2.86966" height="53.2623" rx="1.43483" fill="#98A2B3"/>
  <rect x="133.877" y="12.1477" width="2.86966" height="32.7049" rx="1.43483" fill="#98A2B3"/>
  <rect x="133.877" y="12.1477" width="2.86966" height="32.7049" rx="1.43483" fill="#98A2B3"/>
  <rect x="139.433" y="15.885" width="2.86966" height="25.2295" rx="1.43483" fill="#98A2B3"/>
  <rect x="139.433" y="15.885" width="2.86966" height="25.2295" rx="1.43483" fill="#98A2B3"/>
  <rect x="144.989" y="10.2788" width="2.86966" height="36.4426" rx="1.43483" fill="#98A2B3"/>
  <rect x="144.989" y="10.2788" width="2.86966" height="36.4426" rx="1.43483" fill="#98A2B3"/>
  <rect x="150.545" y="10.2788" width="2.86966" height="36.4426" rx="1.43483" fill="#98A2B3"/>
  <rect x="150.545" y="10.2788" width="2.86966" height="36.4426" rx="1.43483" fill="#98A2B3"/>
  <rect x="156.102" y="14.0164" width="2.86966" height="28.9672" rx="1.43483" fill="#98A2B3"/>
  <rect x="156.102" y="14.0164" width="2.86966" height="28.9672" rx="1.43483" fill="#98A2B3"/>
</svg>