<svg xmlns="http://www.w3.org/2000/svg" width="88" height="110" viewBox="0 0 88 110" fill="none">
  <path d="M82.5 20.1667H51.3333V5.5C51.3333 2.38333 48.95 0 45.8333 0H5.5C2.38333 0 0 2.38333 0 5.5V55C0 61.05 4.95 66 11 66H36.6667V104.5H40.3333V31.1667C40.3333 28.4167 39.2333 25.85 37.5833 23.8333H82.5C83.6 23.8333 84.3333 24.5667 84.3333 25.6667V104.5H88V25.6667C88 22.55 85.6167 20.1667 82.5 20.1667ZM3.66667 55V5.5C3.66667 4.4 4.4 3.66667 5.5 3.66667H45.8333C46.9333 3.66667 47.6667 4.4 47.6667 5.5V20.1667H29.3333C23.2833 20.1667 18.3333 25.1167 18.3333 31.1667V55C18.3333 59.0333 15.0333 62.3333 11 62.3333C6.96667 62.3333 3.66667 59.0333 3.66667 55ZM36.6667 31.1667V62.3333H19.25C21.0833 60.3167 22 57.75 22 55V31.1667C22 27.1333 25.3 23.8333 29.3333 23.8333C33.3667 23.8333 36.6667 27.1333 36.6667 31.1667Z" fill="#A8A8A8"/>
  <path d="M32.9999 9.1665H18.3333V12.8332H32.9999V9.1665Z" fill="#A8A8A8"/>
  <path d="M20.1666 16.5H9.16658V20.1667H20.1666V16.5Z" fill="#A8A8A8"/>
  <path d="M16.4999 25.6665H9.16658V29.3332H16.4999V25.6665Z" fill="#A8A8A8"/>
  <path d="M14.6666 34.833H9.16658V38.4997H14.6666V34.833Z" fill="#A8A8A8"/>
  <path d="M14.6666 44H9.16658V47.6667H14.6666V44Z" fill="#A8A8A8"/>
  <path d="M14.6666 53.1665H9.16658V56.8332H14.6666V53.1665Z" fill="#A8A8A8"/>
  <path d="M64.1667 31.1665H45.8333V34.8332H64.1667V31.1665Z" fill="#A8A8A8"/>
  <path d="M64.1667 40.3335H45.8333V44.0002H64.1667V40.3335Z" fill="#A8A8A8"/>
  <path d="M64.1667 49.5H45.8333V53.1667H64.1667V49.5Z" fill="#A8A8A8"/>
  <path d="M64.1667 58.6665H45.8333V62.3332H64.1667V58.6665Z" fill="#A8A8A8"/>
  <path d="M78.8333 31.1665H71.5V34.8332H78.8333V31.1665Z" fill="#A8A8A8"/>
  <path d="M78.8333 40.3335H71.5V44.0002H78.8333V40.3335Z" fill="#A8A8A8"/>
  <path d="M78.8333 49.5H71.5V53.1667H78.8333V49.5Z" fill="#A8A8A8"/>
  <path d="M78.8333 58.6665H71.5V62.3332H78.8333V58.6665Z" fill="#A8A8A8"/>
  <path d="M51.3333 106.333H45.8333V110H51.3333V106.333Z" fill="#A8A8A8"/>
  <path d="M60.5 106.333H55V110H60.5V106.333Z" fill="#A8A8A8"/>
  <path d="M69.6667 106.333H64.1667V110H69.6667V106.333Z" fill="#A8A8A8"/>
  <path d="M78.8333 106.333H73.3333V110H78.8333V106.333Z" fill="#A8A8A8"/>
  <path d="M64.1667 67.8335H45.8333V71.5002H64.1667V67.8335Z" fill="#A8A8A8"/>
  <path d="M64.1667 77H45.8333V80.6667H64.1667V77Z" fill="#A8A8A8"/>
  <path d="M64.1667 86.1665H45.8333V89.8332H64.1667V86.1665Z" fill="#A8A8A8"/>
  <path d="M64.1667 95.3335H45.8333V99.0002H64.1667V95.3335Z" fill="#A8A8A8"/>
  <path d="M78.8333 67.8335H71.5V71.5002H78.8333V67.8335Z" fill="#A8A8A8"/>
  <path d="M78.8333 77H71.5V80.6667H78.8333V77Z" fill="#A8A8A8"/>
  <path d="M78.8333 86.1665H71.5V89.8332H78.8333V86.1665Z" fill="#A8A8A8"/>
  <path d="M78.8333 95.3335H71.5V99.0002H78.8333V95.3335Z" fill="#A8A8A8"/>
  <path d="M42.1667 106.333H36.6667V110H42.1667V106.333Z" fill="#A8A8A8"/>
  <path d="M88 106.333H82.5V110H88V106.333Z" fill="#A8A8A8"/>
</svg>