<svg width="19" height="19" viewBox="0 0 19 19" fill="none" xmlns="http://www.w3.org/2000/svg">
<g id="search-1">
<path id="Vector" d="M16.8238 15.8165L12.6063 11.5979C13.5268 10.3875 13.9534 8.87247 13.7996 7.35939C13.6459 5.8463 12.9233 4.44813 11.778 3.44772C10.6328 2.44733 9.15037 1.91939 7.63074 1.97074C6.11112 2.02209 4.66772 2.64887 3.59257 3.7243C2.51743 4.79972 1.89079 6.24349 1.83947 7.76351C1.78813 9.28352 2.31593 10.7663 3.31607 11.9119C4.31621 13.0574 5.71403 13.7802 7.22672 13.934C8.73942 14.0878 10.254 13.6611 11.4642 12.7403L15.6817 16.9589C15.8344 17.108 16.0394 17.1914 16.2528 17.1914C16.4661 17.1914 16.671 17.108 16.8238 16.9589C16.975 16.8074 17.0601 16.602 17.0601 16.3877C17.0601 16.1735 16.975 15.9681 16.8238 15.8165ZM3.49489 7.98605C3.49489 7.12345 3.75061 6.28021 4.22972 5.56298C4.70884 4.84576 5.38982 4.28674 6.18655 3.95664C6.98329 3.62653 7.86 3.54016 8.70581 3.70844C9.55162 3.87673 10.3286 4.29211 10.9383 4.90207C11.5481 5.51203 11.9634 6.28915 12.1316 7.13518C12.2999 7.98121 12.2135 8.85814 11.8836 9.65509C11.5535 10.452 10.9947 11.1332 10.2776 11.6124C9.56056 12.0916 8.71755 12.3475 7.85516 12.3475C6.69917 12.3461 5.5909 11.8861 4.77349 11.0685C3.95608 10.2509 3.49625 9.14234 3.49489 7.98605Z" fill="#E0E1EC"/>
</g>
</svg>
