<svg width="44" height="46" viewBox="0 0 44 46" fill="none" xmlns="http://www.w3.org/2000/svg">
<path d="M31.3658 6.76756C31.7107 6.14882 31.8832 5.83945 32.141 5.83945C32.3988 5.83945 32.5713 6.14882 32.9162 6.76756L33.0054 6.92764C33.1035 7.10346 33.1525 7.19138 33.2289 7.24938C33.3053 7.30739 33.4004 7.32892 33.5908 7.37198L33.7641 7.41119C34.4338 7.56274 34.7687 7.63851 34.8484 7.89472C34.9281 8.15094 34.6998 8.41791 34.2432 8.95186L34.125 9.09C33.9953 9.24173 33.9304 9.31759 33.9012 9.41145C33.872 9.5053 33.8818 9.60653 33.9015 9.80897L33.9193 9.99327C33.9883 10.7057 34.0229 11.0619 33.8143 11.2202C33.6057 11.3786 33.2921 11.2342 32.665 10.9455L32.5028 10.8708C32.3246 10.7887 32.2355 10.7477 32.141 10.7477C32.0466 10.7477 31.9575 10.7887 31.7792 10.8708L31.617 10.9455C30.9899 11.2342 30.6763 11.3786 30.4677 11.2202C30.2591 11.0619 30.2937 10.7057 30.3627 9.99327L30.3806 9.80897C30.4002 9.60653 30.41 9.5053 30.3808 9.41145C30.3516 9.31759 30.2867 9.24173 30.157 9.09L30.0388 8.95186C29.5822 8.41791 29.3539 8.15094 29.4336 7.89472C29.5133 7.63851 29.8482 7.56274 30.5179 7.41119L30.6912 7.37198C30.8816 7.32892 30.9767 7.30739 31.0531 7.24938C31.1295 7.19138 31.1786 7.10346 31.2766 6.92764L31.3658 6.76756Z" stroke="#EFA705" stroke-width="1.36152"/>
<path d="M38.4949 8.56261C38.4949 12.0717 35.6502 14.9164 32.1411 14.9164C28.632 14.9164 25.7874 12.0717 25.7874 8.56261C25.7874 5.05353 28.632 2.20886 32.1411 2.20886C35.6502 2.20886 38.4949 5.05353 38.4949 8.56261Z" stroke="#EFA705" stroke-width="1.36152"/>
<path d="M32.141 14.9779L28.7177 18.5224C28.2275 19.03 27.9823 19.2838 27.7748 19.3717C27.3017 19.5718 26.777 19.4005 26.5282 18.9648C26.419 18.7735 26.3849 18.4286 26.3169 17.7388C26.2785 17.3493 26.2592 17.1545 26.2009 16.9914C26.0704 16.6262 25.796 16.3422 25.4433 16.207C25.2858 16.1466 25.0977 16.1267 24.7215 16.0869C24.0553 16.0165 23.7221 15.9812 23.5375 15.8682C23.1166 15.6105 22.9512 15.0672 23.1445 14.5774C23.2293 14.3625 23.4744 14.1087 23.9647 13.6011L26.2009 11.2857" stroke="#EFA705" stroke-width="1.36152"/>
<path d="M32.141 14.9779L35.5643 18.5224C36.0545 19.03 36.2996 19.2838 36.5072 19.3717C36.9803 19.5718 37.505 19.4005 37.7538 18.9648C37.863 18.7735 37.897 18.4286 37.9651 17.7388C38.0035 17.3493 38.0227 17.1545 38.0811 16.9914C38.2116 16.6262 38.486 16.3422 38.8387 16.207C38.9962 16.1466 39.1843 16.1267 39.5605 16.0869C40.2267 16.0165 40.5598 15.9812 40.7445 15.8682C41.1654 15.6105 41.3308 15.0672 41.1375 14.5774C41.0527 14.3625 40.8076 14.1087 40.3173 13.6011L38.0811 11.2857" stroke="#EFA705" stroke-width="1.36152"/>
<path d="M32.1432 23.391C30.7869 23.391 29.4861 23.1971 28.2406 22.8235V30.8224C27.8809 30.7532 27.5209 30.7254 27.1473 30.7254C23.6878 30.7254 20.9062 33.6456 21.1276 37.1469C21.3072 40.1498 23.7569 42.5994 26.7737 42.793C30.2889 43.0144 33.1952 40.2328 33.1952 36.7733V23.3493C32.8351 23.3771 32.4894 23.391 32.1432 23.391Z" fill="#013131"/>
<path d="M18.4845 11.8218L9.82117 13.4269C8.75569 13.6205 7.99463 14.548 7.99463 15.6274V33.853C7.63458 33.7839 7.27491 33.7564 6.90133 33.7564C3.44142 33.7564 0.659889 36.6763 0.881254 40.1775C1.06128 43.1804 3.51058 45.6301 6.52738 45.8237C10.0425 46.045 12.9488 43.2635 12.9488 39.8039V21.6197L22.8712 19.8067C20.588 17.7445 19.0103 14.963 18.4845 11.8218Z" fill="#013131"/>
</svg>
