<svg width="41" height="38" viewBox="0 0 41 38" fill="none" xmlns="http://www.w3.org/2000/svg">
<path d="M28.9136 15.7904H21.3704C20.9672 15.74 20.5563 15.7116 20.1402 15.7052C17.9937 15.2958 16.3654 13.4092 16.3654 11.1481C16.3654 8.58864 18.4498 6.50572 21.0112 6.50572H40.0441V0H21.0112C14.8598 0 9.85478 5.00133 9.85478 11.1481C9.85478 12.6925 10.1714 14.1633 10.7413 15.5024C8.83386 14.9252 7.44077 13.1522 7.44077 11.0602V0.0116215H0.930176V11.0602C0.930176 17.207 5.93524 22.2083 12.0866 22.2083H19.6297C20.0329 22.2587 20.4439 22.2871 20.86 22.2935C23.0065 22.7029 24.6348 24.5895 24.6348 26.8519C24.6348 29.4114 22.5503 31.4943 19.989 31.4943H0.956023V38H19.989C26.1403 38 31.1454 32.9987 31.1454 26.8519C31.1454 25.3075 30.8287 23.8367 30.2588 22.4976C32.1663 23.0748 33.5594 24.8478 33.5594 26.9398V37.9122H40.07V26.9398C40.07 20.793 35.0649 15.7917 28.9136 15.7917V15.7904Z" fill="#EFA705"/>
</svg>
