<svg xmlns="http://www.w3.org/2000/svg" width="48" height="48" viewBox="0 0 48 48" fill="none">
  <rect width="48" height="48" rx="24" fill="#E4E7EC"/>
  <path d="M28.7291 21.7263H24.4892C24.2626 21.6984 24.0316 21.6827 23.7977 21.6792C22.5912 21.453 21.6759 20.4103 21.6759 19.1608C21.6759 17.7464 22.8476 16.5953 24.2873 16.5953H34.9855V13H24.2873C20.8297 13 18.0164 15.7639 18.0164 19.1608C18.0164 20.0143 18.1944 20.8271 18.5147 21.5671C17.4426 21.2481 16.6595 20.2683 16.6595 19.1122V13.0064H13V19.1122C13 22.5091 15.8133 25.273 19.2709 25.273H23.5108C23.7374 25.3008 23.9684 25.3165 24.2023 25.3201C25.4088 25.5463 26.3241 26.5889 26.3241 27.8392C26.3241 29.2536 25.1524 30.4047 23.7127 30.4047H13.0145V34H23.7127C27.1703 34 29.9836 31.2361 29.9836 27.8392C29.9836 26.9857 29.8056 26.1729 29.4853 25.4329C30.5574 25.7519 31.3405 26.7317 31.3405 27.8878V33.9515H35V27.8878C35 24.4909 32.1867 21.727 28.7291 21.727V21.7263Z" fill="#013131"/>
</svg>