<svg width="40" height="40" viewBox="0 0 40 40" fill="none" xmlns="http://www.w3.org/2000/svg">
<g clip-path="url(#clip0_2684_1628)">
<circle cx="20" cy="20" r="20" fill="#E6F2FF"/>
<path d="M11.9863 21.4942C11.6146 18.8579 11.4287 17.5397 12.2186 16.6865C13.0085 15.8333 14.4147 15.8333 17.227 15.8333H22.773C25.5854 15.8333 26.9915 15.8333 27.7814 16.6865C28.5713 17.5397 28.3855 18.8579 28.0138 21.4942L27.6613 23.9942C27.3698 26.0616 27.2241 27.0953 26.4764 27.7143C25.7287 28.3333 24.626 28.3333 22.4206 28.3333H17.5795C15.374 28.3333 14.2713 28.3333 13.5236 27.7143C12.776 27.0953 12.6302 26.0616 12.3388 23.9942L11.9863 21.4942Z" stroke="#1C274C"/>
<path d="M20 24.1667C20 24.857 19.4404 25.4167 18.75 25.4167C18.0596 25.4167 17.5 24.857 17.5 24.1667C17.5 23.4763 18.0596 22.9167 18.75 22.9167C19.4404 22.9167 20 23.4763 20 24.1667ZM20 24.1667V18.75C20 20.1307 21.5795 21.25 22.5 21.25" stroke="#1C274C" stroke-linecap="round" stroke-linejoin="round"/>
<path d="M26.3016 15.8333C26.4922 14.746 25.6555 13.75 24.5516 13.75H15.4484C14.3446 13.75 13.5079 14.746 13.6984 15.8333" stroke="#1C274C"/>
<path d="M24.5833 13.75C24.607 13.5341 24.6188 13.4261 24.619 13.337C24.6209 12.4839 23.9783 11.7672 23.1302 11.6762C23.0415 11.6667 22.9329 11.6667 22.7157 11.6667H17.2842C17.067 11.6667 16.9584 11.6667 16.8697 11.6762C16.0216 11.7672 15.3791 12.4839 15.3809 13.337C15.3811 13.4261 15.3929 13.5341 15.4166 13.75" stroke="#1C274C"/>
</g>
<defs>
<clipPath id="clip0_2684_1628">
<rect width="40" height="40" fill="white"/>
</clipPath>
</defs>
</svg>
