<svg xmlns="http://www.w3.org/2000/svg" width="89" height="89" viewBox="0 0 89 89" fill="none">
  <path fill-rule="evenodd" clip-rule="evenodd" d="M84 45C84 22.9086 66.0914 5 44 5C21.9086 5 4 22.9086 4 45C4 67.0914 21.9086 85 44 85C66.0914 85 84 67.0914 84 45ZM44 22C45.6569 22 47 23.3431 47 25V49C47 50.6569 45.6569 52 44 52C42.3431 52 41 50.6569 41 49V25C41 23.3431 42.3431 22 44 22ZM44 65C46.2091 65 48 63.2091 48 61C48 58.7909 46.2091 57 44 57C41.7909 57 40 58.7909 40 61C40 63.2091 41.7909 65 44 65Z" fill="#F62C2C"/>
</svg>